<svg xmlns="http://www.w3.org/2000/svg" xmlns:xlink="http://www.w3.org/1999/xlink" width="155" height="155" viewBox="0 0 155 155">
  <defs>
    <filter id="Rectangle_64" x="0" y="0" width="155" height="155" filterUnits="userSpaceOnUse">
      <feOffset input="SourceAlpha"/>
      <feGaussianBlur stdDeviation="10" result="blur"/>
      <feFlood flood-opacity="0.102"/>
      <feComposite operator="in" in2="blur"/>
      <feComposite in="SourceGraphic"/>
    </filter>
    <linearGradient id="linear-gradient" x1="0.5" x2="0.5" y2="1" gradientUnits="objectBoundingBox">
      <stop offset="0" stop-color="#ff767a"/>
      <stop offset="1" stop-color="#5e53fa"/>
    </linearGradient>
  </defs>
  <g id="Group_574" data-name="Group 574" transform="translate(-875 -2145)">
    <g transform="matrix(1, 0, 0, 1, 875, 2145)" filter="url(#Rectangle_64)">
      <rect id="Rectangle_64-2" data-name="Rectangle 64" width="95" height="95" rx="15" transform="translate(30 30)" fill="#fff"/>
    </g>
    <g id="XMLID_816_" transform="translate(925 2195)">
      <g id="XMLID_1663_">
        <g id="XMLID_709_">
          <path id="XMLID_710_" d="M232,364.99a1.075,1.075,0,1,0,.759.315A1.082,1.082,0,0,0,232,364.99Z" transform="translate(-206.123 -325.782)" fill="url(#linear-gradient)"/>
          <path id="XMLID_734_" d="M422.844,335.12a1.075,1.075,0,1,0,.759.315A1.082,1.082,0,0,0,422.844,335.12Z" transform="translate(-376.463 -299.121)" fill="url(#linear-gradient)"/>
          <path id="XMLID_735_" d="M127.013,287a1.075,1.075,0,1,0,.759.315A1.081,1.081,0,0,0,127.013,287Z" transform="translate(-112.41 -256.17)" fill="url(#linear-gradient)"/>
          <path id="XMLID_744_" d="M55,11.659a1.074,1.074,0,0,0-1.074-1.074H52.271a11.606,11.606,0,0,0-.9-2.176L52.54,7.24a1.074,1.074,0,0,0,0-1.519L49.279,2.46a1.074,1.074,0,0,0-1.519,0L46.591,3.629a11.613,11.613,0,0,0-2.176-.9V1.074A1.074,1.074,0,0,0,43.341,0H38.729a1.074,1.074,0,0,0-1.074,1.074V2.732a11.609,11.609,0,0,0-2.171.9L34.31,2.46a1.074,1.074,0,0,0-1.519,0L29.53,5.721a1.072,1.072,0,0,0-.3.94H4.3a4.306,4.306,0,0,0-4.3,4.3V40.6a4.305,4.305,0,0,0,4.3,4.3H21.369v3.652H18.795a3.875,3.875,0,0,0-3.871,3.871v1.5A1.074,1.074,0,0,0,16,55H35.764a1.074,1.074,0,0,0,1.074-1.074v-1.5a3.875,3.875,0,0,0-3.871-3.871H30.393V44.9H47.452a4.305,4.305,0,0,0,4.3-4.3V23l.788-.788a1.074,1.074,0,0,0,0-1.519l-1.174-1.174a11.613,11.613,0,0,0,.9-2.171h1.658A1.074,1.074,0,0,0,55,16.271ZM34.689,52.426v.426H17.072v-.426A1.724,1.724,0,0,1,18.795,50.7H32.967A1.725,1.725,0,0,1,34.689,52.426Zm-6.445-3.871H23.518V44.9h4.727ZM49.6,40.6a2.154,2.154,0,0,1-2.152,2.152H4.3A2.154,2.154,0,0,1,2.148,40.6V38.147H42.085a1.074,1.074,0,0,0,0-2.148H2.148v-3.02h8.2a1.074,1.074,0,0,0,0-2.148h-8.2V10.961A2.154,2.154,0,0,1,4.3,8.809H30.509a11.615,11.615,0,0,0-.7,1.776H28.145a1.074,1.074,0,0,0-1.074,1.074V16.27a1.074,1.074,0,0,0,1.074,1.074h1.671a11.621,11.621,0,0,0,.9,2.163L29.53,20.69a1.074,1.074,0,0,0,0,1.519l3.261,3.261a1.074,1.074,0,0,0,1.519,0l1.183-1.183a11.609,11.609,0,0,0,2.163.9v1.672a1.074,1.074,0,0,0,1.074,1.074h4.611a1.074,1.074,0,0,0,1.074-1.074V25.188a11.61,11.61,0,0,0,2.167-.9L47.76,25.47a1.074,1.074,0,0,0,1.519,0l.324-.324V40.6ZM52.851,15.2H51.438a1.074,1.074,0,0,0-1.049.842,9.491,9.491,0,0,1-1.274,3.07,1.075,1.075,0,0,0,.145,1.34l1,1L48.52,23.191l-1-1a1.075,1.075,0,0,0-1.24-.2,1.057,1.057,0,0,0-.1.055,9.491,9.491,0,0,1-3.068,1.269,1.074,1.074,0,0,0-.843,1.049v1.424H39.8V24.355a1.074,1.074,0,0,0-.842-1.049A9.493,9.493,0,0,1,35.9,22.035a1.074,1.074,0,0,0-1.338.146l-1.01,1.01-1.741-1.742,1.01-1.01a1.075,1.075,0,0,0,.145-1.34,9.49,9.49,0,0,1-1.269-3.062,1.074,1.074,0,0,0-1.049-.842H29.219V12.733h1.424a1.074,1.074,0,0,0,1.049-.843,9.489,9.489,0,0,1,1.267-3.066,1.075,1.075,0,0,0-.145-1.34l-1-1L33.55,4.739l1,1a1.075,1.075,0,0,0,1.355.135,9.487,9.487,0,0,1,3.055-1.265A1.074,1.074,0,0,0,39.8,3.562V2.148h2.463v1.41a1.074,1.074,0,0,0,.843,1.049,9.491,9.491,0,0,1,3.075,1.273,1.075,1.075,0,0,0,1.338-.146l1-1L50.261,6.48l-1,1a1.075,1.075,0,0,0-.145,1.34,9.486,9.486,0,0,1,1.272,3.073,1.074,1.074,0,0,0,1.049.843h1.411V15.2Z" fill="url(#linear-gradient)"/>
          <path id="XMLID_999_" d="M326.66,68a6.66,6.66,0,1,0,6.66,6.66A6.668,6.668,0,0,0,326.66,68Zm0,11.172a4.512,4.512,0,1,1,4.512-4.512A4.517,4.517,0,0,1,326.66,79.172Z" transform="translate(-285.625 -60.695)" fill="url(#linear-gradient)"/>
          <path id="XMLID_1012_" d="M154.744,187.22a1.075,1.075,0,1,0,.759.315A1.08,1.08,0,0,0,154.744,187.22Z" transform="translate(-137.163 -167.109)" fill="url(#linear-gradient)"/>
          <path id="XMLID_1094_" d="M102.078,124.641a1.074,1.074,0,0,0-.107-.815l-1.814-3.141a1.074,1.074,0,0,0-1.467-.393l-1.033.6a6.794,6.794,0,0,0-1.075-.622v-1.192A1.074,1.074,0,0,0,95.507,118H91.88a1.074,1.074,0,0,0-1.074,1.074v1.192a6.8,6.8,0,0,0-1.075.622l-1.033-.6a1.074,1.074,0,0,0-1.467.393l-1.814,3.141a1.074,1.074,0,0,0,.393,1.467l1.034.6c-.018.206-.028.413-.028.62s.009.414.028.62l-1.034.6a1.074,1.074,0,0,0-.393,1.467l1.814,3.141a1.074,1.074,0,0,0,1.467.393l1.033-.6a6.793,6.793,0,0,0,1.075.622v1.192a1.074,1.074,0,0,0,1.074,1.074h3.628a1.074,1.074,0,0,0,1.074-1.074v-1.192a6.8,6.8,0,0,0,1.075-.622l1.033.6a1.074,1.074,0,0,0,1.467-.393l1.814-3.141a1.074,1.074,0,0,0-.393-1.467l-1.034-.6c.019-.206.028-.413.028-.62s-.009-.414-.028-.62l1.034-.6A1.075,1.075,0,0,0,102.078,124.641Zm-3.754.9a4.776,4.776,0,0,1,0,1.936,1.074,1.074,0,0,0,.515,1.149l.734.424-.74,1.281-.735-.425a1.074,1.074,0,0,0-1.253.13,4.7,4.7,0,0,1-1.673.967,1.074,1.074,0,0,0-.739,1.021v.848H92.954v-.848a1.074,1.074,0,0,0-.739-1.02,4.7,4.7,0,0,1-1.673-.967,1.074,1.074,0,0,0-1.253-.13l-.735.425-.739-1.281.734-.424a1.074,1.074,0,0,0,.515-1.149,4.781,4.781,0,0,1,0-1.936,1.074,1.074,0,0,0-.515-1.149l-.734-.424.739-1.281.735.425a1.074,1.074,0,0,0,1.253-.13,4.7,4.7,0,0,1,1.673-.967A1.074,1.074,0,0,0,92.954,121v-.848h1.479V121a1.074,1.074,0,0,0,.739,1.021,4.7,4.7,0,0,1,1.673.967,1.074,1.074,0,0,0,1.253.13l.735-.425.74,1.281-.734.424A1.074,1.074,0,0,0,98.324,125.542Z" transform="translate(-76.112 -105.324)" fill="url(#linear-gradient)"/>
        </g>
      </g>
    </g>
  </g>
</svg>
