<svg xmlns="http://www.w3.org/2000/svg" xmlns:xlink="http://www.w3.org/1999/xlink" width="155" height="155" viewBox="0 0 155 155">
  <defs>
    <filter id="Rectangle_67" x="0" y="0" width="155" height="155" filterUnits="userSpaceOnUse">
      <feOffset input="SourceAlpha"/>
      <feGaussianBlur stdDeviation="10" result="blur"/>
      <feFlood flood-opacity="0.102"/>
      <feComposite operator="in" in2="blur"/>
      <feComposite in="SourceGraphic"/>
    </filter>
    <linearGradient id="linear-gradient" x1="0.5" x2="0.5" y2="1" gradientUnits="objectBoundingBox">
      <stop offset="0" stop-color="#ff767a"/>
      <stop offset="1" stop-color="#5e53fa"/>
    </linearGradient>
  </defs>
  <g id="Group_580" data-name="Group 580" transform="translate(-354 -2376)">
    <g transform="matrix(1, 0, 0, 1, 354, 2376)" filter="url(#Rectangle_67)">
      <rect id="Rectangle_67-2" data-name="Rectangle 67" width="95" height="95" rx="15" transform="translate(30 30)" fill="#fff"/>
    </g>
    <g id="integration" transform="translate(404 2426)">
      <path id="Path_5939" data-name="Path 5939" d="M24.063,20.625H3.438A3.442,3.442,0,0,1,0,17.188V3.438A3.442,3.442,0,0,1,3.438,0H24.063A3.442,3.442,0,0,1,27.5,3.438v13.75A3.442,3.442,0,0,1,24.063,20.625ZM3.438,2.292A1.146,1.146,0,0,0,2.292,3.438v13.75a1.146,1.146,0,0,0,1.146,1.146H24.063a1.146,1.146,0,0,0,1.146-1.146V3.438a1.146,1.146,0,0,0-1.146-1.146Z" fill="url(#linear-gradient)"/>
      <path id="Path_5940" data-name="Path 5940" d="M12.021,12.292H5.146a1.146,1.146,0,1,1,0-2.292h6.875a1.146,1.146,0,1,1,0,2.292Z" transform="translate(5.167 12.917)" fill="url(#linear-gradient)"/>
      <path id="Path_5941" data-name="Path 5941" d="M6.646,14.875A1.146,1.146,0,0,1,5.5,13.729V9.146a1.146,1.146,0,1,1,2.292,0v4.583A1.146,1.146,0,0,1,6.646,14.875Z" transform="translate(7.104 10.333)" fill="url(#linear-gradient)"/>
      <path id="Path_5942" data-name="Path 5942" d="M36.063,33.625H15.438A3.442,3.442,0,0,1,12,30.188V16.438A3.442,3.442,0,0,1,15.438,13H36.063A3.442,3.442,0,0,1,39.5,16.438v13.75A3.442,3.442,0,0,1,36.063,33.625ZM15.438,15.292a1.146,1.146,0,0,0-1.146,1.146v13.75a1.146,1.146,0,0,0,1.146,1.146H36.063a1.146,1.146,0,0,0,1.146-1.146V16.438a1.146,1.146,0,0,0-1.146-1.146Z" transform="translate(15.5 16.792)" fill="url(#linear-gradient)"/>
      <path id="Path_5943" data-name="Path 5943" d="M24.021,25.292H17.146a1.146,1.146,0,0,1,0-2.292h6.875a1.146,1.146,0,1,1,0,2.292Z" transform="translate(20.667 29.708)" fill="url(#linear-gradient)"/>
      <path id="Path_5944" data-name="Path 5944" d="M18.646,27.875A1.146,1.146,0,0,1,17.5,26.729V22.146a1.146,1.146,0,1,1,2.292,0v4.583A1.146,1.146,0,0,1,18.646,27.875Z" transform="translate(22.604 27.125)" fill="url(#linear-gradient)"/>
      <path id="Path_5945" data-name="Path 5945" d="M18.583,6.292H15.146a1.146,1.146,0,0,1,0-2.292h3.438a1.146,1.146,0,0,1,0,2.292Z" transform="translate(18.083 5.167)" fill="url(#linear-gradient)"/>
      <path id="Path_5946" data-name="Path 5946" d="M22.039,11.831a1.146,1.146,0,0,1-1.146-1.146V9.636a3.447,3.447,0,0,0-2.519-3.314,1.146,1.146,0,1,1,.61-2.209,5.745,5.745,0,0,1,4.2,5.523v1.05A1.146,1.146,0,0,1,22.039,11.831Z" transform="translate(22.648 5.26)" fill="url(#linear-gradient)"/>
      <path id="Path_5947" data-name="Path 5947" d="M20.146,14.229A1.146,1.146,0,0,1,19,13.083V9.646a1.146,1.146,0,0,1,2.292,0v3.437A1.146,1.146,0,0,1,20.146,14.229Z" transform="translate(24.542 10.979)" fill="url(#linear-gradient)"/>
      <path id="Path_5948" data-name="Path 5948" d="M12.083,21.292H8.646a1.146,1.146,0,1,1,0-2.292h3.437a1.146,1.146,0,1,1,0,2.292Z" transform="translate(9.688 24.542)" fill="url(#linear-gradient)"/>
      <path id="Path_5949" data-name="Path 5949" d="M8.505,24.3A1.192,1.192,0,0,1,8.2,24.26,5.746,5.746,0,0,1,4,18.737v-1.05a1.146,1.146,0,0,1,2.292,0v1.05A3.447,3.447,0,0,0,8.81,22.051a1.146,1.146,0,0,1-.3,2.25Z" transform="translate(5.167 21.367)" fill="url(#linear-gradient)"/>
      <path id="Path_5950" data-name="Path 5950" d="M5.146,18.729A1.146,1.146,0,0,1,4,17.583V14.146a1.146,1.146,0,1,1,2.292,0v3.437A1.146,1.146,0,0,1,5.146,18.729Z" transform="translate(5.167 16.792)" fill="url(#linear-gradient)"/>
    </g>
  </g>
</svg>
