<svg xmlns="http://www.w3.org/2000/svg" xmlns:xlink="http://www.w3.org/1999/xlink" width="155" height="155" viewBox="0 0 155 155">
  <defs>
    <filter id="Rectangle_62" x="0" y="0" width="155" height="155" filterUnits="userSpaceOnUse">
      <feOffset input="SourceAlpha"/>
      <feGaussianBlur stdDeviation="10" result="blur"/>
      <feFlood flood-opacity="0.102"/>
      <feComposite operator="in" in2="blur"/>
      <feComposite in="SourceGraphic"/>
    </filter>
    <linearGradient id="linear-gradient" x1="0.5" x2="0.5" y2="1" gradientUnits="objectBoundingBox">
      <stop offset="0" stop-color="#ff767a"/>
      <stop offset="1" stop-color="#5e53fa"/>
    </linearGradient>
  </defs>
  <g id="Group_573" data-name="Group 573" transform="translate(-354 -2145)">
    <g transform="matrix(1, 0, 0, 1, 354, 2145)" filter="url(#Rectangle_62)">
      <rect id="Rectangle_62-2" data-name="Rectangle 62" width="95" height="95" rx="15" transform="translate(30 30)" fill="#fff"/>
    </g>
    <g id="data" transform="translate(404.001 2194.5)">
      <path id="Path_5860" data-name="Path 5860" d="M36.036,133.7a.806.806,0,0,0,1.14-1.14L35.219,130.6l1.957-1.956a.806.806,0,1,0-1.14-1.14l-2.526,2.526a.806.806,0,0,0,0,1.14Zm0,0" transform="translate(-29.696 -113.138)" fill="url(#linear-gradient)"/>
      <path id="Path_5861" data-name="Path 5861" d="M115.123,130.6l-1.957,1.957a.806.806,0,1,0,1.14,1.14l2.527-2.527a.805.805,0,0,0,0-1.139l-2.527-2.527a.806.806,0,0,0-1.139,1.14Zm0,0" transform="translate(-100.787 -113.135)" fill="url(#linear-gradient)"/>
      <path id="Path_5862" data-name="Path 5862" d="M76.929,133.874a.806.806,0,0,0,1.045-.455l1.985-5.053a.806.806,0,1,0-1.5-.589l-1.985,5.053A.806.806,0,0,0,76.929,133.874Zm0,0" transform="translate(-68.2 -113.133)" fill="url(#linear-gradient)"/>
      <path id="Path_5863" data-name="Path 5863" d="M38.321,219.827H43.75a.806.806,0,0,0,0-1.612H38.321a.806.806,0,0,0,0,1.612Zm0,0" transform="translate(-33.482 -194.302)" fill="url(#linear-gradient)"/>
      <path id="Path_5864" data-name="Path 5864" d="M125.862,218.215h-9.544a.806.806,0,0,0,0,1.612h9.544a.806.806,0,1,0,0-1.612Zm0,0" transform="translate(-103.09 -194.302)" fill="url(#linear-gradient)"/>
      <path id="Path_5865" data-name="Path 5865" d="M38.321,251.433h2.312a.806.806,0,0,0,0-1.612H38.321a.806.806,0,0,0,0,1.612Zm0,0" transform="translate(-33.482 -222.509)" fill="url(#linear-gradient)"/>
      <path id="Path_5866" data-name="Path 5866" d="M177.654,249.82a.806.806,0,0,0,0,1.612h1.408a.806.806,0,1,0,0-1.612Zm0,0" transform="translate(-157.83 -222.509)" fill="url(#linear-gradient)"/>
      <path id="Path_5867" data-name="Path 5867" d="M93.841,250.627a.806.806,0,0,0-.806-.806H86.118a.806.806,0,0,0,0,1.612h6.917A.806.806,0,0,0,93.841,250.627Zm0,0" transform="translate(-76.138 -222.509)" fill="url(#linear-gradient)"/>
      <path id="Path_5868" data-name="Path 5868" d="M213.7,250.627a.806.806,0,0,0,.806.806h2.638a.806.806,0,1,0,0-1.612h-2.638A.806.806,0,0,0,213.7,250.627Zm0,0" transform="translate(-190.722 -222.509)" fill="url(#linear-gradient)"/>
      <path id="Path_5869" data-name="Path 5869" d="M166.205,150.89h2.782a.806.806,0,1,0,0-1.612h-2.782a.806.806,0,1,0,0,1.612Zm0,0" transform="translate(-147.613 -132.779)" fill="url(#linear-gradient)"/>
      <path id="Path_5870" data-name="Path 5870" d="M221.052,150.89h16.975a.806.806,0,0,0,0-1.612H221.052a.806.806,0,1,0,0,1.612Zm0,0" transform="translate(-196.561 -132.779)" fill="url(#linear-gradient)"/>
      <path id="Path_5871" data-name="Path 5871" d="M297.866,182.246h-6.877a.806.806,0,0,0,0,1.612h6.877a.806.806,0,0,0,0-1.612Zm0,0" transform="translate(-258.978 -162.201)" fill="url(#linear-gradient)"/>
      <path id="Path_5872" data-name="Path 5872" d="M247.4,182.246h-2.364a.806.806,0,0,0,0,1.612H247.4a.806.806,0,0,0,0-1.612Zm0,0" transform="translate(-217.963 -162.201)" fill="url(#linear-gradient)"/>
      <path id="Path_5873" data-name="Path 5873" d="M166.205,183.858H172a.806.806,0,0,0,0-1.612h-5.791a.806.806,0,1,0,0,1.612Zm0,0" transform="translate(-147.613 -162.201)" fill="url(#linear-gradient)"/>
      <path id="Path_5874" data-name="Path 5874" d="M105.481,281.16h-5.428a.806.806,0,1,0,0,1.611h5.428a.806.806,0,0,0,0-1.611Zm0,0" transform="translate(-88.574 -250.478)" fill="url(#linear-gradient)"/>
      <path id="Path_5875" data-name="Path 5875" d="M42.492,281.16h-4.17a.806.806,0,0,0,0,1.611h4.17a.806.806,0,0,0,0-1.611Zm0,0" transform="translate(-33.482 -250.478)" fill="url(#linear-gradient)"/>
      <path id="Path_5876" data-name="Path 5876" d="M183.186,281.16H176.1a.806.806,0,1,0,0,1.611h7.091a.806.806,0,0,0,0-1.611Zm0,0" transform="translate(-156.44 -250.478)" fill="url(#linear-gradient)"/>
      <path id="Path_5877" data-name="Path 5877" d="M299.031,242.668h-3.878a.806.806,0,0,0,0,1.612h3.878a.806.806,0,0,0,0-1.612Zm0,0" transform="translate(-262.694 -216.126)" fill="url(#linear-gradient)"/>
      <path id="Path_5878" data-name="Path 5878" d="M393.783,244.28h5.474a.806.806,0,1,0,0-1.612h-5.474a.806.806,0,0,0,0,1.612Zm0,0" transform="translate(-350.717 -216.126)" fill="url(#linear-gradient)"/>
      <path id="Path_5879" data-name="Path 5879" d="M357.916,242.668h-1.254a.806.806,0,1,0,0,1.612h1.254a.806.806,0,0,0,0-1.612Zm0,0" transform="translate(-317.588 -216.126)" fill="url(#linear-gradient)"/>
      <path id="Path_5880" data-name="Path 5880" d="M295.154,325.94h3.878a.806.806,0,1,0,0-1.611h-3.878a.806.806,0,1,0,0,1.611Zm0,0" transform="translate(-262.695 -289.005)" fill="url(#linear-gradient)"/>
      <path id="Path_5881" data-name="Path 5881" d="M393.783,325.94h5.474a.806.806,0,1,0,0-1.611h-5.474a.806.806,0,1,0,0,1.611Zm0,0" transform="translate(-350.717 -289.005)" fill="url(#linear-gradient)"/>
      <path id="Path_5882" data-name="Path 5882" d="M356.666,325.94h1.254a.806.806,0,1,0,0-1.611h-1.254a.806.806,0,1,0,0,1.611Zm0,0" transform="translate(-317.592 -289.005)" fill="url(#linear-gradient)"/>
      <path id="Path_5883" data-name="Path 5883" d="M299.031,405.988h-3.878a.806.806,0,0,0,0,1.611h3.878a.806.806,0,0,0,0-1.611Zm0,0" transform="translate(-262.694 -361.883)" fill="url(#linear-gradient)"/>
      <path id="Path_5884" data-name="Path 5884" d="M399.256,405.988h-5.474a.806.806,0,0,0,0,1.611h5.474a.806.806,0,1,0,0-1.611Zm0,0" transform="translate(-350.717 -361.883)" fill="url(#linear-gradient)"/>
      <path id="Path_5885" data-name="Path 5885" d="M357.916,405.988h-1.254a.806.806,0,1,0,0,1.611h1.254a.806.806,0,0,0,0-1.611Zm0,0" transform="translate(-317.588 -361.883)" fill="url(#linear-gradient)"/>
      <path id="Path_5886" data-name="Path 5886" d="M51.513.5H3.546A3.551,3.551,0,0,0,0,4.047v38.99a3.551,3.551,0,0,0,3.547,3.546H6.579a.806.806,0,1,0,0-1.611H3.546a1.937,1.937,0,0,1-1.935-1.935V39.979H30.969v1.389H30.33a1.586,1.586,0,0,0-1.585,1.585v2.018H11.478a.806.806,0,1,0,0,1.611h7.748v2.89H16.793a2.947,2.947,0,0,0-2.943,2.943v1.741A1.344,1.344,0,0,0,15.192,55.5H39.805a1.344,1.344,0,0,0,1.343-1.343V52.416A2.947,2.947,0,0,0,38.2,49.473H35.772V48.454h14.9a1.586,1.586,0,0,0,1.585-1.585V46.49A3.551,3.551,0,0,0,55,43.036l.061-38.99A3.55,3.55,0,0,0,51.513.5ZM30.357,38.061V34.2H50.642v3.863Zm2.223-5.474v-1.7H48.418v1.7Zm15.838,7.086v1.7H32.58v-1.7Zm-27.581,6.91h7.908v.287a1.586,1.586,0,0,0,1.585,1.585h3.83v1.019H20.837Zm17.368,4.5a1.333,1.333,0,0,1,1.332,1.332v1.472H15.461V52.416a1.333,1.333,0,0,1,1.332-1.332Zm12.437-4.242H30.357V42.98H50.642Zm2.745-3.806a1.935,1.935,0,0,1-1.133,1.758V42.953a1.587,1.587,0,0,0-1.585-1.585H50.03V39.979h3.357Zm0-4.668H52.227c.016-.091.026-4.2.026-4.2a1.587,1.587,0,0,0-1.585-1.585H50.03v-1.7h.639a1.587,1.587,0,0,0,1.585-1.585V25.39a1.587,1.587,0,0,0-1.585-1.585H46.117a.806.806,0,0,0,0,1.612h4.525v3.863H30.357V25.417H41.1a.806.806,0,0,0,0-1.612H30.33a1.587,1.587,0,0,0-1.585,1.585v3.916a1.587,1.587,0,0,0,1.585,1.585h.639v1.7H30.33a1.587,1.587,0,0,0-1.585,1.585s.01,4.105.026,4.2H1.611V11.461H53.386Zm0-28.519H1.671v-5.8A1.937,1.937,0,0,1,3.605,2.112H51.452a1.937,1.937,0,0,1,1.935,1.935Zm0,0" transform="translate(0)" fill="url(#linear-gradient)"/>
      <path id="Path_5887" data-name="Path 5887" d="M35.638,29.262A2.365,2.365,0,1,0,38,31.626,2.367,2.367,0,0,0,35.638,29.262Zm0,3.118a.753.753,0,1,1,.753-.753A.754.754,0,0,1,35.638,32.379Zm0,0" transform="translate(-29.696 -25.669)" fill="url(#linear-gradient)"/>
      <path id="Path_5888" data-name="Path 5888" d="M91.623,29.262a2.365,2.365,0,1,0,2.365,2.365A2.368,2.368,0,0,0,91.623,29.262Zm0,3.118a.753.753,0,1,1,.753-.753A.754.754,0,0,1,91.623,32.379Zm0,0" transform="translate(-79.66 -25.669)" fill="url(#linear-gradient)"/>
      <path id="Path_5889" data-name="Path 5889" d="M147.61,29.262a2.365,2.365,0,1,0,2.365,2.365A2.367,2.367,0,0,0,147.61,29.262Zm0,3.118a.753.753,0,1,1,.753-.753A.754.754,0,0,1,147.61,32.379Zm0,0" transform="translate(-129.627 -25.669)" fill="url(#linear-gradient)"/>
    </g>
  </g>
</svg>
