<svg xmlns="http://www.w3.org/2000/svg" xmlns:xlink="http://www.w3.org/1999/xlink" width="155" height="155" viewBox="0 0 155 155">
  <defs>
    <filter id="Rectangle_70" x="0" y="0" width="155" height="155" filterUnits="userSpaceOnUse">
      <feOffset input="SourceAlpha"/>
      <feGaussianBlur stdDeviation="10" result="blur"/>
      <feFlood flood-opacity="0.102"/>
      <feComposite operator="in" in2="blur"/>
      <feComposite in="SourceGraphic"/>
    </filter>
    <linearGradient id="linear-gradient" x1="0.5" x2="0.5" y2="1" gradientUnits="objectBoundingBox">
      <stop offset="0" stop-color="#ff767a"/>
      <stop offset="1" stop-color="#5e53fa"/>
    </linearGradient>
  </defs>
  <g id="Group_577" data-name="Group 577" transform="translate(-1135 -2376)">
    <g transform="matrix(1, 0, 0, 1, 1135, 2376)" filter="url(#Rectangle_70)">
      <rect id="Rectangle_70-2" data-name="Rectangle 70" width="95" height="95" rx="15" transform="translate(30 30)" fill="#fff"/>
    </g>
    <g id="migrating" transform="translate(1183 2424)">
      <path id="Path_5957" data-name="Path 5957" d="M49.667,21.25H48.86A12.825,12.825,0,1,0,25.458,11.2,10.083,10.083,0,0,0,8.8,21.268,7.343,7.343,0,0,0,2,28.583,7.266,7.266,0,0,0,3.907,33.5a2.508,2.508,0,0,0-.073.587V51.5H3.027a.917.917,0,0,0-.9,1.072l.422,2.347a.329.329,0,0,0,.018.1A2.769,2.769,0,0,0,5.208,57H37.292a2.769,2.769,0,0,0,2.64-1.98.329.329,0,0,0,.018-.1l.422-2.347a.917.917,0,0,0-.9-1.072h-.807v-11h.917a.917.917,0,0,0,.889-.7l.156-.614.541.33a.917.917,0,0,0,1.118-.138l2.594-2.594a.931.931,0,0,0,.238-.871h4.547a7.333,7.333,0,1,0,0-14.667Zm-11.5,33.293a.929.929,0,0,1-.871.623H5.208a.929.929,0,0,1-.871-.623l-.211-1.21H17.583a.917.917,0,0,0,.917.917H24a.917.917,0,0,0,.917-.917H38.373ZM30.2,34.973l.614.156-.33.541a.917.917,0,0,0,.138,1.118l2.594,2.594a.917.917,0,0,0,1.118.138l.541-.33.156.614a.917.917,0,0,0,.889.7h.917v11H24a.917.917,0,0,0-.917.917H19.417A.917.917,0,0,0,18.5,51.5H5.667V34.083a.975.975,0,0,1,.1-.413.906.906,0,0,1,.816-.5H29.5v.917A.917.917,0,0,0,30.2,34.973Zm13.97-1.6-1.118.275a.923.923,0,0,0-.623.541.934.934,0,0,0,.055.825l.6.99L41.5,37.576l-.99-.6a.934.934,0,0,0-.825-.055.923.923,0,0,0-.541.623l-.275,1.118H36.632l-.275-1.118a.923.923,0,0,0-.541-.623.934.934,0,0,0-.825.055l-.99.6L32.424,36l.6-.99a.934.934,0,0,0,.055-.825.923.923,0,0,0-.623-.541l-1.118-.275V31.132l1.118-.275a.923.923,0,0,0,.623-.541.934.934,0,0,0-.055-.825l-.6-.99L34,26.924l.99.587a.907.907,0,0,0,.825.064.923.923,0,0,0,.541-.623l.275-1.118h2.237l.275,1.118a.923.923,0,0,0,.541.623.907.907,0,0,0,.825-.064l.99-.587L43.076,28.5l-.6.99a.934.934,0,0,0-.055.825.923.923,0,0,0,.623.541l1.118.275Zm5.5.715H46V30.417a.917.917,0,0,0-.7-.889l-.614-.156.33-.541a.917.917,0,0,0-.138-1.118l-2.594-2.594a.917.917,0,0,0-1.118-.137l-.541.33-.156-.614a.917.917,0,0,0-.889-.7H35.917a.917.917,0,0,0-.889.7l-.156.614-.541-.33a.917.917,0,0,0-1.118.137l-2.594,2.594a.917.917,0,0,0-.138,1.118l.33.541-.614.156a.917.917,0,0,0-.7.889v.917H6.583a2.739,2.739,0,0,0-1.641.55,5.491,5.491,0,0,1,4.391-8.8h.77a.929.929,0,0,0,.77-.413.948.948,0,0,0,.073-.871,8.018,8.018,0,0,1-.7-3.3,8.25,8.25,0,0,1,14.969-4.785.914.914,0,0,0,1.65-.4A10.993,10.993,0,0,1,48.75,14.833,10.833,10.833,0,0,1,46.4,21.6a.917.917,0,0,0,.724,1.485h2.539a5.5,5.5,0,0,1,0,11Z" fill="url(#linear-gradient)"/>
      <path id="Path_5958" data-name="Path 5958" d="M41,6V7.833a7.342,7.342,0,0,1,7.333,7.333h1.833A9.177,9.177,0,0,0,41,6Z" transform="translate(-3.25 -0.333)" fill="url(#linear-gradient)"/>
      <path id="Path_5959" data-name="Path 5959" d="M13,19.417h1.833a4.589,4.589,0,0,1,4.583-4.583V13A6.424,6.424,0,0,0,13,19.417Z" transform="translate(-0.917 -0.917)" fill="url(#linear-gradient)"/>
      <path id="Path_5960" data-name="Path 5960" d="M40.667,31a3.667,3.667,0,1,0,3.667,3.667A3.667,3.667,0,0,0,40.667,31Zm0,5.5A1.833,1.833,0,1,1,42.5,34.667,1.833,1.833,0,0,1,40.667,36.5Z" transform="translate(-2.917 -2.417)" fill="url(#linear-gradient)"/>
      <rect id="Rectangle_133" data-name="Rectangle 133" width="1.833" height="1.833" transform="translate(20.333 27.667)" fill="url(#linear-gradient)"/>
      <path id="Path_5961" data-name="Path 5961" d="M39.417,19h-16.5a.917.917,0,0,0-.917.917V27.25h1.833V20.833H38.5v2.75h1.833V19.917A.917.917,0,0,0,39.417,19Z" transform="translate(-1.667 -1.417)" fill="url(#linear-gradient)"/>
      <path id="Path_5962" data-name="Path 5962" d="M31,45.333h-.068A6.151,6.151,0,0,0,31,44.417,6.424,6.424,0,0,0,24.583,38a6.1,6.1,0,0,0-4.858,2.446,5.77,5.77,0,0,0-2.475-.612,5.505,5.505,0,0,0-5.5,5.5v.115a3.667,3.667,0,0,0,.917,7.218H31a3.667,3.667,0,1,0,0-7.333Zm0,5.5H12.666a1.833,1.833,0,0,1,0-3.667.917.917,0,0,0,.917-.917v-.917a3.667,3.667,0,0,1,3.667-3.667,4.113,4.113,0,0,1,2.224.75.917.917,0,0,0,1.311-.275,4.439,4.439,0,0,1,3.8-2.308A4.57,4.57,0,0,1,28.9,45.945a.917.917,0,0,0,.864,1.222H31a1.833,1.833,0,1,1,0,3.667Z" transform="translate(-0.583 -3)" fill="url(#linear-gradient)"/>
      <rect id="Rectangle_134" data-name="Rectangle 134" width="1.833" height="1.833" transform="translate(40.5 46)" fill="url(#linear-gradient)"/>
      <path id="Path_5963" data-name="Path 5963" d="M51.667,49.25H48v1.833h4.583a.917.917,0,0,0,.917-.917V41H51.667Z" transform="translate(-3.833 -3.25)" fill="url(#linear-gradient)"/>
    </g>
  </g>
</svg>
