<svg xmlns="http://www.w3.org/2000/svg" xmlns:xlink="http://www.w3.org/1999/xlink" width="155" height="155" viewBox="0 0 155 155"><defs><style>.a{fill:#fff;}.b{fill:url(#c);}.c{filter:url(#a);}</style><filter id="a" x="0" y="0" width="155" height="155" filterUnits="userSpaceOnUse"><feOffset input="SourceAlpha"/><feGaussianBlur stdDeviation="10" result="b"/><feFlood flood-opacity="0.102"/><feComposite operator="in" in2="b"/><feComposite in="SourceGraphic"/></filter><linearGradient id="c" x1="0.5" x2="0.5" y2="1" gradientUnits="objectBoundingBox"><stop offset="0" stop-color="#ff767a"/><stop offset="1" stop-color="#5e53fa"/></linearGradient></defs><g transform="translate(-669 -2352)"><g class="c" transform="matrix(1, 0, 0, 1, 669, 2352)"><rect class="a" width="95" height="95" rx="15" transform="translate(30 30)"/></g><g transform="translate(719 2402)"><path class="b" d="M55,44.721V10.333H49.834V0H7.7V1.614H48.219V5.166H1.614V1.614H5.974V0H0V44.667H5.166V55H55V46.443H53.386v6.942H6.781V17.113h46.6V44.721ZM5.166,10.333v32.72H1.614V6.781h46.6v3.552ZM6.781,15.5V11.947h46.6V15.5Z"/><g transform="translate(4.251 2.583)"><rect class="b" width="1.722" height="1.614"/></g><g transform="translate(7.696 2.583)"><rect class="b" width="1.722" height="1.614"/></g><g transform="translate(11.14 2.583)"><rect class="b" width="1.722" height="1.614"/></g><g transform="translate(43.86 2.583)"><rect class="b" width="1.722" height="1.614"/></g><g transform="translate(46.443 18.943)"><path class="b" d="M432.344,176.344v1.615h3.5v3.5h1.614v-5.113Z" transform="translate(-432.344 -176.344)"/></g><g transform="translate(8.611 46.443)"><path class="b" d="M81.771,435.842v-3.5H80.157v5.113H85.27v-1.614Z" transform="translate(-80.157 -432.344)"/></g><g transform="translate(49.941 31.805)"><rect class="b" width="1.614" height="1.722"/></g><g transform="translate(49.941 25.778)"><rect class="b" width="1.614" height="4.305"/></g><g transform="translate(8.611 36.972)"><rect class="b" width="1.614" height="1.722"/></g><g transform="translate(8.611 40.416)"><rect class="b" width="1.614" height="4.305"/></g><g transform="translate(9.418 12.916)"><rect class="b" width="1.722" height="1.614"/></g><g transform="translate(12.862 12.916)"><rect class="b" width="1.722" height="1.614"/></g><g transform="translate(16.306 12.916)"><rect class="b" width="1.722" height="1.614"/></g><g transform="translate(49.026 12.916)"><rect class="b" width="1.722" height="1.614"/></g><g transform="translate(34.872 40.275)"><path class="b" d="M328.911,374.924l-3.366.879-.922,3.355,2.445,2.476,3.367-.879.922-3.355Zm.213,4.5-1.563.408-1.135-1.149.428-1.557,1.563-.408,1.135,1.15Z" transform="translate(-324.622 -374.924)"/></g><g transform="translate(15.42 20.503)"><path class="b" d="M166.4,207.947h-.04a6.077,6.077,0,0,0-1.494.186l-2.905-2.942L166,201.2l2.648-.512,4.474-4.418-5.339-5.407-4.474,4.418-.546,2.641-4.042,3.991-2.91-2.947a6.041,6.041,0,0,0-7.827-7.272l-1.206.421,2.762,2.8-.686,1.35-1.359.669-2.762-2.8-.436,1.2a6.074,6.074,0,0,0,1.38,6.312,6,6,0,0,0,4.262,1.8h.04a6.075,6.075,0,0,0,1.494-.186l1.855,1.878-9.777,9.653-.011,1.726,3.623,3.669,1.726.011,9.777-9.653,1.855,1.878a6.075,6.075,0,0,0-.206,1.531,6.043,6.043,0,1,0,6.082-6.005ZM164.8,196.086l2.978-2.94,3.07,3.109-2.978,2.94-1.984.383-1.495-1.514Zm-1.294,3.38.968.98-3.642,3.6-.968-.98Zm-13.519,2.363h-.029a4.4,4.4,0,0,1-3.123-1.317,4.45,4.45,0,0,1-1.273-3.25l1.611,1.631,2.886-1.42,1.457-2.868-1.611-1.631a4.428,4.428,0,1,1,.083,8.854Zm7.358,7.758-9.1,8.99-.389,0-.775-.785,6.345-6.265-1.134-1.149-6.345,6.265-.775-.785,0-.389,9.1-8.99.389,0,2.684,2.718Zm1.621-1.048-3.623-3.67h0l-2.253-2.282a6.1,6.1,0,0,0,1.143-.887,6.03,6.03,0,0,0,.9-1.133l8.131,8.236a6.1,6.1,0,0,0-2.045,2.019Zm10.512,8.6a4.427,4.427,0,1,1,.04-6.263A4.434,4.434,0,0,1,169.475,217.142Z" transform="translate(-143.545 -190.863)"/></g></g></g></svg>