<svg xmlns="http://www.w3.org/2000/svg" xmlns:xlink="http://www.w3.org/1999/xlink" width="145" height="145" viewBox="0 0 145 145"><defs><filter id="a" x="0" y="0" width="145" height="145" filterUnits="userSpaceOnUse"><feOffset input="SourceAlpha"/><feGaussianBlur stdDeviation="7.5" result="b"/><feFlood flood-opacity="0.078"/><feComposite operator="in" in2="b"/><feComposite in="SourceGraphic"/></filter></defs><g transform="translate(-467.5 -1831.5)"><g transform="matrix(1, 0, 0, 1, 467.5, 1831.5)" filter="url(#a)"><rect width="100" height="100" rx="50" transform="translate(22.5 22.5)" fill="#fff"/></g><g transform="translate(518 1882)"><path d="M.659,8.968A.659.659,0,0,1,0,8.309V2.9A2.9,2.9,0,0,1,2.9,0H16.816a.659.659,0,0,1,0,1.319H2.9A1.584,1.584,0,0,0,1.319,2.9V8.309a.659.659,0,0,1-.66.659Zm0,0" transform="translate(0)" fill="#afd92c"/><path d="M32.754,30.728a1.935,1.935,0,1,0,1.935-1.935A1.937,1.937,0,0,0,32.754,30.728Zm2.551,0a.616.616,0,1,1-.616-.616A.617.617,0,0,1,35.305,30.728Zm0,0" transform="translate(-29.875 -26.262)" fill="#afd92c"/><path d="M88.8,30.728a1.935,1.935,0,1,0,1.935-1.935A1.937,1.937,0,0,0,88.8,30.728Zm2.551,0a.616.616,0,1,1-.616-.616A.617.617,0,0,1,91.356,30.728Zm0,0" transform="translate(-81 -26.262)" fill="#afd92c"/><path d="M144.852,30.728a1.935,1.935,0,1,0,1.935-1.935A1.937,1.937,0,0,0,144.852,30.728Zm2.551,0a.616.616,0,1,1-.616-.616A.617.617,0,0,1,147.4,30.728Zm0,0" transform="translate(-132.121 -26.262)" fill="#afd92c"/><path d="M42.1,0H20.976a.659.659,0,0,0,0,1.319H42.1A1.585,1.585,0,0,1,43.681,2.9V7.65H1.318V2.9A1.584,1.584,0,0,1,2.9,1.319H16.815a.659.659,0,0,0,0-1.319H2.9A2.9,2.9,0,0,0,0,2.9V42.1A2.9,2.9,0,0,0,2.9,45H42.1A2.9,2.9,0,0,0,45,42.1V2.9A2.9,2.9,0,0,0,42.1,0Zm1.583,42.1A1.584,1.584,0,0,1,42.1,43.681H2.9A1.584,1.584,0,0,1,1.318,42.1V8.968H43.681Zm0,0" fill="#afd92c"/><path d="M33.413,146.2a.659.659,0,0,0,.659-.66v-.966a1.7,1.7,0,0,1,.278-.935.659.659,0,1,0-1.1-.724,3.014,3.014,0,0,0-.5,1.659v.966a.659.659,0,0,0,.66.66Zm0,0" transform="translate(-29.875 -130.082)" fill="#afd92c"/><path d="M55.9,450.967a3.03,3.03,0,0,0,.484.038h1.958a.659.659,0,0,0,0-1.318H56.388a1.726,1.726,0,0,1-.274-.022.659.659,0,1,0-.21,1.3Zm0,0" transform="translate(-50.485 -410.136)" fill="#afd92c"/><path d="M60.295,131.78h2.334a.659.659,0,0,0,0-1.319H60.29a.659.659,0,0,0,.005,1.319Zm0,0" transform="translate(-54.392 -118.995)" fill="#afd92c"/><path d="M109.206,451.322h2.339a.659.659,0,0,0,0-1.318h-2.339a.659.659,0,0,0,0,1.318Zm0,0" transform="translate(-99.007 -410.453)" fill="#afd92c"/><path d="M113.48,131.78h2.338a.659.659,0,0,0,0-1.319H113.48a.659.659,0,1,0,0,1.319Zm0,0" transform="translate(-102.904 -118.995)" fill="#afd92c"/><path d="M33.413,198.626a.659.659,0,0,0,.659-.659v-2.339a.659.659,0,0,0-1.319,0v2.339A.659.659,0,0,0,33.413,198.626Zm0,0" transform="translate(-29.875 -177.833)" fill="#afd92c"/><path d="M33.62,411.46a.66.66,0,0,0,.6-.93,1.686,1.686,0,0,1-.149-.7v-1.341a.659.659,0,0,0-1.319,0v1.341a3,3,0,0,0,.264,1.238A.659.659,0,0,0,33.62,411.46Zm0,0" transform="translate(-29.875 -371.987)" fill="#afd92c"/><path d="M162.422,451.322h2.338a.659.659,0,1,0,0-1.318h-2.338a.659.659,0,1,0,0,1.318Zm0,0" transform="translate(-147.545 -410.453)" fill="#afd92c"/><path d="M33.413,251.841a.659.659,0,0,0,.659-.659v-2.339a.659.659,0,0,0-1.319,0v2.339A.659.659,0,0,0,33.413,251.841Zm0,0" transform="translate(-29.875 -226.371)" fill="#afd92c"/><path d="M33.413,358.271a.659.659,0,0,0,.659-.659v-2.339a.659.659,0,1,0-1.319,0v2.339A.659.659,0,0,0,33.413,358.271Zm0,0" transform="translate(-29.875 -323.447)" fill="#afd92c"/><path d="M33.413,305.056a.659.659,0,0,0,.659-.659v-2.338a.659.659,0,1,0-1.319,0V304.4A.659.659,0,0,0,33.413,305.056Zm0,0" transform="translate(-29.875 -274.909)" fill="#afd92c"/><path d="M269.152,252.4a.659.659,0,0,0-.66.659V255.4a.659.659,0,1,0,1.319,0v-2.339A.659.659,0,0,0,269.152,252.4Zm0,0" transform="translate(-244.894 -230.215)" fill="#afd92c"/><path d="M269.152,199.184a.659.659,0,0,0-.66.659v2.339a.659.659,0,0,0,1.319,0v-2.339A.659.659,0,0,0,269.152,199.184Zm0,0" transform="translate(-244.894 -181.678)" fill="#afd92c"/><path d="M269.152,305.617a.659.659,0,0,0-.66.659v2.339a.659.659,0,0,0,1.319,0v-2.339A.659.659,0,0,0,269.152,305.617Zm0,0" transform="translate(-244.894 -278.756)" fill="#afd92c"/><path d="M266.33,147.937v1.337a.659.659,0,0,0,1.319,0v-1.337a3,3,0,0,0-.267-1.244.659.659,0,1,0-1.2.542A1.7,1.7,0,0,1,266.33,147.937Zm0,0" transform="translate(-242.732 -133.446)" fill="#afd92c"/><path d="M269.152,358.832a.659.659,0,0,0-.66.659v2.339a.659.659,0,0,0,1.319,0v-2.339A.659.659,0,0,0,269.152,358.832Zm0,0" transform="translate(-244.894 -327.294)" fill="#afd92c"/><path d="M219.913,131.78h1.963a1.727,1.727,0,0,1,.27.021.675.675,0,0,0,.1.008.659.659,0,0,0,.1-1.31,3.036,3.036,0,0,0-.478-.038h-1.963a.659.659,0,0,0,0,1.319Zm0,0" transform="translate(-199.984 -118.995)" fill="#afd92c"/><path d="M166.7,131.78h2.339a.659.659,0,0,0,0-1.319H166.7a.659.659,0,0,0,0,1.319Zm0,0" transform="translate(-151.446 -118.995)" fill="#afd92c"/><path d="M215.636,451.322h2.349a.659.659,0,0,0,0-1.318h-2.349a.659.659,0,1,0,0,1.318Zm0,0" transform="translate(-196.082 -410.453)" fill="#afd92c"/><path d="M264.423,415.521a.658.658,0,0,0,.913-.191,3.013,3.013,0,0,0,.491-1.653v-.971a.659.659,0,1,0-1.318,0v.971a1.7,1.7,0,0,1-.277.931A.659.659,0,0,0,264.423,415.521Zm0,0" transform="translate(-240.911 -375.832)" fill="#afd92c"/><path d="M310.8,142.482a.661.661,0,0,0,.133.114,3.014,3.014,0,0,0,2.106.857h1.811a.659.659,0,0,0,0-1.319h-1.811a1.693,1.693,0,0,1-.687-.146l4.678-4.141,4.686,4.147a1.7,1.7,0,0,1-.674.139h-2.25a.659.659,0,0,0,0,1.319h2.25a3.014,3.014,0,0,0,2.175-.926.615.615,0,0,0,.045-.045l.008-.01a3.013,3.013,0,0,0,.8-2.043v-6.944a3.028,3.028,0,0,0-3.024-3.024h-8a3.015,3.015,0,0,0-2.191.943.654.654,0,0,0-.048.049c-.007.007-.012.015-.018.022a3.012,3.012,0,0,0-.767,2.01v6.944a3.011,3.011,0,0,0,.7,1.934A.664.664,0,0,0,310.8,142.482Zm11.947-9v6.943a1.686,1.686,0,0,1-.117.615l-4.605-4.076,4.611-4.081A1.7,1.7,0,0,1,322.743,133.485Zm-9.708-1.706h8a1.693,1.693,0,0,1,.689.147l-4.7,4.16-4.694-4.154A1.7,1.7,0,0,1,313.035,131.779Zm-1.706,1.706a1.692,1.692,0,0,1,.106-.586l4.6,4.068-4.591,4.063a1.7,1.7,0,0,1-.112-.6Zm0,0" transform="translate(-282.764 -118.994)" fill="#afd92c"/><path d="M310.8,329.194a.58.58,0,0,0,.046.046,3.015,3.015,0,0,0,2.184.936h8a3.015,3.015,0,0,0,2.184-.936.624.624,0,0,0,.045-.046l.008-.01a3.012,3.012,0,0,0,.787-2.033v-6.943a3.011,3.011,0,0,0-.787-2.033l-.008-.01a.679.679,0,0,0-.049-.049,3.015,3.015,0,0,0-2.18-.932h-8a3.016,3.016,0,0,0-2.181.932c-.017.015-.033.032-.049.049l-.008.01a3.013,3.013,0,0,0-.787,2.033v6.943a3.013,3.013,0,0,0,.787,2.033Zm10.232-.337h-8a1.7,1.7,0,0,1-.688-.147l4.689-4.15,4.69,4.15A1.7,1.7,0,0,1,321.035,328.857Zm1.706-8.649v6.944a1.692,1.692,0,0,1-.111.6l-4.6-4.072,4.6-4.072A1.69,1.69,0,0,1,322.74,320.208Zm-9.708-1.706h8a1.7,1.7,0,0,1,.688.146l-4.69,4.151-4.689-4.151A1.694,1.694,0,0,1,313.032,318.5Zm-1.706,1.706a1.7,1.7,0,0,1,.111-.6l4.6,4.072-4.6,4.072a1.692,1.692,0,0,1-.111-.6Zm0,0" transform="translate(-282.761 -289.306)" fill="#afd92c"/></g></g></svg>