<svg xmlns="http://www.w3.org/2000/svg" xmlns:xlink="http://www.w3.org/1999/xlink" width="145" height="145" viewBox="0 0 145 145"><defs><filter id="a" x="0" y="0" width="145" height="145" filterUnits="userSpaceOnUse"><feOffset input="SourceAlpha"/><feGaussianBlur stdDeviation="7.5" result="b"/><feFlood flood-opacity="0.078"/><feComposite operator="in" in2="b"/><feComposite in="SourceGraphic"/></filter></defs><g transform="translate(-877.5 -1831.5)"><g transform="matrix(1, 0, 0, 1, 877.5, 1831.5)" filter="url(#a)"><rect width="100" height="100" rx="50" transform="translate(22.5 22.5)" fill="#fff"/></g><g transform="translate(912 1866)"><path d="M47.5,218.75h-.75v-7.5h-1.5v7.5H19.75v-15h0v-1.5a1.5,1.5,0,0,0-1.5,1.5v15H17.5v-15a2.253,2.253,0,0,1,2.25-2.25V200A3.754,3.754,0,0,0,16,203.75V219.5a3.754,3.754,0,0,0,3.75,3.75H29.5V224a2.253,2.253,0,0,1-2.25,2.25.75.75,0,0,0,0,1.5h10.5a.75.75,0,1,0,0-1.5A2.253,2.253,0,0,1,35.5,224v-.75h9.75A3.754,3.754,0,0,0,49,219.5v-8.25H47.5Zm-12.748,7.5h-4.5A3.731,3.731,0,0,0,31,224v-.75h3V224A3.731,3.731,0,0,0,34.752,226.25Zm10.5-4.5H19.75a2.254,2.254,0,0,1-2.121-1.5H47.371a2.254,2.254,0,0,1-2.121,1.5Z" transform="translate(0 -166.75)" fill="#ff9801"/><path d="M261.75,16h-19.5A2.253,2.253,0,0,0,240,18.25v16.5A2.253,2.253,0,0,0,242.25,37h19.5A2.253,2.253,0,0,0,264,34.75V18.25A2.253,2.253,0,0,0,261.75,16Zm.75,18.75a.751.751,0,0,1-.75.75h-19.5a.751.751,0,0,1-.75-.75V18.25a.751.751,0,0,1,.75-.75h19.5a.751.751,0,0,1,.75.75Z" transform="translate(-203)" fill="#ff9801"/><path d="M272,64h18v1.5H272Z" transform="translate(-232 -43.5)" fill="#ff9801"/><circle cx="0.75" cy="0.75" r="0.75" transform="translate(40 18.25)" fill="#ff9801"/><circle cx="0.75" cy="0.75" r="0.75" transform="translate(42.25 18.25)" fill="#ff9801"/><circle cx="0.75" cy="0.75" r="0.75" transform="translate(44.5 18.25)" fill="#ff9801"/><path d="M279.5,96h-6.75a.75.75,0,0,0-.75.75v6.75a.75.75,0,0,0,.75.75h6.75a.75.75,0,0,0,.75-.75V96.75A.75.75,0,0,0,279.5,96Zm-.75,6.75H273.5V97.5h5.25Z" transform="translate(-232 -72.5)" fill="#ff9801"/><path d="M383.5,96h-6.75a.75.75,0,0,0-.75.75v6.75a.75.75,0,0,0,.75.75h6.75a.75.75,0,0,0,.75-.75V96.75A.75.75,0,0,0,383.5,96Zm-.75,6.75H377.5V97.5h5.25Z" transform="translate(-326.25 -72.5)" fill="#ff9801"/><path d="M288,192h3v1.5h-3Z" transform="translate(-246.5 -159.5)" fill="#ff9801"/><path d="M328,192h1.5v1.5H328Z" transform="translate(-282.75 -159.5)" fill="#ff9801"/><path d="M392,192h3v1.5h-3Z" transform="translate(-340.75 -159.5)" fill="#ff9801"/><path d="M432,192h1.5v1.5H432Z" transform="translate(-377 -159.5)" fill="#ff9801"/><path d="M174.5,98.75a.751.751,0,0,1-.75.75h-19.5a.751.751,0,0,1-.75-.75V82.25a.751.751,0,0,1,.75-.75h4.5V80h-4.5A2.253,2.253,0,0,0,152,82.25v16.5a2.253,2.253,0,0,0,2.25,2.25h19.5A2.253,2.253,0,0,0,176,98.75V96.5h-1.5Z" transform="translate(-123.25 -58)" fill="#ff9801"/><path d="M184,128h3.75v1.5H184Z" transform="translate(-152.25 -101.5)" fill="#ff9801"/><circle cx="0.75" cy="0.75" r="0.75" transform="translate(31.75 24.25)" fill="#ff9801"/><circle cx="0.75" cy="0.75" r="0.75" transform="translate(34 24.25)" fill="#ff9801"/><path d="M66.25,181h19.5A2.253,2.253,0,0,0,88,178.75V175H86.5v3.75a.751.751,0,0,1-.75.75H66.25a.751.751,0,0,1-.75-.75v-16.5a.751.751,0,0,1,.75-.75h4.5V160h-4.5A2.253,2.253,0,0,0,64,162.25v16.5A2.253,2.253,0,0,0,66.25,181Z" transform="translate(-43.5 -130.5)" fill="#ff9801"/><path d="M96,208h3.75v1.5H96Z" transform="translate(-72.5 -174)" fill="#ff9801"/><circle cx="0.75" cy="0.75" r="0.75" transform="translate(23.5 31.75)" fill="#ff9801"/><circle cx="0.75" cy="0.75" r="0.75" transform="translate(25.75 31.75)" fill="#ff9801"/></g></g></svg>