<svg xmlns="http://www.w3.org/2000/svg" xmlns:xlink="http://www.w3.org/1999/xlink" width="145" height="145" viewBox="0 0 145 145"><defs><filter id="a" x="0" y="0" width="145" height="145" filterUnits="userSpaceOnUse"><feOffset input="SourceAlpha"/><feGaussianBlur stdDeviation="7.5" result="b"/><feFlood flood-opacity="0.078"/><feComposite operator="in" in2="b"/><feComposite in="SourceGraphic"/></filter></defs><g transform="translate(-1287.5 -1831.5)"><g transform="matrix(1, 0, 0, 1, 1287.5, 1831.5)" filter="url(#a)"><rect width="100" height="100" rx="50" transform="translate(22.5 22.5)" fill="#fff"/></g><g transform="translate(1337 1881.5)"><path d="M35.533,132.53a.659.659,0,1,0,.932-.932l-1.6-1.6,1.6-1.6a.659.659,0,0,0-.932-.932l-2.067,2.067a.659.659,0,0,0,0,.932Zm0,0" transform="translate(-30.346 -115.617)" fill="#1f9af1"/><path d="M114.725,129.993l-1.6,1.6a.659.659,0,1,0,.932.932l2.067-2.067a.659.659,0,0,0,0-.932l-2.067-2.067a.659.659,0,1,0-.932.932Zm0,0" transform="translate(-102.995 -115.613)" fill="#1f9af1"/><path d="M76.836,132.673a.659.659,0,0,0,.855-.373l1.624-4.134a.659.659,0,1,0-1.227-.482l-1.624,4.134A.659.659,0,0,0,76.836,132.673Zm0,0" transform="translate(-69.694 -115.612)" fill="#1f9af1"/><path d="M38.175,219.533h4.442a.659.659,0,0,0,0-1.319H38.175a.659.659,0,0,0,0,1.319Zm0,0" transform="translate(-34.215 -198.559)" fill="#1f9af1"/><path d="M123.98,218.215h-7.809a.659.659,0,0,0,0,1.319h7.809a.659.659,0,1,0,0-1.319Zm0,0" transform="translate(-105.349 -198.559)" fill="#1f9af1"/><path d="M38.175,251.139h1.892a.659.659,0,0,0,0-1.319H38.175a.659.659,0,0,0,0,1.319Zm0,0" transform="translate(-34.215 -227.384)" fill="#1f9af1"/><path d="M177.507,249.82a.659.659,0,0,0,0,1.319h1.152a.659.659,0,1,0,0-1.319Zm0,0" transform="translate(-161.288 -227.383)" fill="#1f9af1"/><path d="M92.29,250.48a.659.659,0,0,0-.659-.659H85.972a.659.659,0,0,0,0,1.319h5.659A.659.659,0,0,0,92.29,250.48Zm0,0" transform="translate(-77.806 -227.384)" fill="#1f9af1"/><path d="M213.7,250.48a.659.659,0,0,0,.659.66h2.158a.659.659,0,1,0,0-1.319h-2.158A.659.659,0,0,0,213.7,250.48Zm0,0" transform="translate(-194.901 -227.384)" fill="#1f9af1"/><path d="M166.058,150.6h2.276a.659.659,0,1,0,0-1.319h-2.276a.659.659,0,1,0,0,1.319Zm0,0" transform="translate(-150.847 -135.687)" fill="#1f9af1"/><path d="M220.905,150.6h13.889a.659.659,0,0,0,0-1.319H220.905a.659.659,0,1,0,0,1.319Zm0,0" transform="translate(-200.868 -135.687)" fill="#1f9af1"/><path d="M296.469,182.246h-5.626a.659.659,0,0,0,0,1.319h5.626a.659.659,0,0,0,0-1.319Zm0,0" transform="translate(-264.652 -165.755)" fill="#1f9af1"/><path d="M246.82,182.246h-1.934a.659.659,0,0,0,0,1.319h1.934a.659.659,0,0,0,0-1.319Zm0,0" transform="translate(-222.738 -165.755)" fill="#1f9af1"/><path d="M166.058,183.564H170.8a.659.659,0,0,0,0-1.319h-4.738a.659.659,0,1,0,0,1.319Zm0,0" transform="translate(-150.847 -165.755)" fill="#1f9af1"/><path d="M104.347,281.16H99.906a.659.659,0,1,0,0,1.318h4.441a.659.659,0,1,0,0-1.318Zm0,0" transform="translate(-90.514 -255.966)" fill="#1f9af1"/><path d="M41.587,281.16H38.175a.659.659,0,0,0,0,1.318h3.412a.659.659,0,1,0,0-1.318Zm0,0" transform="translate(-34.215 -255.966)" fill="#1f9af1"/><path d="M181.751,281.16h-5.8a.659.659,0,1,0,0,1.318h5.8a.659.659,0,1,0,0-1.318Zm0,0" transform="translate(-159.867 -255.966)" fill="#1f9af1"/><path d="M298.179,242.668h-3.173a.659.659,0,0,0,0,1.319h3.173a.659.659,0,0,0,0-1.319Zm0,0" transform="translate(-268.449 -220.861)" fill="#1f9af1"/><path d="M393.636,243.986h4.479a.659.659,0,1,0,0-1.319h-4.479a.659.659,0,0,0,0,1.319Zm0,0" transform="translate(-358.401 -220.86)" fill="#1f9af1"/><path d="M357.542,242.668h-1.026a.659.659,0,1,0,0,1.319h1.026a.659.659,0,0,0,0-1.319Zm0,0" transform="translate(-324.546 -220.861)" fill="#1f9af1"/><path d="M295.007,325.647h3.173a.659.659,0,1,0,0-1.318h-3.173a.659.659,0,1,0,0,1.318Zm0,0" transform="translate(-268.45 -295.336)" fill="#1f9af1"/><path d="M393.636,325.647h4.479a.659.659,0,1,0,0-1.318h-4.479a.659.659,0,1,0,0,1.318Zm0,0" transform="translate(-358.401 -295.336)" fill="#1f9af1"/><path d="M356.519,325.647h1.026a.659.659,0,1,0,0-1.318h-1.026a.659.659,0,1,0,0,1.318Zm0,0" transform="translate(-324.55 -295.336)" fill="#1f9af1"/><path d="M298.179,405.988h-3.173a.659.659,0,0,0,0,1.318h3.173a.659.659,0,0,0,0-1.318Zm0,0" transform="translate(-268.449 -369.811)" fill="#1f9af1"/><path d="M398.114,405.988h-4.479a.659.659,0,0,0,0,1.318h4.479a.659.659,0,1,0,0-1.318Zm0,0" transform="translate(-358.401 -369.811)" fill="#1f9af1"/><path d="M357.542,405.988h-1.026a.659.659,0,1,0,0,1.318h1.026a.659.659,0,0,0,0-1.318Zm0,0" transform="translate(-324.546 -369.811)" fill="#1f9af1"/><path d="M42.147.5H2.9A2.905,2.905,0,0,0,0,3.4V35.3a2.905,2.905,0,0,0,2.9,2.9H5.382a.659.659,0,1,0,0-1.318H2.9A1.585,1.585,0,0,1,1.318,35.3V32.8h24.02v1.136h-.523a1.3,1.3,0,0,0-1.3,1.3v1.651H9.391a.659.659,0,1,0,0,1.318H15.73v2.365H13.739a2.411,2.411,0,0,0-2.408,2.408V44.4a1.1,1.1,0,0,0,1.1,1.1H32.568a1.1,1.1,0,0,0,1.1-1.1V42.977a2.411,2.411,0,0,0-2.408-2.408H29.268v-.833H41.456a1.3,1.3,0,0,0,1.3-1.3v-.31A2.906,2.906,0,0,0,45,35.3l.05-31.9a2.9,2.9,0,0,0-2.9-2.9ZM24.837,31.232v-3.16h16.6v3.16Zm1.819-4.479V25.366H39.615v1.387Zm12.958,5.8v1.387H26.657V32.55ZM17.048,38.2h6.47v.235a1.3,1.3,0,0,0,1.3,1.3h3.134v.833h-10.9Zm14.21,3.683a1.091,1.091,0,0,1,1.09,1.09v1.2H12.65v-1.2a1.091,1.091,0,0,1,1.09-1.09Zm10.175-3.471h-16.6v-3.16h16.6ZM43.68,35.3a1.583,1.583,0,0,1-.927,1.439V35.234a1.3,1.3,0,0,0-1.3-1.3h-.523V32.8H43.68Zm0-3.819h-.949c.013-.075.022-3.434.022-3.434a1.3,1.3,0,0,0-1.3-1.3h-.523V25.366h.523a1.3,1.3,0,0,0,1.3-1.3v-3.2a1.3,1.3,0,0,0-1.3-1.3H37.732a.659.659,0,0,0,0,1.319h3.7v3.16h-16.6v-3.16H33.63a.659.659,0,0,0,0-1.319H24.815a1.3,1.3,0,0,0-1.3,1.3v3.2a1.3,1.3,0,0,0,1.3,1.3h.523v1.387h-.523a1.3,1.3,0,0,0-1.3,1.3s.008,3.359.022,3.434H1.318V9.468H43.68Zm0-23.333H1.367V3.4A1.585,1.585,0,0,1,2.95,1.819H42.1A1.585,1.585,0,0,1,43.68,3.4Zm0,0" fill="#1f9af1"/><path d="M35.208,29.262A1.935,1.935,0,1,0,37.143,31.2,1.937,1.937,0,0,0,35.208,29.262Zm0,2.551a.616.616,0,1,1,.616-.616A.617.617,0,0,1,35.208,31.813Zm0,0" transform="translate(-30.346 -26.231)" fill="#1f9af1"/><path d="M91.193,29.262A1.935,1.935,0,1,0,93.127,31.2,1.937,1.937,0,0,0,91.193,29.262Zm0,2.551a.616.616,0,1,1,.616-.616A.617.617,0,0,1,91.193,31.813Zm0,0" transform="translate(-81.405 -26.231)" fill="#1f9af1"/><path d="M147.18,29.262a1.935,1.935,0,1,0,1.935,1.935A1.937,1.937,0,0,0,147.18,29.262Zm0,2.551a.616.616,0,1,1,.616-.616A.617.617,0,0,1,147.18,31.813Zm0,0" transform="translate(-132.467 -26.231)" fill="#1f9af1"/></g></g></svg>