<svg xmlns="http://www.w3.org/2000/svg" xmlns:xlink="http://www.w3.org/1999/xlink" width="145" height="145" viewBox="0 0 145 145"><defs><filter id="a" x="0" y="0" width="145" height="145" filterUnits="userSpaceOnUse"><feOffset input="SourceAlpha"/><feGaussianBlur stdDeviation="7.5" result="b"/><feFlood flood-opacity="0.078"/><feComposite operator="in" in2="b"/><feComposite in="SourceGraphic"/></filter></defs><g transform="translate(-467.5 -2214.5)"><g transform="matrix(1, 0, 0, 1, 467.5, 2214.5)" filter="url(#a)"><rect width="100" height="100" rx="50" transform="translate(22.5 22.5)" fill="#fff"/></g><g transform="translate(517 2265)"><path d="M211.629,304a3.629,3.629,0,1,0,3.629,3.629A3.633,3.633,0,0,0,211.629,304Zm0,5.806a2.177,2.177,0,1,1,2.177-2.177A2.18,2.18,0,0,1,211.629,309.806Zm0,0" transform="translate(-189.129 -276.419)" fill="#dd3443"/><path d="M240,32h5.806v1.452H240Zm0,0" transform="translate(-218.226 -29.097)" fill="#dd3443"/><path d="M240,64h5.806v1.452H240Zm0,0" transform="translate(-218.226 -58.193)" fill="#dd3443"/><path d="M192,96h10.161v1.452H192Zm0,0" transform="translate(-174.581 -87.29)" fill="#dd3443"/><path d="M192,128h10.161v1.452H192Zm0,0" transform="translate(-174.581 -116.387)" fill="#dd3443"/><path d="M192,160h10.161v1.452H192Zm0,0" transform="translate(-174.581 -145.484)" fill="#dd3443"/><path d="M45,23.226V17.419H34.838v5.806h4.355v7.258h-8.71V29.235L28.7,28.64l.84-1.679-2.793-2.793-1.68.841-.594-1.783H23.225V18.871h7.258v-8.71h8.71v4.054l-1.664-1.664L36.5,13.578l3.416,3.416,3.416-3.416-1.026-1.026-1.664,1.664V8.71H30.484V0H19.3l-4.78,4.78V8.71H4.354v5.506L2.69,12.551,1.664,13.578,5.08,16.994,8.5,13.578,7.47,12.551,5.806,14.216V10.161h8.71v8.71h7.258v4.355H20.525l-.594,1.783-1.68-.841-2.793,2.793.84,1.679-1.782.594v1.249H5.806V23.226h4.355V17.419H0v5.806H4.354V34.942a2.9,2.9,0,1,0,1.452,0V31.936h4.355v8.843a2.177,2.177,0,1,0,1.452,0V31.936h2.9v1.249l1.782.594-.84,1.679,2.793,2.793,1.68-.841.594,1.783h3.949l.594-1.783,1.68.841,2.793-2.793-.84-1.679,1.783-.594V31.936h2.9v8.843a2.177,2.177,0,1,0,1.452,0V31.936h4.355v3.006a2.9,2.9,0,1,0,1.452,0V23.226ZM18.871,2.478V4.355H16.994Zm-2.9,3.329h4.355V1.452h8.71V17.419H15.967ZM1.451,18.871H8.709v2.9H1.451ZM6.532,37.742A1.452,1.452,0,1,1,5.08,36.29,1.453,1.453,0,0,1,6.532,37.742Zm4.355,5.806a.726.726,0,1,1,.726-.726A.727.727,0,0,1,10.887,43.548ZM29.032,32.138l-1.665.555-.123.32c-.037.093-.073.185-.113.275l-.141.314.785,1.569-1.313,1.313L24.893,35.7l-.314.141c-.089.04-.18.076-.272.111l-.323.122-.556,1.668H21.571l-.556-1.668-.323-.122c-.092-.035-.183-.071-.272-.111l-.314-.141-1.569.785-1.313-1.313.785-1.569-.141-.314c-.041-.091-.076-.182-.113-.275l-.123-.32-1.664-.555V30.281l1.665-.555.123-.32c.037-.093.073-.185.113-.275l.141-.314-.785-1.569,1.313-1.313,1.569.785.314-.141c.089-.04.18-.076.272-.111l.323-.122.556-1.667h1.857l.556,1.668.323.122c.092.035.183.071.272.111l.314.141,1.569-.785,1.313,1.313-.785,1.569.141.314c.041.091.076.182.113.275l.123.32,1.664.555Zm5.081,11.411a.726.726,0,1,1,.726-.726A.727.727,0,0,1,34.113,43.548Zm7.258-5.806a1.452,1.452,0,1,1-1.452-1.452A1.453,1.453,0,0,1,41.371,37.742ZM36.29,18.871h7.258v2.9H36.29Zm0,0" fill="#dd3443"/></g></g></svg>