<svg xmlns="http://www.w3.org/2000/svg" xmlns:xlink="http://www.w3.org/1999/xlink" width="145" height="145" viewBox="0 0 145 145"><defs><filter id="a" x="0" y="0" width="145" height="145" filterUnits="userSpaceOnUse"><feOffset input="SourceAlpha"/><feGaussianBlur stdDeviation="7.5" result="b"/><feFlood flood-opacity="0.078"/><feComposite operator="in" in2="b"/><feComposite in="SourceGraphic"/></filter></defs><g transform="translate(-877.5 -2214.5)"><g transform="matrix(1, 0, 0, 1, 877.5, 2214.5)" filter="url(#a)"><rect width="100" height="100" rx="50" transform="translate(22.5 22.5)" fill="#fff"/></g><g transform="translate(928 2265)"><path d="M80.819,134.731a8.713,8.713,0,1,1-3.366-3.94l.774-1.228a10.143,10.143,0,1,0,3.926,4.6Zm0,0" transform="translate(-56.965 -116.387)" fill="#ce28c8"/><path d="M45,0H0V33.387H9.887a12.989,12.989,0,0,0,13.186-.74L24.82,34.4l-1.169,1.169,8.321,8.322a3.805,3.805,0,1,0,5.38-5.382l-5.117-5.118H45ZM43.548,1.452V5.806H1.452V1.452Zm-19.3,30.315a13.05,13.05,0,0,0,1.053-1l1.576,1.576-1.026,1.026ZM37.016,41.2A2.354,2.354,0,0,1,33,42.859L25.7,35.565l3.329-3.329,7.295,7.3a2.335,2.335,0,0,1,.689,1.664Zm-6.232-9.26-1.752-1.752L27.9,31.316l-1.66-1.66A13.016,13.016,0,0,0,27.4,15.672l-1.283.679A11.618,11.618,0,1,1,23.209,12.8l.921-1.121A13.059,13.059,0,1,0,7.651,31.935h-6.2V7.258h42.1V31.935Zm0,0" fill="#ce28c8"/><path d="M32,32h1.452v1.452H32Zm0,0" transform="translate(-29.097 -29.097)" fill="#ce28c8"/><path d="M64,32h1.452v1.452H64Zm0,0" transform="translate(-58.194 -29.097)" fill="#ce28c8"/><path d="M96,32h1.452v1.452H96Zm0,0" transform="translate(-87.29 -29.097)" fill="#ce28c8"/><path d="M100.666,162.881l.314-.158a5.184,5.184,0,0,1,.683-.286l.334-.11.318-.875H104.2l.318.875.334.11a5.09,5.09,0,0,1,.683.286l.314.158,1.307-.611-.615-1.315-.68.318c-.072-.031-.144-.062-.215-.09l-.43-1.183H101.3l-.43,1.182c-.072.028-.144.059-.215.09l-1.14-.532-2.772,2.771.533,1.141c-.031.072-.062.144-.091.216L96,165.3v3.92l1.182.43c.029.073.059.144.091.216L96.74,171l2.772,2.772,1.141-.532c.072.031.144.062.215.09l.43,1.182h3.92l.43-1.182c.072-.028.144-.059.215-.09l1.141.532L109.777,171l-.533-1.14c.031-.072.062-.144.091-.216l1.182-.43V165.3l-1.5-.545-.5,1.364.544.2V168.2l-.875.318-.11.335a4.819,4.819,0,0,1-.285.681l-.158.315.4.846-1.334,1.335-.846-.4-.314.158a5.192,5.192,0,0,1-.683.286l-.334.11-.317.874h-1.887L102,172.19l-.334-.11a5.094,5.094,0,0,1-.683-.286l-.314-.158-.846.4L98.485,170.7l.395-.846-.158-.315a4.906,4.906,0,0,1-.285-.681l-.11-.335-.875-.317v-1.887l.875-.318.11-.335a4.821,4.821,0,0,1,.285-.682l.158-.315-.4-.847,1.334-1.334Zm0,0" transform="translate(-87.291 -145.484)" fill="#ce28c8"/><path d="M163.581,96a2.18,2.18,0,0,0-2.177,2.177,2.158,2.158,0,0,0,.108.645l-2.532,1.9a2.136,2.136,0,0,0-2.283-.069l-1.976-1.693a2.155,2.155,0,0,0,.151-.781,2.178,2.178,0,1,0-4.213.751l-8.776,7.313a3.6,3.6,0,0,0-2.253-.806,3.629,3.629,0,1,0,3.629,3.629,3.583,3.583,0,0,0-.447-1.707l8.777-7.314a2.109,2.109,0,0,0,2.182.015l1.976,1.693a2.155,2.155,0,0,0-.151.781,2.177,2.177,0,1,0,4.355,0,2.158,2.158,0,0,0-.108-.645l2.532-1.9a2.176,2.176,0,1,0,1.2-3.988Zm-21.774,13.065a2.177,2.177,0,1,1-2.177-2.177,2.153,2.153,0,0,1,1.1.312l-1.569,1.308.929,1.116,1.571-1.31a2.169,2.169,0,0,1,.141.752ZM152.693,98.9a.726.726,0,1,1,.726-.726A.727.727,0,0,1,152.693,98.9Zm5.081,4.355a.726.726,0,1,1,.726-.726A.727.727,0,0,1,157.774,103.258Zm5.806-4.355a.726.726,0,1,1,.726-.726A.727.727,0,0,1,163.581,98.9Zm0,0" transform="translate(-123.661 -87.29)" fill="#ce28c8"/><path d="M336,208h11.613v1.452H336Zm0,0" transform="translate(-305.516 -189.129)" fill="#ce28c8"/><path d="M336,240h11.613v1.452H336Zm0,0" transform="translate(-305.516 -218.226)" fill="#ce28c8"/><path d="M336,272h11.613v1.452H336Zm0,0" transform="translate(-305.516 -247.323)" fill="#ce28c8"/><path d="M336,304h8.71v1.452H336Zm0,0" transform="translate(-305.516 -276.419)" fill="#ce28c8"/><path d="M448,304h1.452v1.452H448Zm0,0" transform="translate(-407.355 -276.419)" fill="#ce28c8"/></g></g></svg>