<svg xmlns="http://www.w3.org/2000/svg" xmlns:xlink="http://www.w3.org/1999/xlink" width="145" height="145" viewBox="0 0 145 145"><defs><filter id="a" x="0" y="0" width="145" height="145" filterUnits="userSpaceOnUse"><feOffset input="SourceAlpha"/><feGaussianBlur stdDeviation="7.5" result="b"/><feFlood flood-opacity="0.078"/><feComposite operator="in" in2="b"/><feComposite in="SourceGraphic"/></filter></defs><g transform="translate(-1287.5 -2214.5)"><g transform="matrix(1, 0, 0, 1, 1287.5, 2214.5)" filter="url(#a)"><rect width="100" height="100" rx="50" transform="translate(22.5 22.5)" fill="#fff"/></g><g transform="translate(1336 2263.001)"><path d="M45.5,16.249A2.25,2.25,0,0,0,43.249,14H36.5a12.005,12.005,0,0,0-.075-1.31c-.017-.16-.049-.317-.075-.477-.04-.264-.08-.525-.137-.787-.043-.194-.1-.385-.15-.577-.058-.214-.118-.427-.189-.637s-.143-.406-.225-.606-.156-.375-.241-.564-.182-.4-.284-.589-.209-.375-.319-.559-.2-.346-.312-.514c-.2-.294-.406-.577-.626-.853-.037-.046-.069-.1-.107-.143a12.161,12.161,0,0,0-.9-.975c-.041-.038-.083-.075-.125-.112q-.43-.409-.9-.773c-.025-.019-.046-.041-.07-.06l-.439-.334-.01.007a11.964,11.964,0,0,0-17.55,4.525l-.013,0-.15.315c-.008.019-.014.038-.023.057q-.235.515-.421,1.054c-.016.046-.035.092-.051.139-.114.343-.21.692-.292,1.05-.016.065-.036.13-.05.195-.075.334-.124.675-.168,1.019-.01.08-.028.159-.037.24A12.2,12.2,0,0,0,12.5,14H5.75a2.25,2.25,0,0,0-2.25,2.25V42.5H2v2.25A2.25,2.25,0,0,0,4.25,47h40.5A2.25,2.25,0,0,0,47,44.749V42.5H45.5Zm-31.446-3.3a10.394,10.394,0,0,1,.772-3.013,4.657,4.657,0,0,1,4.7,1.843l.353.494a4.635,4.635,0,0,1,.87,2.709,6.166,6.166,0,0,0,3.658,5.629h0a5.862,5.862,0,0,1,3.143,3.424c-.23.075-.462.132-.694.186l-.068.018c-.165.038-.332.065-.5.094s-.325.055-.49.075c-.124.016-.248.031-.375.042-.307.027-.615.047-.928.047A10.511,10.511,0,0,1,14,14C14,13.645,14.019,13.3,14.053,12.949ZM24.5,26c.379,0,.756-.021,1.132-.057.215-.02.424-.057.636-.088.15-.022.295-.04.441-.068.282-.052.557-.12.832-.192.069-.019.139-.035.208-.054.3-.085.6-.184.887-.291.031-.012.064-.019.1-.031l.352-.133c.03-.013.061-.022.091-.035l.166-.062,0-.016A12.057,12.057,0,0,0,35.3,19.186l.016-.007.109-.243c.007-.016.012-.032.019-.048.058-.128.115-.257.168-.388H41v21H8v-21h5.383A12.013,12.013,0,0,0,24.5,26Zm9.669-7.922-1.035.517a2.314,2.314,0,0,1-2.188-.061l-.334-.19a2.321,2.321,0,0,1-.49-3.655,3.825,3.825,0,0,0,.616-4.6l-.463-.805a2.314,2.314,0,0,1,.666-3.038L31.284,6a10.685,10.685,0,0,1,.78.736c.064.067.125.137.187.206q.259.281.494.578.136.174.264.354c.116.159.225.322.333.487.1.15.187.3.275.45s.163.3.24.45c.086.17.172.34.248.515.067.15.124.3.183.457.069.178.139.358.2.541s.1.341.143.513.1.345.134.525c.045.213.075.43.106.646.021.142.05.282.065.427A10.679,10.679,0,0,1,35,14a10.434,10.434,0,0,1-.831,4.078ZM24.5,3.5A10.417,10.417,0,0,1,30.01,5.079a3.8,3.8,0,0,0-1.036,4.95l.46.805a2.325,2.325,0,0,1-.375,2.791,3.82,3.82,0,0,0,.805,6.017l.334.191a3.78,3.78,0,0,0,2.717.412,10.545,10.545,0,0,1-3.969,3.248,7.366,7.366,0,0,0-3.931-4.252h0a4.665,4.665,0,0,1-2.767-4.258A6.124,6.124,0,0,0,21.1,11.4l-.352-.495a6.15,6.15,0,0,0-5.093-2.545A10.49,10.49,0,0,1,24.5,3.5ZM5,16.249a.75.75,0,0,1,.75-.75H12.6A11.806,11.806,0,0,0,12.9,17H6.5V41h36V17H36.1c.031-.121.066-.241.094-.363.01-.046.025-.091.036-.138.07-.328.119-.662.161-1h6.854a.75.75,0,0,1,.75.75V42.5H5Zm40.5,28.5a.75.75,0,0,1-.75.75H4.25a.75.75,0,0,1-.75-.75V44h42Z" fill="#1eb3c5"/><path d="M26.956,46.616h6v-3h3.13l-6.13-7.153-6.13,7.153h3.13Zm3-7.847,2.869,3.347H31.456v3h-3v-3H27.087Z" transform="translate(-5.457 -8.617)" fill="#1eb3c5"/></g></g></svg>