<svg width="61" height="61" viewBox="0 0 61 61" fill="none" xmlns="http://www.w3.org/2000/svg">
<path d="M44.7969 20.0156L50.3762 22.8059C51.5636 23.3995 52.5622 24.312 53.2602 25.4412C53.9582 26.5703 54.328 27.8715 54.3281 29.199V60.0469H34.3125V20.0156H44.7969Z" fill="#E0C3AA"/>
<path d="M34.3125 57.1875H54.3281V60.0469H34.3125V57.1875Z" fill="#D0A37F"/>
<path d="M54.3287 61C54.076 61 53.8335 60.8996 53.6548 60.7208C53.476 60.5421 53.3756 60.2997 53.3756 60.0469V29.199C53.3795 28.0475 53.0607 26.918 52.4553 25.9386C51.8498 24.9592 50.982 24.169 49.9503 23.6578L48.1835 22.7749C48.0714 22.7189 47.9715 22.6414 47.8895 22.5468C47.8074 22.4521 47.7448 22.3423 47.7052 22.2235C47.6656 22.1047 47.6498 21.9792 47.6586 21.8543C47.6675 21.7293 47.7009 21.6074 47.7569 21.4954C47.813 21.3833 47.8905 21.2834 47.9851 21.2014C48.0797 21.1193 48.1896 21.0567 48.3084 21.0171C48.4272 20.9775 48.5527 20.9617 48.6776 20.9705C48.8025 20.9794 48.9245 21.0128 49.0365 21.0688L50.8034 21.9529C52.1524 22.6215 53.2871 23.6548 54.0786 24.9356C54.8702 26.2164 55.2871 27.6933 55.2819 29.199V60.0469C55.2819 60.2997 55.1814 60.5421 55.0027 60.7208C54.824 60.8996 54.5815 61 54.3287 61Z" fill="black"/>
<path d="M37.1719 0.953125H14.2969C10.0857 0.953125 6.67188 4.36695 6.67188 8.57812V52.4219C6.67188 56.633 10.0857 60.0469 14.2969 60.0469H37.1719C41.383 60.0469 44.7969 56.633 44.7969 52.4219V8.57812C44.7969 4.36695 41.383 0.953125 37.1719 0.953125Z" fill="#EAF2FF"/>
<path d="M37.1719 57.1875H14.2969C12.2746 57.1875 10.3352 56.3842 8.90519 54.9542C7.47522 53.5242 6.67188 51.5848 6.67188 49.5625V52.4219C6.67188 54.4442 7.47522 56.3836 8.90519 57.8136C10.3352 59.2435 12.2746 60.0469 14.2969 60.0469H37.1719C39.1941 60.0469 41.1336 59.2435 42.5636 57.8136C43.9935 56.3836 44.7969 54.4442 44.7969 52.4219V49.5625C44.7969 51.5848 43.9935 53.5242 42.5636 54.9542C41.1336 56.3842 39.1941 57.1875 37.1719 57.1875Z" fill="#C1D1F7"/>
<path d="M29.5469 61H14.2969C12.0226 60.9975 9.84218 60.0929 8.23401 58.4847C6.62585 56.8766 5.72127 54.6962 5.71875 52.4219V8.57812C5.72127 6.30384 6.62585 4.12343 8.23401 2.51526C9.84218 0.907097 12.0226 0.00252278 14.2969 0L37.1719 0C39.4462 0.00252278 41.6266 0.907097 43.2347 2.51526C44.8429 4.12343 45.7475 6.30384 45.75 8.57812V52.4219C45.75 52.6747 45.6496 52.9171 45.4708 53.0958C45.2921 53.2746 45.0497 53.375 44.7969 53.375C44.5441 53.375 44.3017 53.2746 44.1229 53.0958C43.9442 52.9171 43.8438 52.6747 43.8438 52.4219V8.57812C43.8419 6.80921 43.1383 5.1133 41.8875 3.86249C40.6367 2.61168 38.9408 1.90814 37.1719 1.90625H14.2969C12.528 1.90814 10.832 2.61168 9.58124 3.86249C8.33043 5.1133 7.62689 6.80921 7.625 8.57812V52.4219C7.62689 54.1908 8.33043 55.8867 9.58124 57.1375C10.832 58.3883 12.528 59.0919 14.2969 59.0938H29.5469C29.7997 59.0938 30.0421 59.1942 30.2208 59.3729C30.3996 59.5517 30.5 59.7941 30.5 60.0469C30.5 60.2997 30.3996 60.5421 30.2208 60.7208C30.0421 60.8996 29.7997 61 29.5469 61Z" fill="black"/>
<path d="M40.9844 8.57812V52.4219C40.9844 53.433 40.5827 54.4027 39.8677 55.1177C39.1527 55.8327 38.183 56.2344 37.1719 56.2344H14.2969C13.2857 56.2344 12.316 55.8327 11.601 55.1177C10.886 54.4027 10.4844 53.433 10.4844 52.4219V8.57812C10.4844 7.56699 10.886 6.59726 11.601 5.88228C12.316 5.1673 13.2857 4.76563 14.2969 4.76562H16.6213C17.0458 4.76649 17.4578 4.909 17.7921 5.17057C18.1264 5.43214 18.3639 5.79781 18.4668 6.20961L18.7051 7.13414C18.808 7.54594 19.0454 7.91161 19.3797 8.17318C19.7141 8.43475 20.1261 8.57726 20.5506 8.57812H30.9158C31.3407 8.5778 31.7533 8.43553 32.0881 8.17391C32.4228 7.9123 32.6606 7.54634 32.7637 7.13414L33.002 6.20961C33.1049 5.79781 33.3423 5.43214 33.6766 5.17057C34.0109 4.909 34.423 4.76649 34.8474 4.76562H37.1719C38.183 4.76562 39.1527 5.1673 39.8677 5.88228C40.5827 6.59726 40.9844 7.56699 40.9844 8.57812Z" fill="#A8EDFD"/>
<path d="M32.4062 34.3125H19.0625C18.8097 34.3125 18.5673 34.2121 18.3885 34.0333C18.2098 33.8546 18.1094 33.6122 18.1094 33.3594C18.1094 33.1066 18.2098 32.8642 18.3885 32.6854C18.5673 32.5067 18.8097 32.4062 19.0625 32.4062H32.4062C32.659 32.4062 32.9015 32.5067 33.0802 32.6854C33.259 32.8642 33.3594 33.1066 33.3594 33.3594C33.3594 33.6122 33.259 33.8546 33.0802 34.0333C32.9015 34.2121 32.659 34.3125 32.4062 34.3125Z" fill="black"/>
<path d="M28.5938 45.75H22.875C22.1166 45.75 21.3894 45.4487 20.8531 44.9125C20.3169 44.3763 20.0156 43.649 20.0156 42.8906C20.0156 42.1323 20.3169 41.405 20.8531 40.8687C21.3894 40.3325 22.1166 40.0312 22.875 40.0312H28.5938C29.3521 40.0312 30.0794 40.3325 30.6156 40.8687C31.1519 41.405 31.4531 42.1323 31.4531 42.8906C31.4531 43.649 31.1519 44.3763 30.6156 44.9125C30.0794 45.4487 29.3521 45.75 28.5938 45.75Z" fill="#B1DA7A"/>
<path d="M28.5932 42.8906H22.8745C22.3726 42.8905 21.8796 42.7584 21.4451 42.5074C21.0105 42.2564 20.6496 41.8955 20.3987 41.4609C20.1478 41.8956 20.0156 42.3886 20.0156 42.8905C20.0156 43.3924 20.1477 43.8854 20.3986 44.3201C20.6495 44.7547 21.0104 45.1157 21.445 45.3667C21.8796 45.6177 22.3726 45.7499 22.8745 45.75H28.5932C30.8068 45.75 32.1603 43.3469 31.0689 41.4609C30.818 41.8955 30.4572 42.2564 30.0226 42.5074C29.588 42.7584 29.095 42.8905 28.5932 42.8906Z" fill="#96BF5B"/>
<path d="M28.5938 46.7031H22.875C21.8639 46.7031 20.8941 46.3015 20.1792 45.5865C19.4642 44.8715 19.0625 43.9018 19.0625 42.8906C19.0625 41.8795 19.4642 40.9098 20.1792 40.1948C20.8941 39.4798 21.8639 39.0781 22.875 39.0781H28.5938C29.6049 39.0781 30.5746 39.4798 31.2896 40.1948C32.0046 40.9098 32.4062 41.8795 32.4062 42.8906C32.4062 43.9018 32.0046 44.8715 31.2896 45.5865C30.5746 46.3015 29.6049 46.7031 28.5938 46.7031ZM22.875 40.9844C22.3694 40.9844 21.8846 41.1852 21.5271 41.5427C21.1696 41.9002 20.9688 42.3851 20.9688 42.8906C20.9688 43.3962 21.1696 43.8811 21.5271 44.2385C21.8846 44.596 22.3694 44.7969 22.875 44.7969H28.5938C29.0993 44.7969 29.5842 44.596 29.9417 44.2385C30.2992 43.8811 30.5 43.3962 30.5 42.8906C30.5 42.3851 30.2992 41.9002 29.9417 41.5427C29.5842 41.1852 29.0993 40.9844 28.5938 40.9844H22.875Z" fill="black"/>
<path d="M30.5 18.1094H20.9688L19.0625 23.8281L25.7344 26.6875L32.4062 23.8281L30.5 18.1094Z" fill="#4C5657"/>
<path d="M25.359 27.5632L18.6871 24.7038C18.4674 24.6097 18.2911 24.4364 18.1931 24.2184C18.0951 24.0004 18.0827 23.7535 18.1582 23.5267L20.0644 17.8079C20.1277 17.6182 20.2491 17.4531 20.4113 17.3361C20.5736 17.2192 20.7686 17.1562 20.9687 17.1563H30.4999C30.7 17.1562 30.895 17.2192 31.0573 17.3361C31.2196 17.4531 31.3409 17.6182 31.4042 17.8079L33.3105 23.5267C33.3859 23.7535 33.3735 24.0004 33.2755 24.2184C33.1775 24.4364 33.0012 24.6097 32.7815 24.7038L26.1096 27.5632C25.991 27.614 25.8633 27.6402 25.7343 27.6402C25.6053 27.6402 25.4776 27.614 25.359 27.5632ZM20.2443 23.2979L25.7343 25.651L31.2243 23.2979L29.8125 19.0625H21.6561L20.2443 23.2979Z" fill="black"/>
<path d="M35.2656 18.1094L25.7344 21.9219L16.2031 18.1094L25.7344 14.2969L35.2656 18.1094Z" fill="#596060"/>
<path d="M25.3771 22.8071L15.8459 18.9946C15.6689 18.9239 15.5171 18.8018 15.4102 18.644C15.3032 18.4862 15.2461 18.2999 15.2461 18.1093C15.2461 17.9187 15.3032 17.7325 15.4102 17.5747C15.5171 17.4169 15.6689 17.2948 15.8459 17.2241L25.3771 13.4116C25.6043 13.3208 25.8577 13.3208 26.0848 13.4116L35.6161 17.2241C35.7931 17.2948 35.9449 17.4169 36.0518 17.5747C36.1587 17.7325 36.2159 17.9187 36.2159 18.1093C36.2159 18.2999 36.1587 18.4862 36.0518 18.644C35.9449 18.8018 35.7931 18.9239 35.6161 18.9946L26.0848 22.8071C25.8577 22.8979 25.6043 22.8979 25.3771 22.8071ZM18.7696 18.1093L25.7346 20.8948L32.6995 18.1093L25.7346 15.3238L18.7696 18.1093Z" fill="black"/>
<path d="M37.1719 53.375H14.2969C13.2857 53.375 12.316 52.9733 11.601 52.2583C10.886 51.5434 10.4844 50.5736 10.4844 49.5625V52.4219C10.4844 53.433 10.886 54.4027 11.601 55.1177C12.316 55.8327 13.2857 56.2344 14.2969 56.2344H37.1719C38.183 56.2344 39.1527 55.8327 39.8677 55.1177C40.5827 54.4027 40.9844 53.433 40.9844 52.4219V49.5625C40.9844 50.5736 40.5827 51.5434 39.8677 52.2583C39.1527 52.9733 38.183 53.375 37.1719 53.375Z" fill="#8BD4DE"/>
<path d="M37.1719 57.1875H14.2969C13.033 57.1875 11.8208 56.6854 10.9271 55.7917C10.0333 54.898 9.53125 53.6858 9.53125 52.4219V8.57813C9.53125 7.3142 10.0333 6.10205 10.9271 5.20832C11.8208 4.31459 13.033 3.8125 14.2969 3.8125H16.6213C17.2589 3.8126 17.8782 4.02582 18.3808 4.41827C18.8833 4.81072 19.2403 5.35988 19.3949 5.97848L19.626 6.90301C19.6776 7.10921 19.7966 7.29226 19.9641 7.42308C20.1316 7.5539 20.338 7.62497 20.5506 7.625H30.9158C31.1283 7.62497 31.3348 7.5539 31.5023 7.42308C31.6698 7.29226 31.7888 7.10921 31.8403 6.90301L32.0715 5.97848C32.2262 5.35949 32.5835 4.81003 33.0865 4.41753C33.5896 4.02504 34.2094 3.81207 34.8474 3.8125H37.1719C38.4358 3.8125 39.648 4.31459 40.5417 5.20832C41.4354 6.10205 41.9375 7.3142 41.9375 8.57813V52.4219C41.9375 53.6858 41.4354 54.898 40.5417 55.7917C39.648 56.6854 38.4358 57.1875 37.1719 57.1875ZM14.2969 5.71875C13.5385 5.71875 12.8112 6.02001 12.275 6.55624C11.7388 7.09248 11.4375 7.81977 11.4375 8.57813V52.4219C11.4375 53.1802 11.7388 53.9075 12.275 54.4438C12.8112 54.98 13.5385 55.2812 14.2969 55.2812H37.1719C37.9302 55.2812 38.6575 54.98 39.1938 54.4438C39.73 53.9075 40.0312 53.1802 40.0312 52.4219V8.57813C40.0312 7.81977 39.73 7.09248 39.1938 6.55624C38.6575 6.02001 37.9302 5.71875 37.1719 5.71875H34.8474C34.6349 5.71878 34.4285 5.78986 34.261 5.92067C34.0934 6.05149 33.9745 6.23454 33.9229 6.44074L33.6918 7.36527C33.5372 7.98387 33.1802 8.53303 32.6777 8.92549C32.1751 9.31794 31.5558 9.53115 30.9182 9.53125H20.5529C19.9153 9.53115 19.296 9.31794 18.7935 8.92549C18.2909 8.53303 17.934 7.98387 17.7794 7.36527L17.5482 6.44074C17.4966 6.23415 17.3772 6.0508 17.2092 5.91994C17.0412 5.78908 16.8343 5.71825 16.6213 5.71875H14.2969Z" fill="black"/>
<path d="M21.9219 5.71875C21.7334 5.71875 21.5491 5.66285 21.3923 5.55812C21.2356 5.45339 21.1134 5.30453 21.0413 5.13037C20.9692 4.95621 20.9503 4.76457 20.9871 4.57968C21.0238 4.39479 21.1146 4.22496 21.2479 4.09166C21.3812 3.95837 21.551 3.86759 21.7359 3.83081C21.9208 3.79404 22.1125 3.81291 22.2866 3.88505C22.4608 3.95719 22.6096 4.07936 22.7144 4.2361C22.8191 4.39284 22.875 4.57712 22.875 4.76563C22.875 5.01841 22.7746 5.26084 22.5958 5.43959C22.4171 5.61833 22.1747 5.71875 21.9219 5.71875Z" fill="black"/>
<path d="M29.5469 5.71875H25.7344C25.4816 5.71875 25.2392 5.61833 25.0604 5.43959C24.8817 5.26084 24.7812 5.01841 24.7812 4.76562C24.7812 4.51284 24.8817 4.27041 25.0604 4.09166C25.2392 3.91292 25.4816 3.8125 25.7344 3.8125H29.5469C29.7997 3.8125 30.0421 3.91292 30.2208 4.09166C30.3996 4.27041 30.5 4.51284 30.5 4.76562C30.5 5.01841 30.3996 5.26084 30.2208 5.43959C30.0421 5.61833 29.7997 5.71875 29.5469 5.71875Z" fill="black"/>
<path d="M34.3125 52.4219H17.1562C16.9035 52.4219 16.661 52.3215 16.4823 52.1427C16.3035 51.964 16.2031 51.7215 16.2031 51.4688C16.2031 51.216 16.3035 50.9735 16.4823 50.7948C16.661 50.616 16.9035 50.5156 17.1562 50.5156H34.3125C34.5653 50.5156 34.8077 50.616 34.9865 50.7948C35.1652 50.9735 35.2656 51.216 35.2656 51.4688C35.2656 51.7215 35.1652 51.964 34.9865 52.1427C34.8077 52.3215 34.5653 52.4219 34.3125 52.4219Z" fill="black"/>
<path d="M33.3596 59.0938V57.9596C33.3594 53.1496 35.0458 48.4918 38.1253 44.7969L33.7754 38.8161C32.8394 37.5291 32.3596 35.9665 32.4121 34.376C32.4645 32.7855 33.0462 31.258 34.0649 30.0354C34.2169 29.8522 34.4054 29.7026 34.6185 29.5963C34.8315 29.4901 35.0643 29.4294 35.3021 29.4182C35.5399 29.4069 35.7775 29.4455 35.9995 29.5312C36.2216 29.617 36.4234 29.7481 36.5919 29.9163L46.7034 40.0313L49.5628 45.75V59.0938H33.3596Z" fill="#E0C3AA"/>
<path d="M33.3594 60.0469H49.5625V57.1875H33.3749C33.3594 57.95 33.3594 58.1525 33.3594 60.0469Z" fill="#D0A37F"/>
<path d="M33.3599 61.0001C33.1071 61.0001 32.8646 60.8996 32.6859 60.7209C32.5071 60.5421 32.4067 60.2997 32.4067 60.0469V57.9596C32.4107 53.1834 34.0001 48.5436 36.9257 44.7683L33.0024 39.376C31.9415 37.918 31.3978 36.1474 31.4576 34.3452C31.5174 32.543 32.1772 30.8123 33.3325 29.4278C33.5699 29.1439 33.8638 28.9125 34.1955 28.7482C34.5272 28.584 34.8895 28.4906 35.2592 28.4739C35.629 28.4572 35.9981 28.5176 36.3433 28.6513C36.6884 28.7849 37.002 28.9889 37.2641 29.2503L47.3756 39.3605C47.4641 39.4491 47.5344 39.5542 47.5823 39.6699C47.6302 39.7856 47.6549 39.9096 47.6549 40.0349C47.6549 40.1601 47.6302 40.2841 47.5823 40.3998C47.5344 40.5155 47.4641 40.6207 47.3756 40.7092C47.287 40.7978 47.1819 40.868 47.0662 40.9159C46.9505 40.9639 46.8265 40.9885 46.7012 40.9885C46.576 40.9885 46.452 40.9639 46.3363 40.9159C46.2206 40.868 46.1154 40.7978 46.0269 40.7092L35.9166 30.5978C35.842 30.523 35.7526 30.4646 35.6541 30.4263C35.5556 30.3881 35.4503 30.3708 35.3447 30.3757C35.2392 30.3805 35.1358 30.4073 35.0413 30.4544C34.9467 30.5014 34.863 30.5677 34.7955 30.649C33.9132 31.7083 33.41 33.032 33.3657 34.41C33.3215 35.7879 33.7387 37.1411 34.5513 38.2549L38.9011 44.2358C39.0261 44.4074 39.0902 44.6157 39.0833 44.8279C39.0764 45.0401 38.9988 45.2438 38.863 45.4069C35.9273 48.9316 34.3176 53.3725 34.313 57.9596V60.0469C34.313 60.2997 34.2126 60.5421 34.0338 60.7209C33.8551 60.8996 33.6126 61.0001 33.3599 61.0001Z" fill="black"/>
</svg>
