<svg id="Layer_1" enable-background="new 0 0 130 130" height="512" viewBox="0 0 130 130" width="512" xmlns="http://www.w3.org/2000/svg"><g><circle cx="65" cy="65" fill="#fad553" r="64"/><g><g><g><g><g fill="#fab941"><path d="m116.836 74.38h9.553v4.448h-9.553z"/><path d="m110.764 74.38h4.953v4.448h-4.953z"/></g></g></g><g><g><g fill="#fab941"><path d="m116.836 63.173h9.553v4.448h-9.553z"/><path d="m128.87503 68.88321c-.09009 1.5-.22998 2.98999-.41992 4.44995h-6.8601v-4.44995z"/></g></g></g></g><g><g><g><g fill="#fab941"><path d="m14.237 72.925h9.553v4.448h-9.553z"/><path d="m8.165 72.925h4.953v4.448h-4.953z"/></g></g></g><g><g><g fill="#fab941"><path d="m14.237 61.719h9.553v4.448h-9.553z"/><path d="m29.673 67.432h4.953v4.448h-4.953z"/><path d="m19.001 67.432h9.553v4.448h-9.553z"/></g></g></g></g><g><g><g><g fill="#fab941"><path d="m26.163 20.825h9.553v4.448h-9.553z"/><path d="m36.835 20.825h4.953v4.448h-4.953z"/></g></g></g><g><g><g fill="#fab941"><path d="m35.71488 9.6232v4.43994h-9.46972c2.10986-1.61987 4.32983-3.09985 6.6499-4.43994z"/><path d="m30.95511 15.33316v4.44995h-9.56006v-1.62988c1.05005-.97998 2.12988-1.91992 3.23999-2.82007z"/></g></g></g></g><g><g><g><g fill="#fab941"><path d="m81.381 56.093h9.553v4.448h-9.553z"/><path d="m92.053 56.093h4.953v4.448h-4.953z"/></g></g></g><g><g><g fill="#fab941"><path d="m81.381 44.886h9.553v4.448h-9.553z"/><path d="m70.544 50.599h4.953v4.448h-4.953z"/><path d="m76.617 50.599h9.553v4.448h-9.553z"/></g></g></g></g><g><g><g><g><path d="m117.9849 29.09317h-7.18994v-4.44995h3.88013c1.16992 1.42993 2.27002 2.91992 3.30981 4.44995z" fill="#fab941"/></g></g></g><g><g><g fill="#fab941"><path d="m99.956 19.153h4.953v4.448h-4.953z"/><path d="m113.80497 23.60318h-7.78003v-4.44995h3.62012c1.45996 1.40991 2.8501 2.8999 4.15991 4.44995z"/></g></g></g></g></g><g><g><path d="m126.06716 84.19049c-3.27702 10.45644-9.24591 19.79572-16.51025 26.75h-16.02979l-22.20996.01001v-15.13c0-5.27002 3.00977-10.08002 7.75-12.39001l8.67993-4.22998 5.78003-2.82001h16.73999l5.76978 2.82001h.01025l.00977.01001c8.50625 4.17312 8.87716 4.24237 10.01025 4.97997z" fill="#168de2"/><path d="m110.26711 76.38049v33.85999c-.23999.23004-.46997.47003-.71021.70001v.01001h-16.02978v-34.57001z" fill="#ededed"/><g fill="#f34b50"><path d="m105.09332 83.28872-1.83556 4.2839h-2.72728l-1.83556-4.2839z"/><path d="m98.79956 110.94735 1.72988-23.37518h2.7263l1.73005 23.37518z"/></g><path d="m93.52796 66.31835v10.06615l8.36599 6.90422 8.36598-6.90422v-10.06615z" fill="#f2b58c"/><path d="m110.25993 74.38213s-3.20209 4.37849-8.36598 8.90659c0 0 7.97482 1.55173 8.36598 4.42027 0 0-.8249-6.48745 2.43479-10.13831z" fill="#fff"/><path d="m93.53216 74.38213s3.20209 4.37849 8.36598 8.90659c0 0-7.97482 1.55173-8.36598 4.42027 0 0 .8249-6.48745-2.4348-10.13831z" fill="#fff"/><g fill="#2e6bce"><path d="m92.64409 110.94735-7.09904-23.02521c-.22203-.70002.12802-1.45403.80118-1.75018l3.3186-1.4473-3.04266-2.27526c-.74053-.55202-.77422-1.66267-.06065-2.26178l1.18476-.98286 5.78244-4.81972.15482 1.99924 2.70655 34.55973z"/><path d="m118.24709 87.92047-6.37012 20.65002c-.52002.57001-1.05981 1.12-1.60986 1.66998-.23999.23004-.46997.47003-.71021.70001v.01001l-.70996-.01001h-1.44994l2.70996-34.56.16016-2 5.76978 4.82001h.01025l.00977.01001 1.17017.97998c.71997.59998.67993 1.71002-.06006 2.26001l-3.04004 2.27002 3.32007 1.44995c.66991.30006 1.02 1.05006.80003 1.75001z"/><path d="m126.06716 84.19049c-3.27702 10.45644-9.24591 19.79572-16.51025 26.75h-5.95996c8.81006-7.40997 15.45996-17.31 18.8501-28.62 1.68157.83816 2.59004 1.19946 3.62011 1.87z"/></g><g><path d="m118.85409 48.05404c0 9.38974-7.61079 24.78804-17.00053 24.78804s-17.00053-15.3983-17.00053-24.78804c0-9.39 7.61079-17.00078 17.00053-17.00078s17.00053 7.61079 17.00053 17.00078z" fill="#2f4867"/><g fill="#ffbf9c"><path d="m119.10382 58.22953c0 1.87221-1.51716 3.40592-3.40592 3.40592-1.88837 0-3.42168-1.53371-3.42168-3.40592 0-1.88876 1.53331-3.42207 3.42168-3.42207 1.88876-.00001 3.40592 1.53331 3.40592 3.42207z"/><path d="m91.51168 58.22953c0 1.87221-1.51716 3.40592-3.40592 3.40592-1.88837 0-3.42168-1.53371-3.42168-3.40592 0-1.88876 1.53331-3.42207 3.42168-3.42207 1.88876-.00001 3.40592 1.53331 3.40592 3.42207z"/></g><path d="m115.9456 55.17272c-.25994 11.22632-6.46396 20.21931-14.08598 20.21931-7.78762 0-14.09809-9.38277-14.09809-20.95183 0-.01111.00001-.02222.00002-.03332.00187-1.75141 1.50177-3.12843 3.25092-3.03951 3.10883.15805 7.10193.21444 9.51167-.33067 1.52627-.34322 3.52586-1.29012 5.48049-2.37607 3.42387-1.90223 7.6971-.17041 8.8224 3.58127.33197 1.10684.7065 2.13436 1.11857 2.93082z" fill="#ffceab"/><g fill="#2f4867"><path d="m116.20773 46.95966v13.50167h-.65547c-.9531 0-1.72786-.77447-1.72786-1.72786v-11.77381z"/><path d="m87.58221 46.95966v13.50167h.65548c.9531 0 1.72786-.77447 1.72786-1.72786v-11.77381z"/></g><g fill="#2f4867"><circle cx="107.199" cy="57.761" r="1.6"/><path d="m109.68455 55.07074c0 .17289-.13827.31137-.31116.31137h-4.34925c-.17289 0-.31136-.13848-.31136-.31137s.13847-.31981.31136-.31981h4.34925c.17289 0 .31116.14692.31116.31981z"/><circle cx="96.508" cy="57.761" r="1.6"/><path d="m98.99435 55.07074c0 .17289-.13827.31137-.31116.31137h-4.34925c-.17289 0-.31137-.13848-.31137-.31137s.13848-.31981.31137-.31981h4.34925c.1729 0 .31116.14692.31116.31981z"/></g><path d="m99.89999 63.15947c.32973 1.82489 3.57742 1.82489 3.90716 0-1.30215.42226-2.60454.42226-3.90716 0z" fill="#ffbf9c"/><g><path d="m102.8885 69.43579c-.8043 0-1.60085-.19817-2.33054-.58821-.24129-.12936-.33238-.43025-.20253-.67154.12985-.24226.43219-.33141.67155-.2035.93221.49954 2.003.60565 3.01467.29895 1.01167-.30622 1.84408-.98842 2.34313-1.92015.12888-.24274.43122-.33141.67155-.2035.24129.12937.33237.43025.20252.67155-.62405 1.16575-1.6648 2.01899-2.93037 2.40176-.47386.14341-.95837.21464-1.43998.21464z" fill="#ffbf9c"/></g></g><g><path d="m75.50215 92.70612c-.09795 0-.19721-.02137-.29187-.06673-.33461-.16171-.47529-.56403-.31357-.89896 1.47581-3.06008 3.97121-5.56534 7.02603-7.05397.33723-.16369.73758-.02334.9006.31028.16238.33428.02367.73725-.31028.89995-2.78465 1.35683-5.05917 3.63989-6.40416 6.42881-.11569.24059-.35628.38062-.60675.38062z" fill="#39ace5"/></g><g><path d="m74.06119 99.01594c-.37208 0-.67316-.30141-.67316-.67316 0-1.07546.11439-2.15224.33987-3.2001.07757-.3632.43781-.59525.79937-.51637.36353.07822.59492.43616.51669.7997-.20576.95483-.30962 1.93629-.30962 2.91677 0 .37175-.30108.67316-.67315.67316z" fill="#39ace5"/></g></g><g><path d="m58.67702 95.8205v15.12c-3.90974.00102 14.15952-.00371-38.21997.01001-7.32044-7.01511-13.28471-16.32943-16.53003-26.76001 1.12241-.73106 1.50026-.80515 10.03003-4.98999l5.78003-2.82001h16.72998c19.82972 9.66133 12.99042 6.32912 14.46997 7.04999 4.72999 2.30999 7.73999 7.11999 7.73999 12.39001z" fill="#168de2"/><path d="m36.46706 76.38049v34.57001h-16.01c-.23999-.22998-.47998-.47003-.71997-.72003v-33.84998z" fill="#ededed"/><g fill="#f34b50"><path d="m31.3012 83.28872-1.83556 4.2839h-2.72728l-1.83556-4.2839z"/><path d="m25.00744 110.94735 1.72988-23.37518h2.7263l1.73005 23.37518z"/></g><path d="m19.73584 66.31835v10.06615l8.36599 6.90422 8.36598-6.90422v-10.06615z" fill="#f2b58c"/><path d="m36.46781 74.38213s-3.20209 4.37849-8.36599 8.90659c0 0 7.97482 1.55173 8.36599 4.42027 0 0-.8249-6.48745 2.4348-10.13831z" fill="#fff"/><path d="m19.74004 74.38213s3.20209 4.37849 8.36598 8.90659c0 0-7.97482 1.55173-8.36598 4.42027 0 0 .82489-6.48745-2.4348-10.13831z" fill="#fff"/><g fill="#2e6bce"><path d="m22.59695 110.94049-2.13989.01001c-.23999-.22998-.47998-.47003-.71997-.72003-.56006-.53998-1.1001-1.10999-1.63013-1.69l-6.34985-20.62c-.22998-.69995.11987-1.44995.7998-1.75l3.32007-1.44995-3.05005-2.27002c-.73999-.54999-.77002-1.66003-.05981-2.26001l1.18994-.98999 5.78003-4.82001.1499 2z"/><path d="m26.42703 110.9505h-5.96997c-7.36397-7.05682-13.34577-16.52569-16.53003-26.76001 1.0291-.67029 1.90986-1.01762 3.62012-1.87 3.3999 11.32001 10.0498 21.21998 18.87988 28.63001z"/><path d="m37.35588 110.94735 7.09904-23.02521c.22203-.70002-.12803-1.45403-.80118-1.75018l-3.3186-1.4473 3.04266-2.27526c.74054-.55202.77422-1.66267.06064-2.26178l-1.18475-.98286-5.78244-4.81972-.15481 1.99924-2.70655 34.55973z"/></g><g><path d="m45.06197 48.05404c0 9.38974-7.61079 24.78804-17.00052 24.78804s-17.00052-15.3983-17.00052-24.78804c0-9.39 7.61079-17.00078 17.00052-17.00078s17.00052 7.61079 17.00052 17.00078z" fill="#2f4867"/><g fill="#ffbf9c"><path d="m45.3117 58.22953c0 1.87221-1.51715 3.40592-3.40592 3.40592-1.88837 0-3.42168-1.53371-3.42168-3.40592 0-1.88876 1.53331-3.42207 3.42168-3.42207 1.88876-.00001 3.40592 1.53331 3.40592 3.42207z"/><path d="m17.71955 58.22953c0 1.87221-1.51716 3.40592-3.40592 3.40592-1.88837 0-3.42168-1.53371-3.42168-3.40592 0-1.88876 1.53331-3.42207 3.42168-3.42207 1.88877-.00001 3.40592 1.53331 3.40592 3.42207z"/></g><path d="m42.15348 55.17272c-.25994 11.22632-6.46396 20.21931-14.08598 20.21931-7.78762 0-14.0981-9.38277-14.0981-20.95183 0-.01111.00001-.02222.00002-.03332.00187-1.75141 1.50177-3.12843 3.25092-3.03951 3.10883.15805 7.10193.21444 9.51167-.33067 1.52626-.34322 3.52586-1.29012 5.4805-2.37607 3.42387-1.90223 7.69709-.17041 8.82239 3.58127.33198 1.10684.70651 2.13436 1.11858 2.93082z" fill="#ffceab"/><g fill="#2f4867"><path d="m42.4156 46.95966v13.50167h-.65548c-.9531 0-1.72786-.77447-1.72786-1.72786v-11.77381z"/><path d="m13.7901 46.95966v13.50167h.65547c.9531 0 1.72786-.77447 1.72786-1.72786v-11.77381z"/></g><g fill="#2f4867"><circle cx="33.406" cy="57.761" r="1.6"/><path d="m35.89243 55.07074c0 .17289-.13827.31137-.31116.31137h-4.34925c-.17289 0-.31137-.13848-.31137-.31137s.13848-.31981.31137-.31981h4.34925c.17289 0 .31116.14692.31116.31981z"/><circle cx="22.716" cy="57.761" r="1.6"/><path d="m25.20223 55.07074c0 .17289-.13827.31137-.31116.31137h-4.34925c-.17289 0-.31137-.13848-.31137-.31137s.13848-.31981.31137-.31981h4.34925c.17289 0 .31116.14692.31116.31981z"/></g><path d="m26.10786 63.15947c.32973 1.82489 3.57743 1.82489 3.90716 0-1.30214.42226-2.60453.42226-3.90716 0z" fill="#ffbf9c"/><g><path d="m29.09637 69.43579c-.8043 0-1.60085-.19817-2.33053-.58821-.24129-.12936-.33238-.43025-.20253-.67154.12985-.24226.43219-.33141.67154-.2035.93221.49954 2.003.60565 3.01467.29895 1.01167-.30622 1.84408-.98842 2.34313-1.92015.12888-.24274.43122-.33141.67154-.2035.24129.12937.33238.43025.20253.67155-.62406 1.16575-1.66481 2.01899-2.93037 2.40176-.47385.14341-.95836.21464-1.43998.21464z" fill="#ffbf9c"/></g></g></g></g><g><path d="m110.42314 106.5305v3.55994c-11.72641 11.80972-27.81205 18.91003-45.42017 18.91003-17.07227 0-33.32809-6.73627-45.41992-18.90015v-3.56982c0-7.83008 4.45996-14.97009 11.5-18.40015l12.8999-6.28003 8.59009-4.18994h24.85986l8.57007 4.18005 12.92017 6.28992c7.02979 3.43006 11.5 10.57007 11.5 18.40015z" fill="#386384"/><g><path d="m25.79375 101.90721c-.14551 0-.29297-.03174-.43359-.09912-.49707-.24023-.70605-.83789-.46582-1.33545 2.19238-4.5459 5.89941-8.26758 10.4375-10.479.50098-.24316 1.0957-.03467 1.33789.46094.24121.49658.03516 1.09521-.46094 1.33691-4.13672 2.01563-7.51563 5.40723-9.51367 9.55029-.17188.35742-.5293.56543-.90137.56543z" fill="#4a749b"/></g><g><path d="m23.65312 111.28075c-.55273 0-1-.44775-1-1 0-1.59766.16992-3.19727.50488-4.75391.11523-.53955.65039-.88428 1.1875-.76709.54004.11621.88379.64795.76758 1.18799-.30566 1.41846-.45996 2.87646-.45996 4.33301 0 .55224-.44726 1-1 1z" fill="#4a749b"/></g><path d="m110.42314 106.5305v3.55994c-11.88879 11.97324-28.05264 18.91003-45.42017 18.91003-17.52253 0-33.62547-7.03542-45.41992-18.90015v-3.56982c0-.75.04004-1.49011.11987-2.22009 11.01001 12.66003 27.22998 20.69006 45.30005 20.69006 18.06006 0 34.29004-8.03003 45.30005-20.69006.08008.72998.12012 1.47009.12012 2.22009z" fill="#2f4867"/><path d="m77.43291 77.66039v50.13c-8.31212 1.67468-17.19309 1.54466-24.85986 0v-50.13z" fill="#ededed"/><path d="m77.43291 123.70042v4.08997c-1.38989.28003-2.7998.51001-4.21997.69006-1.19995.1499-2.3999.27002-3.61987.34998-.38013.02991-.76001.04993-1.14014.06995-.57983.04004-1.15991.06006-1.73999.08008-.57007.01001-1.13989.02002-1.70996.02002-.57983 0-1.15991-.01001-1.73999-.03003-.58008-.01001-1.1499-.03003-1.71997-.07007-.38013-.02002-.76001-.04004-1.13989-.06995-1.22021-.07996-2.42017-.20007-3.62012-.34998-1.41992-.18005-2.82007-.41003-4.20996-.69006v-4.08997c2.6499.56006 5.36987.94995 8.12988 1.14001 1.42017.10999 2.86011.16003 4.30005.16003s2.87012-.05005 4.29004-.16003c2.77001-.19005 5.48998-.57995 8.13989-1.14001z" fill="#dddce0"/><g><path d="m69.7528 87.91724-2.72681 6.36393h-4.0515l-2.72681-6.36393z" fill="#f34b50"/><path d="m69.59306 128.83043c-1.52002.10999-3.05005.17004-4.59009.17004-1.55005 0-3.07983-.06006-4.59985-.17004l2.56982-34.54993h4.05005z" fill="#f34b50"/><path d="m69.59306 128.83043c-.38013.02991-.76001.04993-1.14014.06995-.57983.04004-1.15991.06006-1.73999.08008-.57007.01001-1.13989.02002-1.70996.02002-.57983 0-1.15991-.01001-1.73999-.03003-.58008-.01001-1.1499-.03003-1.71997-.07007-.38013-.02002-.76001-.04004-1.13989-.06995l.2998-3.98999c1.42017.10999 2.86011.16003 4.30005.16003s2.87012-.05005 4.29004-.16003z" fill="#e53946"/></g><path d="m52.57193 62.70696v14.95373l12.42805 10.25655 12.42806-10.25655v-14.95373z" fill="#f2b58c"/><path d="m77.42804 74.68607s-7.10266 1.57053-12.42805 13.23116c0 0 11.84697 2.30518 12.42805 6.56651 0 0-1.22542-9.63741 3.617-15.06093z" fill="#fff"/><path d="m52.57193 74.68607s7.10266 1.57053 12.42806 13.23116c0 0-11.84697 2.30518-12.42806 6.56651 0 0 1.22542-9.63741-3.617-15.06093z" fill="#fff"/><path d="m89.29301 94.8004c-1.0472 3.37653-9.20918 29.69363-10.11987 32.63-2.15363.48266-3.87312.76949-5.96021 1.05005 4.85484-61.83553 3.70824-47.23135 3.98999-50.82007l.22998-2.96997 8.57007 7.15002 1.77002 1.46997c1.06006.89001 1.02002 2.53992-.09009 3.35999l-4.52002 3.38 4.94019 2.15002c1 .43996 1.51001 1.56007 1.18994 2.59999z" fill="#4a749b"/><path d="m56.78301 128.48045c-2.08853-.28085-3.67045-.54266-5.95996-1.06006-13.85494-44.70259-9.07635-29.28461-10.11011-32.62-.32983-1.03992.19019-2.16003 1.19019-2.59998l4.92993-2.15002-4.52002-3.38c-1.1001-.82007-1.15015-2.46997-.09009-3.35999l1.76001-1.46008 8.59009-7.15991.22998 2.96997c1.11497 14.23697 2.78578 35.57142 3.97998 50.82007z" fill="#4a749b"/><g><path d="m89.52624 37.36235c0 13.57861-11.00604 35.84626-24.58466 35.84626s-24.58465-22.26765-24.58465-35.84626c0-13.57898 11.00605-24.58503 24.58466-24.58503s24.58465 11.00605 24.58465 24.58503z" fill="#386384"/><g fill="#ffbf9c"><path d="m89.88737 52.07724c0 2.70742-2.19398 4.92533-4.92534 4.92533-2.73079 0-4.94813-2.21791-4.94813-4.92533 0-2.73136 2.21734-4.9487 4.94813-4.9487 2.73137 0 4.92534 2.21734 4.92534 4.9487z"/><path d="m49.98606 52.07724c0 2.70742-2.19398 4.92533-4.92533 4.92533-2.73079 0-4.94814-2.21791-4.94814-4.92533 0-2.73136 2.21734-4.9487 4.94814-4.9487 2.73135 0 4.92533 2.21734 4.92533 4.9487z"/></g><path d="m85.32024 47.65676c-.37591 16.2345-9.34761 29.23938-20.3699 29.23938-11.26177 0-20.38742-13.56853-20.38742-30.29868 0-.01606.00001-.03212.00003-.04818.0027-2.53274 2.17172-4.52406 4.7012-4.39547 4.49572.22856 10.27018.3101 13.75493-.47819 2.20715-.49633 5.09879-1.86565 7.9254-3.43606 4.9513-2.75084 11.13086-.24642 12.75817 5.17892.48009 1.60059 1.02169 3.08651 1.61759 4.23828z" fill="#ffceab"/><g><path d="m65.2891 69.6665c-1.23369 0-2.45549-.30396-3.57473-.90223-.37011-.19843-.50982-.65995-.31065-1.03005.19917-.3716.66292-.50834 1.03006-.31214 1.42989.76623 3.07233.92899 4.62411.45855 1.55177-.4697 2.82856-1.51611 3.59405-2.94525.19769-.37234.66143-.50834 1.03005-.31213.37011.19843.50983.65995.31065 1.03005-.95722 1.78811-2.55359 3.09686-4.49479 3.68398-.72684.21997-1.47003.32922-2.20875.32922z" fill="#ffbf9c"/></g><g fill="#386384"><path d="m85.6993 35.77975v19.52493h-.94788c-1.3783 0-2.49868-1.11996-2.49868-2.49868v-17.02625z"/><path d="m44.30362 35.77975v19.52493h.94789c1.37829 0 2.49867-1.11996 2.49867-2.49868v-17.02625z"/></g><g fill="#2f4867"><path d="m74.98469 51.39987c0 1.27426-1.03876 2.31349-2.3135 2.31349-1.27426 0-2.31349-1.03923-2.31349-2.31349 0-1.27474 1.03923-2.31397 2.31349-2.31397 1.27474 0 2.3135 1.03923 2.3135 2.31397z"/><path d="m76.26606 47.50928c0 .25002-.19995.45028-.44997.45028h-6.2895c-.25002 0-.45028-.20026-.45028-.45028s.20026-.46249.45028-.46249h6.2895c.25002.00001.44997.21248.44997.46249z"/><path d="m59.52547 51.39987c0 1.27426-1.03875 2.31349-2.3135 2.31349-1.27426 0-2.31349-1.03923-2.31349-2.31349 0-1.27474 1.03923-2.31397 2.31349-2.31397 1.27475 0 2.3135 1.03923 2.3135 2.31397z"/><path d="m60.80685 47.50928c0 .25002-.19995.45028-.44997.45028h-6.2895c-.25002 0-.45028-.20026-.45028-.45028s.20026-.46249.45028-.46249h6.2895c.25002.00001.44997.21248.44997.46249z"/></g></g></g><path d="m56.46294 124.39037.32007 4.09009c-.66992-.09009-1.34009-.18005-2.01001-.29004-.09009-.01001-.17993-.03003-.28003-.05005-.23999-.04004-.46997-.07996-.70996-.11987-.32007-.05005-.62988-.11011-.94995-.18005-.09009-.01001-.17017-.03003-.26001-.05005-.27002-.04993-.55005-.10999-.83008-.17004-.30005-.05994-.60986-.12988-.91992-.19995l-1.39014-4.46997c2.29004.61998 4.64014 1.09996 7.03003 1.43993z" fill="#386384"/><path d="m80.56303 122.95042-1.38989 4.47998c-.58008.13-1.16016.25-1.74023.35999-.63989.13-1.27979.25-1.91992.34998-.08984.02002-.18994.03003-.29004.05005-.66992.10999-1.33984.19995-2.01001.29004l.32007-4.09009c2.39013-.33997 4.73998-.81995 7.03002-1.43995z" fill="#386384"/><path d="m61.51188 59.01878c.57888 3.20378 6.28054 3.20378 6.85942 0-2.28606.74131-4.57253.74131-6.85942 0z" fill="#ffbf9c"/></g></svg>