<svg xmlns="http://www.w3.org/2000/svg" xmlns:xlink="http://www.w3.org/1999/xlink" width="155" height="155" viewBox="0 0 155 155"><defs><style>.a{fill:#fff;}.b{fill:url(#c);}.c{filter:url(#a);}</style><filter id="a" x="0" y="0" width="155" height="155" filterUnits="userSpaceOnUse"><feOffset input="SourceAlpha"/><feGaussianBlur stdDeviation="10" result="b"/><feFlood flood-opacity="0.102"/><feComposite operator="in" in2="b"/><feComposite in="SourceGraphic"/></filter><linearGradient id="c" x1="0.5" x2="0.5" y2="1" gradientUnits="objectBoundingBox"><stop offset="0" stop-color="#ff767a"/><stop offset="1" stop-color="#5e53fa"/></linearGradient></defs><g transform="translate(-875 -2145)"><g class="c" transform="matrix(1, 0, 0, 1, 875, 2145)"><rect class="a" width="95" height="95" rx="15" transform="translate(30 30)"/></g><g transform="translate(923 2194.75)"><path class="b" d="M3.929,47.393H5.893V45.429H3.929a1.964,1.964,0,0,1-1.964-1.964V4.179A1.964,1.964,0,0,1,3.929,2.214H47.143a1.964,1.964,0,0,1,1.964,1.964V6.143h1.964V4.179A3.929,3.929,0,0,0,47.143.25H3.929A3.929,3.929,0,0,0,0,4.179V43.464A3.929,3.929,0,0,0,3.929,47.393Zm0,0"/><path class="b" d="M62.5,62.75h1.964v1.964H62.5Zm0,0" transform="translate(-58.571 -58.571)"/><path class="b" d="M125,62.75h1.964v1.964H125Zm0,0" transform="translate(-117.143 -58.571)"/><path class="b" d="M187.5,62.75h1.964v1.964H187.5Zm0,0" transform="translate(-175.714 -58.571)"/><path class="b" d="M125,168.464a3.929,3.929,0,0,0,3.929,3.929h43.214a3.929,3.929,0,0,0,3.929-3.929V129.179a3.929,3.929,0,0,0-3.929-3.929H128.929A3.929,3.929,0,0,0,125,129.179Zm1.964-39.286a1.964,1.964,0,0,1,1.964-1.964h43.214a1.964,1.964,0,0,1,1.964,1.964v39.286a1.964,1.964,0,0,1-1.964,1.964H128.929a1.964,1.964,0,0,1-1.964-1.964Zm0,0" transform="translate(-117.143 -117.143)"/><path class="b" d="M187.5,187.75h1.964v1.964H187.5Zm0,0" transform="translate(-175.714 -175.714)"/><path class="b" d="M250,187.75h1.964v1.964H250Zm0,0" transform="translate(-234.286 -175.714)"/><path class="b" d="M312.5,187.75h1.964v1.964H312.5Zm0,0" transform="translate(-292.857 -175.714)"/><path class="b" d="M187.5,250.25h43.214v1.964H187.5Zm0,0" transform="translate(-175.714 -234.286)"/><path class="b" d="M187.5,328.375h7.857v1.964H187.5Zm0,0" transform="translate(-175.714 -307.5)"/><path class="b" d="M187.5,390.875h5.893v1.964H187.5Zm0,0" transform="translate(-175.714 -366.071)"/><path class="b" d="M428.75,453.375a6.875,6.875,0,1,0,6.875,6.875A6.875,6.875,0,0,0,428.75,453.375Zm0,11.786a4.911,4.911,0,1,1,4.911-4.911A4.911,4.911,0,0,1,428.75,465.161Zm0,0" transform="translate(-395.357 -424.643)"/><path class="b" d="M312.679,325.518a.982.982,0,0,0-.982-.982h-2.6a12.49,12.49,0,0,0-.777-1.876l1.836-1.834a.983.983,0,0,0,0-1.389l-4.167-4.167a.983.983,0,0,0-1.389,0l-1.834,1.835a12.7,12.7,0,0,0-1.876-.776v-2.6a.982.982,0,0,0-.982-.982h-5.893a.982.982,0,0,0-.982.982v2.6a12.7,12.7,0,0,0-1.876.776l-1.834-1.835a.983.983,0,0,0-1.389,0l-4.167,4.167a.983.983,0,0,0,0,1.389l1.835,1.834c-.082.161-.161.322-.236.485a12.707,12.707,0,0,0-.54,1.391h-2.6a.982.982,0,0,0-.982.982v5.893a.982.982,0,0,0,.982.982h2.6a12.487,12.487,0,0,0,.777,1.876l-1.836,1.834a.983.983,0,0,0,0,1.389l4.167,4.167a.983.983,0,0,0,1.389,0l1.834-1.835a12.7,12.7,0,0,0,1.876.776v2.6a.982.982,0,0,0,.982.982h5.893a.982.982,0,0,0,.982-.982v-2.6a12.7,12.7,0,0,0,1.876-.776l1.834,1.835a.983.983,0,0,0,1.389,0l4.167-4.167a.983.983,0,0,0,0-1.389l-1.836-1.834a12.491,12.491,0,0,0,.777-1.876h2.6a.982.982,0,0,0,.982-.982Zm-1.964,4.911h-2.351a.982.982,0,0,0-.951.737,10.738,10.738,0,0,1-1.149,2.777.983.983,0,0,0,.151,1.193l1.661,1.661-2.778,2.779-1.661-1.662a.982.982,0,0,0-1.194-.151,10.729,10.729,0,0,1-2.777,1.149.982.982,0,0,0-.737.951v2.351H295v-2.351a.982.982,0,0,0-.737-.951,10.729,10.729,0,0,1-2.777-1.149.982.982,0,0,0-1.194.151l-1.661,1.662-2.778-2.779,1.661-1.661a.983.983,0,0,0,.151-1.193,10.738,10.738,0,0,1-1.149-2.777.982.982,0,0,0-.951-.737h-2.351V326.5h2.351a.982.982,0,0,0,.951-.737,10.668,10.668,0,0,1,.639-1.8,10.849,10.849,0,0,1,.511-.982.983.983,0,0,0-.151-1.193l-1.661-1.662,2.778-2.779,1.661,1.662a.982.982,0,0,0,1.194.15,10.741,10.741,0,0,1,2.777-1.149.982.982,0,0,0,.737-.95v-2.348h3.929v2.351a.982.982,0,0,0,.737.951,10.726,10.726,0,0,1,2.777,1.149.982.982,0,0,0,1.194-.151l1.661-1.662,2.778,2.779-1.661,1.661a.983.983,0,0,0-.151,1.193,10.739,10.739,0,0,1,1.149,2.777.982.982,0,0,0,.951.737h2.351Zm0,0" transform="translate(-263.571 -292.857)"/><path class="b" d="M781.25,781.5h5.893v1.964H781.25Zm0,0" transform="translate(-732.143 -732.143)"/></g></g></svg>