<svg width="45" height="45" viewBox="0 0 45 45" fill="none" xmlns="http://www.w3.org/2000/svg">
<path fill-rule="evenodd" clip-rule="evenodd" d="M1.54297 41.4996V7.8726C1.54297 7.05766 2.2006 6.39258 3.00641 6.39258H41.9917C42.7975 6.39258 43.4551 7.05766 43.4551 7.8726V41.4996H1.54297Z" fill="#92D2FE"/>
<path fill-rule="evenodd" clip-rule="evenodd" d="M4.47266 35.597H40.531V2.03568C40.531 1.22075 39.8734 0.555664 39.0676 0.555664H5.9361C5.13029 0.555664 4.47266 1.22075 4.47266 2.03568V35.597Z" fill="#FBF3F3"/>
<path fill-rule="evenodd" clip-rule="evenodd" d="M40.531 6.39249V2.03568C40.531 1.22075 39.8734 0.555664 39.0676 0.555664H5.9361C5.13029 0.555664 4.47266 1.22075 4.47266 2.03568V6.39249H40.531Z" fill="#FF5A5A"/>
<path fill-rule="evenodd" clip-rule="evenodd" d="M0.546875 38.5488H16.9448V39.1048C16.9448 40.0779 17.7323 40.8743 18.6945 40.8743H26.3035C27.2657 40.8743 28.0532 40.0779 28.0532 39.1048V38.5488H44.4511V41.4968C44.4511 43.1184 43.1395 44.4449 41.5361 44.4449H3.46187C1.85849 44.4449 0.546875 43.1184 0.546875 41.4968V38.5488Z" fill="#898890"/>
<path d="M33.8015 21.3667C36.9181 20.0602 38.3973 16.4461 37.1055 13.2942C35.8137 10.1424 32.24 8.64639 29.1235 9.95283C26.0069 11.2593 24.5277 14.8734 25.8195 18.0253C27.1113 21.1771 30.685 22.6731 33.8015 21.3667Z" fill="#2FB1D4"/>
<path fill-rule="evenodd" clip-rule="evenodd" d="M31.4531 9.49219C34.8254 9.49219 37.5603 12.257 37.5603 15.6685H31.4531V9.49219Z" fill="#FF5A5A"/>
<path fill-rule="evenodd" clip-rule="evenodd" d="M37.5603 15.6689C37.5584 17.5846 36.6785 19.4726 35.0248 20.6788L31.4531 15.6689H32.5297H37.5603Z" fill="#FFB54C"/>
<path fill-rule="evenodd" clip-rule="evenodd" d="M14.9844 28.3682H18.9238V32.9914H14.9844V28.3682Z" fill="#FF5A5A"/>
<path fill-rule="evenodd" clip-rule="evenodd" d="M11.0469 23.4717H14.9863V32.991H11.0469V23.4717Z" fill="#A5DC69"/>
<path fill-rule="evenodd" clip-rule="evenodd" d="M7.10547 26.3867H11.0449V32.9932H7.10547V26.3867Z" fill="#2FB1D4"/>
<path fill-rule="evenodd" clip-rule="evenodd" d="M35.741 3.47435C35.741 3.83233 35.4547 4.12185 35.1007 4.12185C34.7477 4.12185 34.4605 3.83233 34.4605 3.47435C34.4605 3.11729 34.7477 2.82684 35.1007 2.82684C35.4547 2.82591 35.741 3.11637 35.741 3.47435ZM32.4674 3.47435C32.4674 3.83233 32.1811 4.12185 31.8272 4.12185C31.4732 4.12185 31.1869 3.83233 31.1869 3.47435C31.1869 3.11729 31.4732 2.82684 31.8272 2.82684C32.1811 2.82591 32.4674 3.11637 32.4674 3.47435ZM29.1948 3.47435C29.1948 3.83233 28.9085 4.12185 28.5545 4.12185C28.2006 4.12185 27.9143 3.83233 27.9143 3.47435C27.9143 3.11729 28.2006 2.82684 28.5545 2.82684C28.9076 2.82591 29.1948 3.11637 29.1948 3.47435ZM11.4377 40.9734C11.5704 41.1075 11.6527 41.2935 11.6527 41.4979C11.6527 41.7023 11.5713 41.8873 11.4377 42.0215C11.3051 42.1556 11.1222 42.2388 10.92 42.2388C10.7179 42.2388 10.535 42.1556 10.4023 42.0215C10.2697 41.8873 10.1874 41.7023 10.1874 41.4979C10.1874 41.2935 10.2697 41.1075 10.4023 40.9734C10.535 40.8393 10.7179 40.757 10.92 40.757C11.1213 40.756 11.3051 40.8384 11.4377 40.9734ZM8.97915 40.9734C9.11177 41.1075 9.19409 41.2935 9.19409 41.4979C9.19409 41.7023 9.11177 41.8873 8.97915 42.0215C8.84652 42.1556 8.66359 42.2388 8.46054 42.2388C8.2584 42.2388 8.07547 42.1556 7.94284 42.0215C7.81022 41.8873 7.7279 41.7023 7.7279 41.4979C7.7279 41.2935 7.81022 41.1075 7.94284 40.9734C8.07547 40.8393 8.2584 40.757 8.46054 40.757C8.66359 40.756 8.84652 40.8384 8.97915 40.9734ZM6.52147 40.9734C6.6541 41.1075 6.73642 41.2935 6.73642 41.4979C6.73642 41.7023 6.6541 41.8873 6.52147 42.0215C6.38885 42.1556 6.20592 42.2388 6.00378 42.2388C5.80164 42.2388 5.61871 42.1556 5.48609 42.0215C5.35346 41.8873 5.27114 41.7023 5.27114 41.4979C5.27114 41.2935 5.35346 41.1075 5.48609 40.9734C5.61871 40.8393 5.80164 40.757 6.00378 40.757C6.20592 40.756 6.38885 40.8384 6.52147 40.9734ZM38.4794 42.0215C38.3468 41.8873 38.2654 41.7023 38.2654 41.4979C38.2654 41.2935 38.3468 41.1075 38.4794 40.9734C38.6121 40.8393 38.795 40.757 38.9971 40.757C39.1993 40.757 39.3822 40.8393 39.5148 40.9734C39.6475 41.1075 39.7298 41.2935 39.7298 41.4979C39.7298 41.7023 39.6475 41.8873 39.5148 42.0215C39.3822 42.1556 39.1993 42.2388 38.9971 42.2388C38.795 42.2379 38.6121 42.1547 38.4794 42.0215ZM36.0209 42.0215C35.8882 41.8873 35.8059 41.7023 35.8059 41.4979C35.8059 41.2935 35.8882 41.1075 36.0209 40.9734C36.1535 40.8393 36.3364 40.757 36.5395 40.757C36.7416 40.757 36.9245 40.8393 37.0572 40.9734C37.1898 41.1075 37.2721 41.2935 37.2721 41.4979C37.2721 41.7023 37.1898 41.8873 37.0572 42.0215C36.9245 42.1556 36.7416 42.2388 36.5395 42.2388C36.3373 42.2379 36.1535 42.1547 36.0209 42.0215ZM33.5632 42.0215C33.4306 41.8873 33.3482 41.7023 33.3482 41.4979C33.3482 41.2935 33.4306 41.1075 33.5632 40.9734C33.6958 40.8393 33.8787 40.757 34.0809 40.757C34.283 40.757 34.4659 40.8393 34.5986 40.9734C34.7312 41.1075 34.8135 41.2935 34.8135 41.4979C34.8135 41.7023 34.7321 41.8873 34.5986 42.0215C34.4659 42.1556 34.283 42.2388 34.0809 42.2388C33.8787 42.2379 33.6958 42.1547 33.5632 42.0215ZM21.4953 16.5133C21.4953 16.8195 21.2492 17.0683 20.9465 17.0683H11.735C11.4322 17.0683 11.1862 16.8195 11.1862 16.5133C11.1862 16.2062 11.4322 15.9583 11.735 15.9583H20.9465C21.2501 15.9574 21.4953 16.2062 21.4953 16.5133ZM6.54891 16.5133C6.54891 16.2062 6.79495 15.9583 7.0977 15.9583H8.81359C9.11634 15.9583 9.36238 16.2062 9.36238 16.5133C9.36238 16.8195 9.11634 17.0683 8.81359 17.0683H7.0977C6.79404 17.0674 6.54891 16.8195 6.54891 16.5133ZM21.4953 13.224C21.4953 13.5302 21.2492 13.779 20.9465 13.779H11.735C11.4322 13.779 11.1862 13.5302 11.1862 13.224C11.1862 12.9169 11.4322 12.669 11.735 12.669H20.9465C21.2501 12.6699 21.4953 12.9178 21.4953 13.224ZM6.54891 13.224C6.54891 12.9169 6.79495 12.669 7.0977 12.669H8.81359C9.11634 12.669 9.36238 12.9169 9.36238 13.224C9.36238 13.5302 9.11634 13.779 8.81359 13.779H7.0977C6.79404 13.7799 6.54891 13.5311 6.54891 13.224ZM6.54891 9.93463C6.54891 9.62845 6.79495 9.37963 7.0977 9.37963H8.81359C9.11634 9.37963 9.36238 9.62845 9.36238 9.93463C9.36238 10.2417 9.11634 10.4896 8.81359 10.4896H7.0977C6.79404 10.4896 6.54891 10.2427 6.54891 9.93463ZM21.4953 9.93463C21.4953 10.2417 21.2492 10.4896 20.9465 10.4896H11.735C11.4322 10.4896 11.1862 10.2417 11.1862 9.93463C11.1862 9.62845 11.4322 9.37963 11.735 9.37963H20.9465C21.2501 9.37963 21.4953 9.62938 21.4953 9.93463ZM36.8989 32.2145C36.8989 32.5207 36.6529 32.7695 36.3501 32.7695H22.5005C22.1977 32.7695 21.9517 32.5207 21.9517 32.2145C21.9517 31.9074 22.1977 31.6595 22.5005 31.6595H36.3501C36.6529 31.6595 36.8989 31.9083 36.8989 32.2145ZM36.8989 28.9261C36.8989 29.2332 36.6529 29.4811 36.3501 29.4811H22.5005C22.1977 29.4811 21.9517 29.2332 21.9517 28.9261C21.9517 28.6199 22.1977 28.3711 22.5005 28.3711H36.3501C36.6529 28.3701 36.8989 28.6199 36.8989 28.9261ZM21.9517 25.6367C21.9517 25.3305 22.1977 25.0817 22.5005 25.0817H28.1183C28.421 25.0817 28.667 25.3305 28.667 25.6367C28.667 25.9438 28.421 26.1917 28.1183 26.1917H22.5005C22.1977 26.1917 21.9517 25.9447 21.9517 25.6367ZM18.3772 32.4365H15.5354V28.9233H18.3772V32.4365ZM14.4369 32.4365H11.5951V24.0272H14.4369V32.4365ZM7.65473 26.9401H10.4966V32.4365H7.65473V26.9401ZM18.926 27.8133H15.5354V23.4722C15.5354 23.166 15.2893 22.9172 14.9866 22.9172H11.0472C10.7444 22.9172 10.4984 23.166 10.4984 23.4722V25.83H7.10594C6.80319 25.83 6.55715 26.0789 6.55715 26.3851V32.9915C6.55715 33.2977 6.80319 33.5465 7.10594 33.5465H18.9251C19.2287 33.5465 19.4739 33.2977 19.4739 32.9915V28.3683C19.4748 28.0612 19.2287 27.8133 18.926 27.8133ZM24.9819 3.47435C24.9819 3.78145 24.7359 4.02935 24.4331 4.02935H8.59042C8.28767 4.02935 8.04163 3.78145 8.04163 3.47435C8.04163 3.16817 8.28767 2.91934 8.59042 2.91934H24.4331C24.7359 2.91934 24.9819 3.16724 24.9819 3.47435ZM35.1318 19.8785L32.5269 16.2238H36.9849C36.844 17.6733 36.1544 18.9628 35.1318 19.8785ZM25.8966 15.6679C25.8966 18.7676 28.3899 21.2892 31.4549 21.2892C32.4702 21.2892 33.4223 21.0107 34.2428 20.5279L31.0104 15.9925H31.0113C30.9464 15.901 30.907 15.789 30.907 15.6679V10.0743C28.0972 10.3546 25.8966 12.7559 25.8966 15.6679ZM36.9849 15.1129H32.0028V10.0743C34.6306 10.3361 36.726 12.4562 36.9849 15.1129ZM31.454 8.93654C27.7844 8.93654 24.7981 11.9567 24.7981 15.6679C24.7981 19.3799 27.7835 22.3992 31.454 22.3992C35.1236 22.3992 38.1099 19.3799 38.1099 15.6679C38.1099 11.9576 35.1236 8.93654 31.454 8.93654ZM43.9033 41.497V39.104H28.603V39.1049C28.603 40.386 27.5722 41.4295 26.3045 41.4295H18.6964C17.4287 41.4295 16.3979 40.386 16.3979 39.1049V39.104H1.09758V41.497C1.09758 42.816 2.1595 43.89 3.46379 43.89H41.5362C42.8414 43.89 43.9033 42.816 43.9033 41.497ZM2.09273 7.87278V37.994H16.9458C17.2485 37.994 17.4946 38.2419 17.4946 38.549V39.1049C17.4946 39.7746 18.0333 40.3194 18.6955 40.3194H26.3045C26.9667 40.3194 27.5054 39.7746 27.5054 39.1049V38.549C27.5054 38.2419 27.7515 37.994 28.0542 37.994H42.9073V7.87278C42.9073 7.36217 42.4975 6.94684 41.9926 6.94684H41.078V35.5963C41.078 35.9034 40.8319 36.1513 40.5292 36.1513H4.47082C4.16807 36.1513 3.92203 35.9034 3.92203 35.5963V6.94777H3.00738C2.5034 6.94777 2.09273 7.3631 2.09273 7.87278ZM5.01961 6.94777V35.0422H39.9804V6.94777H5.01961ZM5.01961 2.03595V5.83775H39.9804V2.03595C39.9804 1.52627 39.5697 1.11094 39.0657 1.11094H5.93427C5.43029 1.11094 5.01961 1.52627 5.01961 2.03595ZM44.4521 37.9949H44.0058V7.87278C44.0058 6.74982 43.103 5.83683 41.9935 5.83683H41.0789V2.03503C41.0789 0.912987 40.1761 0 39.0666 0H5.93427C4.82479 0 3.92203 0.912987 3.92203 2.03503V5.83683H3.00738C1.8979 5.83683 0.995142 6.74982 0.995142 7.87278V37.994H0.548792C0.246042 37.994 0 38.2419 0 38.549V41.497C0 43.4284 1.554 45 3.46379 45H41.5362C43.446 45 45 43.4284 45 41.497V38.549C45.0009 38.2419 44.7549 37.9949 44.4521 37.9949Z" fill="#222124"/>
</svg>
