<svg width="45" height="45" viewBox="0 0 45 45" fill="none" xmlns="http://www.w3.org/2000/svg">
<path d="M6.11431 8.93164L0.808594 11.6006V16.9245L6.11431 19.5935L11.42 16.9245V11.6006L6.11431 8.93164Z" fill="#9BD2F2"/>
<path d="M6.11431 14.2696L0.808594 11.6006V16.9245L6.11431 19.5935L11.42 16.9245V11.6006L6.11431 14.2696Z" fill="#7CC9F2"/>
<path d="M0.808594 11.6006V16.9245L6.11431 19.5935V14.2696L0.808594 11.6006Z" fill="#6AB8DE"/>
<path d="M6.11431 25.3838L0.808594 28.0528V33.3767L6.11431 36.0457L11.42 33.3767V28.0528L6.11431 25.3838Z" fill="#9BD2F2"/>
<path d="M6.11431 30.7217L0.808594 28.0527V33.3766L6.11431 36.0456L11.42 33.3766V28.0527L6.11431 30.7217Z" fill="#7CC9F2"/>
<path d="M0.808594 28.0527V33.3766L6.11431 36.0456V30.7217L0.808594 28.0527Z" fill="#6AB8DE"/>
<path d="M38.8878 8.93164L33.582 11.6006V16.9245L38.8878 19.5935L44.1935 16.9245V11.6006L38.8878 8.93164Z" fill="#9BD2F2"/>
<path d="M38.8878 14.2696L33.582 11.6006V16.9245L38.8878 19.5935L44.1935 16.9245V11.6006L38.8878 14.2696Z" fill="#7CC9F2"/>
<path d="M33.582 11.6006V16.9245L38.8878 19.5935V14.2696L33.582 11.6006Z" fill="#6AB8DE"/>
<path d="M22.501 0.703125L17.1953 3.37211V8.69602L22.501 11.365L27.8068 8.69602V3.37211L22.501 0.703125Z" fill="#9BD2F2"/>
<path d="M22.501 6.04106L17.1953 3.37207V8.69598L22.501 11.365L27.8068 8.69598V3.37207L22.501 6.04106Z" fill="#7CC9F2"/>
<path d="M17.1953 3.37207V8.69598L22.501 11.365V6.04106L17.1953 3.37207Z" fill="#6AB8DE"/>
<path d="M22.501 33.6338L17.1953 36.3028V41.6267L22.501 44.2957L27.8068 41.6267V36.3028L22.501 33.6338Z" fill="#9BD2F2"/>
<path d="M22.501 38.9717L17.1953 36.3027V41.6266L22.501 44.2956L27.8068 41.6266V36.3027L22.501 38.9717Z" fill="#7CC9F2"/>
<path d="M17.1953 36.3027V41.6266L22.501 44.2956V38.9717L17.1953 36.3027Z" fill="#6AB8DE"/>
<path d="M38.8878 25.3838L33.582 28.0528V33.3767L38.8878 36.0457L44.1935 33.3767V28.0528L38.8878 25.3838Z" fill="#9BD2F2"/>
<path d="M38.8878 30.7217L33.582 28.0527V33.3766L38.8878 36.0456L44.1935 33.3766V28.0527L38.8878 30.7217Z" fill="#7CC9F2"/>
<path d="M33.582 28.0527V33.3766L38.8878 36.0456V30.7217L33.582 28.0527Z" fill="#6AB8DE"/>
<path d="M28.2335 26.5205C27.149 27.6991 25.6209 28.5054 23.9197 28.7966C22.2185 29.0878 20.4538 28.8453 18.9381 28.1118C17.4225 27.3784 16.2535 26.2014 15.6382 24.7892C15.0229 23.3769 15.0009 21.8206 15.5761 20.3956C16.1513 18.9706 17.2867 17.7689 18.7812 17.0031C20.2756 16.2374 22.0329 15.9571 23.7418 16.2117C25.4508 16.4664 27.0012 17.2396 28.1186 18.3945C29.2361 19.5495 29.8485 21.0116 29.8475 22.5222C29.8473 23.9762 29.278 25.3866 28.2335 26.5205Z" fill="#1FC091"/>
<path d="M28.2087 35.6939L22.9029 33.0258C22.7803 32.9641 22.6411 32.9316 22.4994 32.9316C22.3578 32.9316 22.2186 32.9641 22.0959 33.0258L16.7902 35.6939C16.6675 35.7557 16.5657 35.8446 16.4948 35.9515C16.424 36.0585 16.3867 36.1798 16.3867 36.3032V41.6243C16.3867 41.7478 16.424 41.8691 16.4948 41.9761C16.5657 42.083 16.6675 42.1719 16.7902 42.2337L22.0959 44.9055C22.2185 44.9675 22.3577 45.0001 22.4994 45.0001C22.6412 45.0001 22.7804 44.9675 22.9029 44.9055L28.2087 42.2374C28.3313 42.1756 28.4332 42.0868 28.504 41.9798C28.5748 41.8729 28.6121 41.7516 28.6121 41.6281V36.3032C28.6121 36.1798 28.5748 36.0585 28.504 35.9515C28.4332 35.8446 28.3313 35.7557 28.2087 35.6939ZM22.5005 34.4461L26.1922 36.3032L22.5005 38.1604L18.8088 36.3032L22.5005 34.4461ZM18.0018 37.521L21.6924 39.3744V43.0746L18.0007 41.2212L18.0018 37.521ZM26.9982 41.2212L23.3064 43.0784V39.3744L26.9982 37.5173V41.2212Z" fill="black"/>
<path d="M16.7902 9.30581L22.0959 11.9739C22.2185 12.0358 22.3577 12.0685 22.4994 12.0685C22.6412 12.0685 22.7804 12.0358 22.9029 11.9739L28.2087 9.30581C28.3313 9.24398 28.4332 9.15514 28.504 9.04818C28.5748 8.94123 28.6121 8.81993 28.6121 8.69645V3.37535C28.6121 3.25187 28.5748 3.13057 28.504 3.02362C28.4332 2.91666 28.3313 2.82782 28.2087 2.766L22.9029 0.0941982C22.7803 0.0324878 22.6411 0 22.4994 0C22.3578 0 22.2186 0.0324878 22.0959 0.0941982L16.7902 2.76318C16.6675 2.825 16.5657 2.91385 16.4948 3.02081C16.424 3.12776 16.3867 3.24906 16.3867 3.37254V8.69645C16.3867 8.81993 16.424 8.94123 16.4948 9.04818C16.5657 9.15514 16.6675 9.24398 16.7902 9.30581ZM18.0007 4.59407L21.6924 6.4512V10.1514L18.0007 8.29052V4.59407ZM26.9982 8.29052L23.3064 10.1477V6.44745L26.9982 4.59407V8.29052ZM22.5005 1.51541L26.1912 3.37535L22.5005 5.22967L18.8077 3.37535L22.5005 1.51541Z" fill="black"/>
<path d="M33.1496 17.5313L38.4553 20.2003C38.5779 20.2622 38.7171 20.2949 38.8588 20.2949C39.0006 20.2949 39.1398 20.2622 39.2623 20.2003L44.5702 17.5313C44.6929 17.4698 44.7949 17.3811 44.8657 17.2743C44.9366 17.1675 44.9738 17.0462 44.9737 16.9229V11.5943C44.9737 11.4708 44.9364 11.3495 44.8656 11.2425C44.7947 11.1356 44.6929 11.0467 44.5702 10.9849L39.2645 8.31685C39.1418 8.25514 39.0026 8.22266 38.861 8.22266C38.7193 8.22266 38.5802 8.25514 38.4575 8.31685L33.1496 10.9849C33.0269 11.0467 32.9251 11.1356 32.8542 11.2425C32.7834 11.3495 32.7461 11.4708 32.7461 11.5943V16.9182C32.745 17.0423 32.7818 17.1645 32.8527 17.2722C32.9236 17.38 33.0261 17.4694 33.1496 17.5313ZM34.3601 12.8167L38.0518 14.6739V18.3741L34.3601 16.5169V12.8167ZM43.3576 16.5169L39.6658 18.3741V14.6692L43.3576 12.812V16.5169ZM38.8588 9.74181L42.5506 11.5989L38.8588 13.4561L35.1671 11.5989L38.8588 9.74181Z" fill="black"/>
<path d="M11.8508 10.9829L6.53965 8.3149C6.41697 8.25319 6.27781 8.2207 6.13615 8.2207C5.9945 8.2207 5.85533 8.25319 5.73266 8.3149L0.426935 10.9829C0.304254 11.0448 0.202392 11.1336 0.131569 11.2406C0.0607471 11.3475 0.0234559 11.4688 0.0234378 11.5923V16.9162C0.0233173 17.0396 0.0605598 17.1608 0.131405 17.2676C0.202251 17.3745 0.304191 17.4631 0.426935 17.5246L5.73266 20.1946C5.85544 20.256 5.99456 20.2883 6.13615 20.2883C6.27775 20.2883 6.41687 20.256 6.53965 20.1946L11.8508 17.5246C11.9735 17.4631 12.0754 17.3745 12.1463 17.2676C12.2171 17.1608 12.2544 17.0396 12.2542 16.9162V11.5923C12.2542 11.4688 12.2169 11.3475 12.1461 11.2406C12.0753 11.1336 11.9734 11.0448 11.8508 10.9829ZM6.13615 9.73517L9.82789 11.5923L6.13615 13.4494L2.44442 11.5923L6.13615 9.73517ZM1.63743 12.8101L5.32916 14.6672V18.3674L1.63743 16.5103V12.8101ZM10.6349 16.5103L6.94315 18.3674V14.6672L10.6349 12.8101V16.5103Z" fill="black"/>
<path d="M44.5968 27.4429L39.2857 24.7739C39.1631 24.7122 39.0239 24.6797 38.8822 24.6797C38.7406 24.6797 38.6014 24.7122 38.4787 24.7739L33.173 27.4429C33.0504 27.5045 32.9485 27.5931 32.8776 27.6999C32.8068 27.8067 32.7695 27.9279 32.7695 28.0513V33.3743C32.7695 33.4976 32.8068 33.6188 32.8776 33.7256C32.9485 33.8324 33.0504 33.9211 33.173 33.9827L38.4831 36.6554C38.6056 36.7174 38.7448 36.7501 38.8866 36.7501C39.0283 36.7501 39.1675 36.7174 39.29 36.6554L44.5968 33.9864C44.7195 33.9248 44.8214 33.8362 44.8922 33.7294C44.9631 33.6226 45.0004 33.5014 45.0003 33.378V28.0532C45.0007 27.9295 44.9636 27.8079 44.8928 27.7008C44.8219 27.5936 44.7198 27.5046 44.5968 27.4429ZM38.8866 26.1951L42.5794 28.0513L38.8866 29.9056L35.197 28.0513L38.8866 26.1951ZM34.3878 29.27L38.0796 31.1243V34.8236L34.3878 32.9665V29.27ZM43.3864 32.9693L39.6935 34.8264V31.1243L43.3864 29.2672V32.9693Z" fill="black"/>
<path d="M11.823 27.4429L6.51729 24.7749C6.39461 24.7132 6.25545 24.6807 6.11379 24.6807C5.97213 24.6807 5.83297 24.7132 5.71029 24.7749L0.403498 27.4429C0.280816 27.5047 0.178954 27.5936 0.108132 27.7005C0.0373096 27.8075 1.84363e-05 27.9288 2.91493e-07 28.0523V33.3743C-0.00012021 33.4977 0.0371223 33.6189 0.107968 33.7257C0.178813 33.8325 0.280754 33.9212 0.403498 33.9827L5.7146 36.6555C5.83717 36.7174 5.97637 36.7501 6.1181 36.7501C6.25982 36.7501 6.39902 36.7174 6.52159 36.6555L11.8273 33.9865C11.9501 33.9249 12.052 33.8363 12.1228 33.7295C12.1937 33.6226 12.2309 33.5014 12.2308 33.3781V28.0523C12.2304 27.9284 12.1924 27.8069 12.1208 27.6999C12.0492 27.5929 11.9465 27.5043 11.823 27.4429ZM6.11379 26.1951L9.80337 28.0523L6.11379 29.9057L2.42098 28.0495L6.11379 26.1951ZM1.61399 29.27L2.18104 29.5513L5.3068 31.1244V34.8274L1.61399 32.9702V29.27ZM6.92079 34.8274V31.1244L10.0412 29.5522L10.6082 29.271V32.9712L6.92079 34.8274Z" fill="black"/>
<path d="M28.7988 18.2592V18.2526C28.7902 18.2404 28.7773 18.2339 28.7687 18.2226C28.0226 17.3922 27.069 16.721 25.9804 16.2598C24.8919 15.7987 23.697 15.5599 22.4866 15.5615C21.2762 15.5632 20.0822 15.8052 18.9952 16.2692C17.9083 16.7333 16.9571 17.4071 16.214 18.2395C16.2103 18.2443 16.2059 18.2487 16.2011 18.2526C15.1065 19.47 14.5117 20.9717 14.5117 22.5181C14.5117 24.0645 15.1065 25.5663 16.2011 26.7836L16.2118 26.794C16.9522 27.6229 17.8985 28.2947 18.9798 28.7591C20.0611 29.2235 21.2491 29.4683 22.4545 29.475C23.66 29.4818 24.8516 29.2504 25.9396 28.7982C27.0276 28.346 27.9839 27.6848 28.7364 26.8643C29.8594 25.645 30.4768 24.131 30.4885 22.5678C30.5002 21.0045 29.9055 19.4836 28.8009 18.2517L28.7988 18.2592ZM28.0122 25.7984C27.6259 25.6488 27.2287 25.5213 26.8233 25.4168C27.0511 24.6539 27.1853 23.872 27.2235 23.0844H29.141C29.0366 24.0581 28.6481 24.9924 28.0122 25.7984ZM15.832 23.0844H17.7688C17.8065 23.8717 17.9406 24.6534 18.1691 25.4159C17.7575 25.5225 17.3546 25.6527 16.9629 25.8059C16.3281 24.9965 15.9391 24.0602 15.832 23.0844ZM16.965 19.2407C17.3569 19.3934 17.7599 19.5237 18.1712 19.6307C17.9428 20.3932 17.8086 21.1748 17.7709 21.9622H15.8342C15.9405 20.9854 16.3296 20.048 16.965 19.2379V19.2407ZM21.8511 19.0129C21.1798 18.991 20.5111 18.9284 19.8498 18.8254C20.1908 17.9499 20.9082 17.2237 21.8511 16.7996V19.0129ZM21.8511 20.1379V21.9622H19.0611C19.1006 21.2654 19.2239 20.5742 19.4291 19.8998C20.2286 20.0325 21.0387 20.1111 21.8522 20.1351L21.8511 20.1379ZM21.8511 23.0872V24.9087C21.038 24.9341 20.2283 25.0137 19.4291 25.1468C19.2239 24.4724 19.1006 23.7812 19.0611 23.0844L21.8511 23.0872ZM21.8511 26.0365V28.2498C20.9082 27.8257 20.1908 27.0995 19.8498 26.224C20.5114 26.1205 21.1805 26.0569 21.8522 26.0337L21.8511 26.0365ZM23.1423 26.0365C23.8136 26.0587 24.4823 26.1214 25.1436 26.224C24.8036 27.1 24.0859 27.8265 23.1423 28.2498V26.0365ZM23.1423 24.9115V23.0844H25.9334C25.893 23.7812 25.7693 24.4724 25.5644 25.1468C24.7655 25.0137 23.9562 24.9341 23.1434 24.9087L23.1423 24.9115ZM23.1423 21.9622V20.1351C23.9555 20.1102 24.7653 20.0306 25.5644 19.897C25.7692 20.5714 25.8929 21.2626 25.9334 21.9594L23.1423 21.9622ZM23.1423 19.0129V16.7967C24.0861 17.2206 24.8041 17.9473 25.1447 18.8236C24.4833 18.9257 23.8146 18.9881 23.1434 19.0101L23.1423 19.0129ZM25.7548 17.4314C26.2646 17.6801 26.7348 17.9858 27.1536 18.3408C26.9212 18.4223 26.6769 18.4964 26.4187 18.5639C26.2375 18.1687 26.0152 17.7887 25.7548 17.4286V17.4314ZM18.5736 18.562C18.3165 18.4945 18.0711 18.4195 17.8387 18.3389C18.258 17.9842 18.7282 17.6782 19.2375 17.4286C18.9773 17.7881 18.7551 18.1675 18.5736 18.562ZM18.5736 26.4836C18.7558 26.8783 18.9787 27.2576 19.2397 27.6171C18.7301 27.3678 18.2599 27.0618 17.8409 26.7068C18.0711 26.6243 18.3165 26.5511 18.5736 26.4836ZM26.4198 26.4836C26.6791 26.5511 26.9255 26.6261 27.159 26.7068C26.74 27.0602 26.2697 27.3643 25.7602 27.6114C26.0182 27.2534 26.2389 26.8759 26.4198 26.4836ZM27.2235 21.9594C27.1853 21.1721 27.0512 20.3905 26.8233 19.6279C27.2344 19.5213 27.637 19.391 28.0284 19.2379C28.6634 20.0463 29.0532 20.9816 29.1614 21.9566L27.2235 21.9594Z" fill="black"/>
<path d="M21.6953 13.4394V14.0497C21.6953 14.2362 21.7803 14.415 21.9317 14.5469C22.083 14.6788 22.2883 14.7528 22.5023 14.7528C22.7163 14.7528 22.9216 14.6788 23.0729 14.5469C23.2243 14.415 23.3093 14.2362 23.3093 14.0497V13.4394C23.3093 13.253 23.2243 13.0741 23.0729 12.9423C22.9216 12.8104 22.7163 12.7363 22.5023 12.7363C22.2883 12.7363 22.083 12.8104 21.9317 12.9423C21.7803 13.0741 21.6953 13.253 21.6953 13.4394Z" fill="black"/>
<path d="M23.3093 31.739V31.125C23.3093 30.9385 23.2243 30.7597 23.0729 30.6278C22.9216 30.496 22.7163 30.4219 22.5023 30.4219C22.2883 30.4219 22.083 30.496 21.9317 30.6278C21.7803 30.7597 21.6953 30.9385 21.6953 31.125V31.7353C21.6953 31.9218 21.7803 32.1006 21.9317 32.2324C22.083 32.3643 22.2883 32.4384 22.5023 32.4384C22.7163 32.4384 22.9216 32.3643 23.0729 32.2324C23.2243 32.1006 23.3093 31.9218 23.3093 31.7353V31.739Z" fill="black"/>
<path d="M13.0016 18.6224L13.6085 18.928C13.7003 18.9742 13.8017 19.0042 13.9068 19.0162C14.012 19.0282 14.1188 19.0221 14.2212 18.9981C14.3236 18.9742 14.4196 18.9329 14.5037 18.8767C14.5878 18.8204 14.6584 18.7503 14.7114 18.6702C14.7643 18.5902 14.7987 18.5019 14.8125 18.4103C14.8263 18.3187 14.8193 18.2256 14.7918 18.1364C14.7643 18.0472 14.717 17.9635 14.6524 17.8902C14.5878 17.817 14.5073 17.7555 14.4155 17.7093L13.8086 17.4037C13.6231 17.3105 13.4027 17.2853 13.1959 17.3336C12.989 17.3819 12.8127 17.4999 12.7057 17.6615C12.5987 17.8231 12.5697 18.0152 12.6252 18.1954C12.6807 18.3756 12.8161 18.5292 13.0016 18.6224Z" fill="black"/>
<path d="M31.9975 26.555L31.3906 26.2494C31.2051 26.1562 30.9847 26.131 30.7779 26.1793C30.5711 26.2277 30.3948 26.3456 30.2877 26.5072C30.1807 26.6688 30.1518 26.8609 30.2073 27.0411C30.2628 27.2213 30.3981 27.3749 30.5836 27.4681L31.1905 27.7737C31.2823 27.8199 31.3837 27.8499 31.4889 27.8619C31.594 27.8739 31.7008 27.8678 31.8032 27.8439C31.9056 27.8199 32.0016 27.7786 32.0857 27.7224C32.1698 27.6661 32.2404 27.596 32.2934 27.5159C32.3464 27.4359 32.3808 27.3476 32.3946 27.256C32.4084 27.1644 32.4013 27.0713 32.3739 26.9821C32.3464 26.8929 32.299 26.8092 32.2344 26.7359C32.1698 26.6627 32.0893 26.6012 31.9975 26.555Z" fill="black"/>
<path d="M13.6085 26.2494L13.0016 26.555C12.9098 26.6012 12.8292 26.6627 12.7647 26.7359C12.7001 26.8092 12.6527 26.8929 12.6252 26.9821C12.5978 27.0713 12.5907 27.1644 12.6045 27.256C12.6183 27.3476 12.6527 27.4359 12.7057 27.5159C12.7587 27.596 12.8293 27.6661 12.9134 27.7224C12.9975 27.7786 13.0935 27.8199 13.1959 27.8439C13.2983 27.8678 13.4051 27.8739 13.5102 27.8619C13.6154 27.8499 13.7168 27.8199 13.8086 27.7737L14.4155 27.4681C14.5073 27.422 14.5878 27.3605 14.6524 27.2872C14.717 27.2139 14.7643 27.1303 14.7918 27.0411C14.8193 26.9518 14.8263 26.8588 14.8125 26.7672C14.7987 26.6756 14.7643 26.5872 14.7114 26.5072C14.6584 26.4272 14.5878 26.357 14.5037 26.3008C14.4196 26.2445 14.3236 26.2032 14.2212 26.1793C14.1188 26.1554 14.012 26.1492 13.9068 26.1613C13.8017 26.1733 13.7003 26.2032 13.6085 26.2494Z" fill="black"/>
<path d="M31.1905 17.4047L30.5836 17.7103C30.3981 17.8035 30.2628 17.9572 30.2073 18.1374C30.1518 18.3176 30.1807 18.5096 30.2877 18.6712C30.3948 18.8328 30.5711 18.9508 30.7779 18.9991C30.9847 19.0475 31.2051 19.0223 31.3906 18.929L31.9975 18.6234C32.0893 18.5772 32.1698 18.5158 32.2344 18.4425C32.299 18.3692 32.3464 18.2856 32.3739 18.1963C32.4013 18.1071 32.4084 18.014 32.3946 17.9224C32.3808 17.8308 32.3464 17.7425 32.2934 17.6625C32.2404 17.5825 32.1698 17.5123 32.0857 17.4561C32.0016 17.3998 31.9056 17.3585 31.8032 17.3346C31.7008 17.3106 31.594 17.3045 31.4889 17.3165C31.3837 17.3286 31.2823 17.3585 31.1905 17.4047Z" fill="black"/>
</svg>
