<svg width="45" height="45" viewBox="0 0 45 45" fill="none" xmlns="http://www.w3.org/2000/svg">
<g clip-path="url(#clip0_1693_507)">
<path fill-rule="evenodd" clip-rule="evenodd" d="M13.3594 32.8798C13.3594 33.9492 14.2351 34.8255 15.3039 34.8255H25.7588C26.8276 34.8255 27.7008 33.9492 27.7008 32.8798C27.7008 31.8104 26.8276 30.9365 25.7588 30.9365H15.3039C14.2351 30.9365 13.3594 31.8104 13.3594 32.8798Z" fill="#ECF2F3"/>
<path fill-rule="evenodd" clip-rule="evenodd" d="M15.5018 38.7117H25.5609H25.7588C26.8276 38.7117 27.7008 37.8378 27.7008 36.7685C27.7008 35.699 26.8276 34.8252 25.7588 34.8252H15.3039C14.2351 34.8252 13.3594 35.6991 13.3594 36.7685C13.3594 37.8379 14.2351 38.7117 15.3039 38.7117H15.5018Z" fill="#ECF2F3"/>
<path fill-rule="evenodd" clip-rule="evenodd" d="M15.5 41.2642C15.5 42.6678 16.6479 43.814 18.0481 43.814H23.0084C24.4111 43.814 25.5591 42.6678 25.5591 41.2642V38.7119H15.5V41.2642Z" fill="#BFDBFF"/>
<path fill-rule="evenodd" clip-rule="evenodd" d="M20.3775 19.3233L21.0381 19.9843C21.3845 20.3308 21.3845 20.8977 21.0381 21.2443L19.2741 23.0093C18.9278 23.3558 18.3612 23.3558 18.0149 23.0093L17.3543 22.3484C16.434 22.9326 15.4073 23.3658 14.3089 23.6134V24.5441C14.3089 25.0343 13.9082 25.4353 13.4183 25.4353H12.3125C13.3639 26.98 14.2694 28.6609 14.596 30.9359H26.466C27.171 26.0121 30.5801 23.8757 32.3589 19.8728C33.0121 18.3999 33.445 16.6769 33.4425 14.4688C33.4401 12.4636 33.0715 10.6565 32.4233 9.0672C31.8147 7.57939 30.9637 6.28221 29.9419 5.19553C27.4308 2.16304 23.2968 1.46246 23.2968 1.46246C22.3839 1.26691 21.4562 1.17532 20.5309 1.18772C18.2351 1.15555 15.917 1.77439 13.8908 2.97506C14.1407 3.13353 14.3089 3.4132 14.3089 3.73013V4.66089C15.4074 4.90848 16.434 5.34169 17.3543 5.9259L18.0149 5.26496C18.3613 4.91841 18.9279 4.91841 19.2741 5.26496L21.0381 7.02998C21.3845 7.37653 21.3845 7.94343 21.0381 8.28998L20.3775 8.95092C20.9614 9.87184 21.3943 10.8991 21.6417 11.9983H22.572C23.0618 11.9983 23.4626 12.3993 23.4626 12.8895V15.3848C23.4626 15.8749 23.0618 16.276 22.572 16.276H21.6417C21.3943 17.3751 20.9614 18.4024 20.3775 19.3233Z" fill="#FFE6B4"/>
<path fill-rule="evenodd" clip-rule="evenodd" d="M1.7695 11.9983C1.27969 11.9983 0.878906 12.3993 0.878906 12.8895V15.3848C0.878906 15.875 1.27969 16.276 1.7695 16.276H2.69974C2.94715 17.3752 3.3801 18.4025 3.96396 19.3234L3.30337 19.9843C2.95699 20.3309 2.95699 20.8978 3.30337 21.2443L5.06733 23.0093C5.41371 23.3559 5.98025 23.3559 6.32654 23.0093L6.98713 22.3484C7.90743 22.9326 8.93417 23.3658 10.0325 23.6134V24.5442C10.0325 25.0343 10.4333 25.4354 10.9231 25.4354H12.311H13.4169C13.9067 25.4354 14.3075 25.0343 14.3075 24.5442V23.6134C15.4059 23.3658 16.4326 22.9326 17.3529 22.3484L18.0134 23.0093C18.3598 23.3559 18.9264 23.3559 19.2727 23.0093L21.0366 21.2443C21.383 20.8978 21.383 20.3309 21.0366 19.9843L20.376 19.3234C20.9599 18.4025 21.3928 17.3752 21.6403 16.276H22.5705C23.0603 16.276 23.4611 15.875 23.4611 15.3848V12.8895C23.4611 12.3993 23.0603 11.9983 22.5705 11.9983H21.6403C21.3928 10.8991 20.9599 9.87188 20.376 8.95096L21.0366 8.29002C21.383 7.94347 21.383 7.37657 21.0366 7.03002L19.2727 5.265C18.9263 4.91845 18.3597 4.91845 18.0134 5.265L17.3529 5.92594C16.4326 5.34173 15.4058 4.90852 14.3075 4.66093V3.73008C14.3075 3.41323 14.1392 3.13348 13.8894 2.97501C13.7533 2.88835 13.59 2.83887 13.4169 2.83887H10.9231C10.4333 2.83887 10.0325 3.23991 10.0325 3.73008V4.66084C8.93408 4.90843 7.90743 5.34164 6.98713 5.92585L6.32654 5.26491C5.98017 4.91836 5.41362 4.91836 5.06733 5.26491L3.30337 7.02993C2.95699 7.37648 2.95699 7.94338 3.30337 8.28993L3.96396 8.95087C3.3801 9.87179 2.94715 10.8991 2.69974 11.9982H1.7695V11.9983Z" fill="#BFDBFF"/>
<path fill-rule="evenodd" clip-rule="evenodd" d="M41.7555 3.11133C40.5828 3.11133 39.6328 4.06195 39.6328 5.23529C39.6328 6.40863 40.5828 7.35926 41.7555 7.35926C42.9281 7.35926 43.8806 6.40863 43.8806 5.23529C43.8806 4.06195 42.9282 3.11133 41.7555 3.11133Z" fill="#BEECE1"/>
<path fill-rule="evenodd" clip-rule="evenodd" d="M41.9976 12.3457C40.825 12.3457 39.875 13.2988 39.875 14.4721C39.875 15.6456 40.825 16.5961 41.9976 16.5961C43.1703 16.5961 44.1203 15.6455 44.1203 14.4721C44.1203 13.2988 43.1703 12.3457 41.9976 12.3457Z" fill="#BEECE1"/>
<path fill-rule="evenodd" clip-rule="evenodd" d="M41.7555 21.5791C40.5828 21.5791 39.6328 22.5322 39.6328 23.7055C39.6328 24.8789 40.5828 25.8295 41.7555 25.8295C42.9281 25.8295 43.8806 24.8789 43.8806 23.7055C43.8806 22.5322 42.9282 21.5791 41.7555 21.5791Z" fill="#BEECE1"/>
<path d="M10.832 10.0052C10.7003 9.66821 10.3754 9.44638 10.0136 9.44629H10.0134C9.65166 9.44629 9.32673 9.66795 9.1949 10.0049L6.59975 16.6368C6.42283 17.0888 6.64589 17.5987 7.09791 17.7756C7.20312 17.8167 7.31149 17.8362 7.41801 17.8362C7.76931 17.8362 8.10101 17.6242 8.23671 17.2774L8.67687 16.1527H11.348L11.7876 17.2772C11.9642 17.7293 12.4742 17.9526 12.9261 17.7757C13.3783 17.5989 13.6015 17.0892 13.4247 16.6371L10.832 10.0052ZM9.36479 14.3948L10.0131 12.7381L10.6608 14.3948H9.36479Z" fill="black"/>
<path d="M15.6875 17.836C16.1728 17.836 16.5664 17.4425 16.5664 16.9571V10.3252C16.5664 9.83978 16.1728 9.44629 15.6875 9.44629C15.2022 9.44629 14.8086 9.83978 14.8086 10.3252V16.9571C14.8086 17.4425 15.2022 17.836 15.6875 17.836Z" fill="black"/>
<path d="M41.756 20.7001C40.4063 20.7001 39.2621 21.5968 38.8857 22.8265H36.9727L36.2445 19.6755C36.1535 19.282 35.7916 18.9944 35.3882 18.9944H33.641C33.9904 17.9298 34.2288 16.735 34.2987 15.3496L39.1284 15.3504C39.5049 16.5788 40.6489 17.4746 41.9984 17.4746C43.6535 17.4746 45 16.1275 45 14.4716C45 12.8144 43.6535 11.4663 41.9984 11.4663C40.6487 11.4663 39.5045 12.363 39.1282 13.5926L34.2959 13.5917C34.2291 12.3186 34.0182 11.0988 33.6677 9.94657H35.388C35.7915 9.94657 36.1532 9.65899 36.2443 9.26551L36.9725 6.11445H38.8858C39.2623 7.34273 40.4065 8.23851 41.756 8.23851C43.4124 8.23851 44.76 6.89141 44.76 5.23555C44.76 3.57969 43.4124 2.23268 41.756 2.23268C40.4065 2.23268 39.2624 3.12837 38.8858 4.35664H36.2736C35.8724 4.35664 35.5345 4.62585 35.4293 4.99332C35.425 5.00703 35.421 5.02162 35.4173 5.03771L34.6891 8.18876H33.0013C32.3953 6.86996 31.5855 5.66305 30.5808 4.59403C30.2484 4.24027 29.6923 4.22305 29.3384 4.55554C28.9847 4.88803 28.9674 5.4442 29.2999 5.79787C29.982 6.5235 30.5606 7.32418 31.0332 8.18876H28.2358C27.7505 8.18876 27.3569 8.58225 27.3569 9.06767C27.3569 9.55309 27.7505 9.94657 28.2358 9.94657H31.8163C32.2175 11.0843 32.4594 12.3055 32.5355 13.5914L27.1055 13.5903C27.1054 13.5903 27.1054 13.5903 27.1053 13.5903C26.62 13.5903 26.2265 13.9837 26.2264 14.4691C26.2263 14.9545 26.6198 15.3481 27.1051 15.3482L32.537 15.3492C32.4562 16.76 32.1772 17.9443 31.7707 18.9944H28.2359C27.7506 18.9944 27.357 19.3879 27.357 19.8733C27.357 20.3587 27.7506 20.7522 28.2359 20.7522H30.9219C30.3777 21.6949 29.7455 22.5567 29.0999 23.4357C27.7237 25.3093 26.305 27.2424 25.7251 30.0574H15.33C15.0179 28.5448 14.47 27.3062 13.8665 26.2545C14.6248 26.0547 15.1864 25.365 15.1864 24.5445V24.2923C15.8898 24.0833 16.5674 23.8019 17.212 23.4511L17.3918 23.6311C17.7254 23.9648 18.1698 24.1486 18.6431 24.1486C19.1164 24.1486 19.5608 23.9648 19.8944 23.631L21.6583 21.8659C22.3479 21.1759 22.3479 20.0532 21.6583 19.3633L21.4778 19.1827C21.8287 18.5375 22.11 17.8592 22.3189 17.1551H22.5703C23.5461 17.1551 24.3399 16.361 24.3399 15.385V12.8897C24.3399 11.9137 23.5461 11.1196 22.5703 11.1196H22.3189C22.11 10.4155 21.8287 9.73722 21.4778 9.09192L21.6583 8.9114C22.3478 8.22146 22.3478 7.09883 21.6583 6.4088L19.8944 4.64369C19.5608 4.30997 19.1164 4.12619 18.6431 4.12619C18.1698 4.12619 17.7254 4.30997 17.3918 4.64378L17.212 4.82369C16.5673 4.47274 15.8898 4.19141 15.1864 3.98249V3.73024C15.1864 3.58206 15.1661 3.4388 15.1317 3.30107C16.816 2.46594 18.6619 2.04011 20.5172 2.06665C20.5253 2.06674 20.5333 2.06674 20.5413 2.06665C21.4027 2.0554 22.2666 2.14101 23.1113 2.32206C23.5858 2.42349 24.0531 2.12141 24.1548 1.64671C24.2564 1.1721 23.9542 0.704873 23.4795 0.603184C22.5102 0.395498 21.5176 0.296182 20.5298 0.308838C18.196 0.27711 15.8844 0.864307 13.8139 2.00662C13.686 1.97718 13.5535 1.96004 13.4169 1.96004H10.9231C9.94737 1.96004 9.15355 2.75413 9.15355 3.73016V3.9824C8.45016 4.19132 7.7727 4.47266 7.12802 4.8236L6.94819 4.64369C6.61456 4.30997 6.17019 4.12619 5.69689 4.12619C5.2236 4.12619 4.77923 4.30997 4.4456 4.64378L2.68172 6.40915C1.99222 7.09909 1.99222 8.22172 2.68172 8.91175L2.86216 9.09228C2.5113 9.73757 2.22996 10.4158 2.02104 11.1199H1.76968C0.793828 11.1198 0 11.9139 0 12.8899V15.3852C0 16.3613 0.793828 17.1554 1.76959 17.1554H2.02096C2.22987 17.8595 2.51121 18.5378 2.86207 19.183L2.68163 19.3635C1.99204 20.0535 1.99204 21.1762 2.68163 21.8661L4.44551 23.6312C4.77914 23.965 5.22352 24.1487 5.69681 24.1487C6.1701 24.1487 6.61447 23.9649 6.94811 23.6311L7.12793 23.4512C7.77252 23.8021 8.45007 24.0835 9.15346 24.2924V24.5447C9.15346 25.5207 9.94729 26.3148 10.923 26.3148H11.8405C12.5759 27.4408 13.3081 28.8134 13.6454 30.5964C12.9389 31.1098 12.4784 31.9418 12.4784 32.8797C12.4784 33.6332 12.7754 34.3181 13.2577 34.8251C12.7754 35.3316 12.4784 36.0159 12.4784 36.7688C12.4784 38.0903 13.3921 39.202 14.621 39.5074V41.2643C14.621 43.1549 16.1583 44.693 18.048 44.693H23.0083C24.8993 44.693 26.4379 43.1549 26.4379 41.2643V39.5073C27.6654 39.2017 28.5779 38.09 28.5779 36.7688C28.5779 36.016 28.2812 35.3317 27.7993 34.8251C28.2812 34.3181 28.5779 33.6332 28.5779 32.8797C28.5779 31.9411 28.1171 31.1086 27.4104 30.5952C27.8884 28.0555 29.167 26.3138 30.5166 24.4765C31.3669 23.3188 32.2298 22.1424 32.9187 20.7524H34.6892L35.4174 23.9034C35.5083 24.297 35.8702 24.5845 36.2737 24.5845H38.8859C39.2624 25.8128 40.4066 26.7085 41.756 26.7085C43.4125 26.7085 44.7601 25.3614 44.7601 23.7056C44.7601 22.0482 43.4125 20.7001 41.756 20.7001ZM41.9984 13.2242C42.6843 13.2242 43.2422 13.7839 43.2422 14.4717C43.2422 15.1583 42.6842 15.7169 41.9984 15.7169C41.3127 15.7169 40.7548 15.1583 40.7548 14.4717C40.7547 13.7839 41.3126 13.2242 41.9984 13.2242ZM41.756 3.99058C42.4432 3.99058 43.0022 4.54912 43.0022 5.23563C43.0022 5.92224 42.4433 6.48078 41.756 6.48078C41.0702 6.48078 40.5123 5.92224 40.5123 5.23563C40.5122 4.54912 41.0702 3.99058 41.756 3.99058ZM13.4286 23.6138V24.5446C13.4286 24.5497 13.421 24.5569 13.4169 24.5569H12.3093C12.3073 24.5569 12.3054 24.5569 12.3034 24.5569H10.9231C10.919 24.5569 10.9114 24.5497 10.9114 24.5446V23.6138C10.9114 23.2029 10.6266 22.8468 10.2257 22.7565C9.24144 22.5346 8.31023 22.1478 7.45813 21.6068C7.31329 21.5148 7.14981 21.4699 6.98739 21.4699C6.76028 21.4699 6.53511 21.5578 6.36548 21.7275L5.70489 22.3885C5.70111 22.3923 5.69268 22.3922 5.6889 22.3885L3.92502 20.6234C3.92168 20.62 3.92168 20.6093 3.92502 20.6059L4.58561 19.9449C4.87635 19.654 4.92645 19.2004 4.70619 18.8531C4.16558 18.0002 3.77895 17.0684 3.5572 16.0833C3.46693 15.6822 3.1108 15.3974 2.69974 15.3974H1.76959C1.76546 15.3974 1.75781 15.3902 1.75781 15.3851V12.8898C1.75781 12.8847 1.76546 12.8775 1.76959 12.8775H2.69974C3.1108 12.8775 3.46693 12.5926 3.5572 12.1916C3.77895 11.2066 4.16558 10.2747 4.70619 9.42178C4.92645 9.07435 4.87635 8.62074 4.58561 8.32991L3.92502 7.66897C3.92159 7.66555 3.92159 7.65482 3.92502 7.65148L5.6889 5.88647C5.69268 5.88269 5.70111 5.88277 5.70489 5.88647L6.36548 6.5474C6.65657 6.83858 7.1107 6.88868 7.45822 6.66816C8.31041 6.1272 9.24161 5.74039 10.2257 5.51855C10.6267 5.4282 10.9114 5.07207 10.9114 4.66118V3.73042C10.9114 3.72532 10.9191 3.71812 10.9232 3.71812H13.4169C13.4211 3.71812 13.4287 3.72532 13.4287 3.73042V4.66118C13.4287 5.07216 13.7135 5.42829 14.1144 5.51855C15.0986 5.7403 16.0298 6.12711 16.8819 6.66816C17.2293 6.88877 17.6836 6.83867 17.9747 6.5474L18.6353 5.88647C18.6391 5.88269 18.6475 5.88277 18.6513 5.88647L20.4151 7.65148C20.4186 7.65491 20.4186 7.66563 20.4151 7.66897L19.7546 8.32991C19.4638 8.62083 19.4137 9.07443 19.634 9.42178C20.1746 10.2747 20.5612 11.2066 20.783 12.1916C20.8732 12.5926 21.2294 12.8775 21.6404 12.8775H22.5706C22.5747 12.8775 22.5824 12.8847 22.5824 12.8898V15.3851C22.5824 15.3902 22.5747 15.3974 22.5706 15.3974H21.6404C21.2294 15.3974 20.8732 15.6822 20.783 16.0833C20.5612 17.0684 20.1746 18.0002 19.634 18.8531C19.4137 19.2004 19.4638 19.654 19.7546 19.9449L20.4151 20.6059C20.4185 20.6093 20.4185 20.62 20.4151 20.6234L18.6513 22.3884C18.6475 22.3921 18.6391 22.3921 18.6353 22.3884L17.9747 21.7273C17.6836 21.4362 17.2294 21.386 16.8819 21.6066C16.0298 22.1475 15.0986 22.5344 14.1144 22.7562C13.7134 22.8468 13.4286 23.2029 13.4286 23.6138ZM24.6801 41.2642C24.6801 42.1855 23.9302 42.9351 23.0084 42.9351H18.0481C17.1276 42.9351 16.3789 42.1856 16.3789 41.2642V39.5908H24.68V41.2642H24.6801ZM25.757 37.833H15.3021C14.7145 37.833 14.2364 37.3555 14.2364 36.7687C14.2364 36.1817 14.7145 35.7043 15.3021 35.7043H25.757C26.3432 35.7043 26.8202 36.1818 26.8202 36.7687C26.8201 37.3555 26.3432 37.833 25.757 37.833ZM25.757 33.9465H15.3021C14.7145 33.9465 14.2364 33.4679 14.2364 32.8797C14.2364 32.2928 14.7145 31.8153 15.3021 31.8153H25.757C26.3432 31.8153 26.8202 32.2928 26.8202 32.8797C26.8201 33.4679 26.3432 33.9465 25.757 33.9465ZM41.756 24.9505C41.0702 24.9505 40.5123 24.3919 40.5123 23.7054C40.5123 23.0175 41.0703 22.4579 41.756 22.4579C42.4432 22.4579 43.0022 23.0176 43.0022 23.7054C43.0022 24.3919 42.4432 24.9505 41.756 24.9505Z" fill="black"/>
<path d="M26.49 3.59797L26.495 3.60043C26.6209 3.66336 26.7544 3.69316 26.8859 3.69316C27.2078 3.69316 27.5176 3.51439 27.6716 3.20607C27.8887 2.77189 27.7102 2.2427 27.276 2.02561C26.8419 1.80852 26.3139 1.98448 26.0969 2.41866C25.8798 2.85301 26.0558 3.38088 26.49 3.59797Z" fill="black"/>
</g>
<defs>
<clipPath id="clip0_1693_507">
<rect width="45" height="45" fill="white"/>
</clipPath>
</defs>
</svg>
