<svg width="45" height="45" viewBox="0 0 45 45" fill="none" xmlns="http://www.w3.org/2000/svg">
<g clip-path="url(#clip0_1695_622)">
<path d="M22.4991 30.1932C10.5715 30.1932 0.902344 27.3762 0.902344 23.9014V37.8287C0.902344 41.3035 10.5716 44.1205 22.4991 44.1205C34.4267 44.1205 44.0959 41.3035 44.0959 37.8287V23.9015C44.0959 27.3763 34.4267 30.1932 22.4991 30.1932Z" fill="#DCFEFF"/>
<path d="M27.3681 36.8749L21.9957 30.2354L17.1335 36.2445L13.7148 40.4697C16.4294 40.845 19.4372 41.0448 22.5001 41.0448C25.2236 41.0448 27.9034 40.8866 30.3725 40.5878L27.3681 36.8749Z" fill="#5377A2"/>
<path d="M22.5002 41.9239C19.4351 41.9239 16.3555 41.7222 13.5946 41.3404C13.2806 41.297 13.0142 41.0878 12.8975 40.7929C12.781 40.4981 12.8322 40.1634 13.0316 39.9168L21.3127 29.6825C21.4795 29.4762 21.7306 29.3564 21.9958 29.3564C22.2612 29.3564 22.5122 29.4762 22.679 29.6825L31.0558 40.035C31.2568 40.2835 31.307 40.6216 31.187 40.918C31.0669 41.2144 30.7954 41.422 30.4781 41.4605C27.9377 41.768 25.2535 41.9239 22.5002 41.9239ZM15.3945 39.7912C17.655 40.0372 20.0809 40.1659 22.5001 40.1659C24.6133 40.1659 26.6829 40.0719 28.6737 39.8858L21.9957 31.6327L15.3945 39.7912Z" fill="black"/>
<path d="M17.8681 11.3799H13.3828V16.484H17.8681V11.3799Z" fill="#FDB655"/>
<path d="M31.6159 11.3799H17.8672V16.484H31.6159V11.3799Z" fill="#6BECFE"/>
<path d="M13.6929 11.3801H15.2265V9.0228H22.9224L25.2327 7.11356L27.7943 9.0228H29.7748V11.3801H31.5127C31.7875 10.2216 31.9576 8.77214 31.7795 7.12164C31.358 3.21333 30.1086 -0.125803 25.1235 1.15371C25.1235 1.15371 21.513 1.71023 18.046 1.8491C17.9915 1.85129 17.9362 1.85428 17.88 1.85806C16.3079 1.96458 15.0191 3.07991 14.168 4.5686C12.9884 6.63245 12.8403 9.12985 13.6825 11.353L13.6929 11.3801Z" fill="#5377A2"/>
<path d="M29.7751 11.3798V9.02253H27.7944L25.2328 7.11328L22.9225 9.02253H15.2266V11.3798H29.7751Z" fill="#FFD8B9"/>
<path d="M29.7186 16.4844H15.2812C15.6396 19.3815 17.702 21.7497 20.4344 22.5576L19.4704 25.895L22.4999 27.731L25.5294 25.895L24.5653 22.5576C27.2978 21.7496 29.3602 19.3815 29.7186 16.4844Z" fill="#FFD8B9"/>
<path d="M27.8633 14.8111C27.8062 14.8111 27.7481 14.8058 27.6919 14.7944C27.6356 14.783 27.5803 14.7663 27.5275 14.7443C27.4739 14.7223 27.4229 14.6951 27.3755 14.6634C27.3271 14.6309 27.2822 14.594 27.2419 14.5536C27.0784 14.3901 26.9844 14.1633 26.9844 13.9322C26.9844 13.875 26.9904 13.817 27.002 13.7608C27.0134 13.7045 27.03 13.6492 27.052 13.5964C27.0739 13.5428 27.1013 13.4918 27.1328 13.4444C27.1645 13.396 27.2014 13.3512 27.2418 13.3108C27.2822 13.2704 27.3271 13.2334 27.3754 13.2018C27.4229 13.1702 27.4737 13.1429 27.5274 13.1209C27.5803 13.099 27.6356 13.0822 27.6918 13.0708C27.8052 13.048 27.9212 13.048 28.0355 13.0708C28.0908 13.0823 28.1462 13.099 28.1998 13.1209C28.2525 13.1429 28.3035 13.1701 28.351 13.2018C28.3993 13.2334 28.4441 13.2704 28.4846 13.3108C28.5251 13.3512 28.562 13.396 28.5944 13.4444C28.6261 13.4918 28.6534 13.5428 28.6754 13.5964C28.6974 13.6492 28.7141 13.7045 28.7254 13.7608C28.7368 13.817 28.7421 13.875 28.7421 13.9322C28.7421 14.1633 28.6481 14.3901 28.4845 14.5536C28.3213 14.717 28.0953 14.8111 27.8633 14.8111Z" fill="black"/>
<path d="M22.5013 30.194C26.956 30.194 31.0954 29.8009 34.534 29.1275C34.3946 26.698 32.3809 24.7715 29.9173 24.7715H25.2062L25.5309 25.8955L22.5014 27.7315L19.4719 25.8955L19.7966 24.7715H15.0855C12.6218 24.7715 10.6081 26.698 10.4688 29.1275C13.9071 29.801 18.0465 30.194 22.5013 30.194Z" fill="#FF5B70"/>
<path d="M5.1783 20.1436C2.49272 21.1923 0.902344 22.493 0.902344 23.9019C0.902344 25.3109 2.49281 26.6116 5.1783 27.6603V20.1436Z" fill="#FDB655"/>
<path d="M39.8203 20.1436V27.6603C42.5059 26.6116 44.0963 25.3109 44.0963 23.9019C44.0963 22.493 42.5058 21.1923 39.8203 20.1436Z" fill="#FDB655"/>
<path d="M4.43704 38.5937C4.24702 38.5937 4.05577 38.5324 3.89476 38.406L3.87507 38.3905C3.65437 38.2172 3.53906 37.9594 3.53906 37.699C3.53897 37.5089 3.60023 37.3174 3.7268 37.1564C4.02659 36.7747 4.57907 36.7082 4.96095 37.0081L4.98064 37.0235C5.20133 37.1968 5.31665 37.4546 5.31665 37.715C5.31673 37.9051 5.25548 38.0965 5.12891 38.2576C4.95542 38.4784 4.69755 38.5937 4.43704 38.5937Z" fill="black"/>
<path d="M21.4548 35.9272L23.5295 37.4529L25.6046 35.9272L27.3673 36.8749L21.995 30.2354L17.1328 36.2446L19.3801 37.4529L21.4548 35.9272Z" fill="#6BECFE"/>
<path d="M25.6053 35.9268L23.5303 37.4524L21.4556 35.9268L19.3811 37.4524L17.1335 36.2441L13.7148 40.4693C16.4294 40.8446 19.4372 41.0444 22.5001 41.0444C25.2237 41.0444 27.9034 40.8862 30.3725 40.5874L27.3682 36.8745L25.6053 35.9268Z" fill="#5377A2"/>
<path d="M13.7143 40.4701L17.1329 36.2449L17.4638 35.836L14.9887 33.7109L8.375 39.3894C8.8025 39.511 9.267 39.6323 9.77378 39.751C11.1287 40.0686 12.6227 40.3317 14.2095 40.5361C14.0436 40.5147 13.8783 40.4927 13.7143 40.4701Z" fill="#6BECFE"/>
<path d="M30.0094 32.4912L26.5742 35.8954L27.3668 36.8749L30.3711 40.5879C30.0665 40.6247 33.4936 40.1564 35.2242 39.7507C35.8388 39.6066 36.3929 39.459 36.8917 39.3113L30.0094 32.4912Z" fill="#6BECFE"/>
<path d="M40.1396 19.3247C39.8691 19.2191 39.5639 19.2539 39.3241 19.4176C39.0844 19.5814 38.941 19.853 38.941 20.1435V27.0403C37.8908 27.4162 36.6581 27.768 35.2583 28.0773C34.665 25.6642 32.4853 23.8922 29.9151 23.8922H25.865L25.6385 23.1081C28.0817 22.0912 29.8814 19.9474 30.4564 17.3634H31.6163C32.1016 17.3634 32.4953 16.9699 32.4953 16.4844V11.3802C32.4953 11.2982 32.4832 11.2193 32.4622 11.1439C32.7364 9.78946 32.8009 8.40695 32.6521 7.02742C32.4167 4.84615 31.8969 2.16936 29.9503 0.820243C28.6923 -0.0514546 27.0098 -0.229433 24.9474 0.291406C24.5415 0.352314 21.1892 0.843798 18.0093 0.971151C17.9468 0.9737 17.8834 0.977127 17.8191 0.981434C16.0653 1.10026 14.4971 2.21946 13.4034 4.13283C12.2276 6.18982 11.9539 8.63485 12.6193 10.9445C12.5456 11.0731 12.5029 11.2216 12.5029 11.3804V16.4846C12.5029 16.97 12.8965 17.3636 13.3819 17.3636H14.5418C15.1169 19.9476 16.9166 22.0914 19.3597 23.1083L19.1332 23.8924H15.0831C12.5128 23.8924 10.3332 25.6644 9.7399 28.0774C8.34007 27.7682 7.10741 27.4165 6.05721 27.0405V20.1436C6.05721 19.8532 5.91377 19.5816 5.67409 19.4177C5.43424 19.2539 5.12917 19.2192 4.85856 19.3248C1.65038 20.5778 0.0234375 22.1177 0.0234375 23.9019V37.8292C0.0234375 39.9657 2.4297 41.7958 6.98216 43.1221C11.1389 44.3331 16.6496 45 22.4992 45C28.3489 45 33.8596 44.3331 38.0163 43.1221C42.5687 41.7958 44.975 39.9656 44.975 37.8292V23.9019C44.9749 22.1176 43.348 20.5776 40.1396 19.3247ZM40.6989 21.4869C42.2965 22.2742 43.2169 23.1433 43.2169 23.9019C43.2169 23.9323 43.2148 23.9629 43.212 23.9937C43.211 24.0044 43.2098 24.0152 43.2084 24.026C43.206 24.0455 43.2026 24.065 43.1991 24.0846C43.1927 24.119 43.185 24.1536 43.1751 24.1884C43.1748 24.1894 43.1746 24.1905 43.1743 24.1915C43.042 24.6488 42.6056 25.1359 41.9144 25.614C41.5734 25.8473 41.1672 26.08 40.6991 26.3087V21.4869H40.6989ZM30.7373 15.6055H18.7464V14.8113H24.9439C25.4292 14.8113 25.8229 14.4178 25.8229 13.9323C25.8229 13.4468 25.4293 13.0533 24.9439 13.0533H18.7464V12.2591H30.7374V15.6055H30.7373ZM28.8944 10.5013H16.1038V9.90196H22.9208C23.1252 9.90196 23.3232 9.83068 23.4807 9.70052L25.2591 8.23081L27.2674 9.72776C27.4192 9.84088 27.6034 9.90196 27.7927 9.90196H28.8943L28.8944 10.5013ZM14.9297 5.00506C15.3884 4.20236 16.3893 2.84014 17.9376 2.7352C17.9857 2.73195 18.0331 2.7294 18.0797 2.72755C21.5563 2.58834 25.1065 2.04561 25.256 2.0225C25.2845 2.0181 25.3128 2.0123 25.3406 2.00518C26.9283 1.59763 28.1085 1.68271 28.949 2.26507C29.997 2.9914 30.6183 4.56464 30.9043 7.21603C31.0229 8.31598 30.9863 9.41813 30.7956 10.5013H30.6524V9.02297C30.6524 8.53755 30.2588 8.14398 29.7734 8.14398H28.0843L25.7565 6.40893C25.4317 6.16688 24.9834 6.17822 24.6713 6.43618L22.6047 8.14424H15.225C14.7396 8.14424 14.346 8.53773 14.346 9.02323V10.5016H14.3215C13.7714 8.63362 13.9843 6.65907 14.9297 5.00506ZM14.261 12.2593H16.9885V15.6055H14.261V12.2593ZM16.3548 17.3634H28.6436C28.0461 19.4339 26.4291 21.0899 24.3154 21.7149C23.8519 21.8519 23.5861 22.3373 23.7202 22.8017L24.3593 25.0142C24.3594 25.0146 24.3594 25.0148 24.3595 25.0152L24.4974 25.4924L22.4991 26.7035L20.5009 25.4924L20.6388 25.0152C20.6388 25.0148 20.6388 25.0146 20.6389 25.0142L21.2781 22.8017C21.4121 22.3375 21.1463 21.8519 20.683 21.7149C18.5693 21.0899 16.9524 19.4341 16.3548 17.3634ZM11.4661 28.4193C11.8968 26.8174 13.3615 25.6501 15.0832 25.6501H18.6255L18.6252 25.6511C18.515 26.0328 18.6744 26.4409 19.0141 26.6468L22.0437 28.4829C22.1837 28.5677 22.3415 28.6102 22.4992 28.6102C22.657 28.6102 22.8148 28.5677 22.9548 28.4829L25.9843 26.6468C26.324 26.4409 26.4835 26.0329 26.3733 25.6511L26.373 25.6501H29.9152C31.6365 25.6501 33.1013 26.8176 33.5323 28.4193C30.6303 28.9325 27.3639 29.233 23.9658 29.3003C23.9639 29.3003 23.962 29.3004 23.9601 29.3004C23.7443 29.3046 23.5276 29.3076 23.3108 29.3099C23.2721 29.3104 23.2337 29.3109 23.1949 29.3113C22.9635 29.3134 22.7316 29.3147 22.4992 29.3147C22.2668 29.3147 22.035 29.3134 21.8036 29.3113C21.7648 29.3109 21.7264 29.3104 21.6876 29.3099C21.4708 29.3076 21.2542 29.3046 21.0383 29.3004C21.0365 29.3004 21.0345 29.3003 21.0327 29.3003C17.6345 29.233 14.368 28.9324 11.4661 28.4193ZM27.9517 39.9484C27.9133 39.9515 27.8746 39.9543 27.8361 39.9574C27.6565 39.9717 27.4762 39.9852 27.2954 39.998C27.2073 40.0043 27.119 40.0104 27.0306 40.0163C26.8781 40.0265 26.7251 40.0361 26.5718 40.0452C26.4762 40.0509 26.3805 40.0567 26.2845 40.0619C26.1215 40.071 25.9578 40.0792 25.794 40.0871C25.7001 40.0915 25.6062 40.096 25.5121 40.1001C25.3362 40.1077 25.1597 40.1147 24.9828 40.121C24.8986 40.124 24.8143 40.1268 24.7299 40.1295C24.5385 40.1357 24.3467 40.1412 24.1544 40.1457C24.0914 40.1472 24.0284 40.1484 23.9654 40.1497C23.7516 40.1542 23.5375 40.158 23.3226 40.1605C23.289 40.161 23.2553 40.1612 23.2217 40.1615C22.9815 40.164 22.7408 40.1655 22.4995 40.1655C22.1983 40.1655 21.897 40.1635 21.5959 40.1596C21.5924 40.1596 21.5888 40.1595 21.5853 40.1594C19.4717 40.1312 17.3696 40.0059 15.3939 39.7908L15.9583 39.0933L17.3582 37.3633L18.9642 38.2268C18.9993 38.2457 19.0356 38.2616 19.0723 38.2753C19.0847 38.2799 19.0974 38.2831 19.11 38.2872C19.1346 38.2952 19.1593 38.3029 19.1843 38.3086C19.1993 38.312 19.2143 38.3143 19.2294 38.3169C19.2526 38.321 19.2758 38.3245 19.2991 38.3267C19.315 38.3282 19.3307 38.329 19.3465 38.3296C19.3578 38.33 19.3691 38.3316 19.3803 38.3316C19.3986 38.3316 19.4169 38.3306 19.4352 38.3294C19.4384 38.3293 19.4417 38.3293 19.4449 38.3291C19.4812 38.3264 19.5171 38.321 19.5528 38.3139C19.5586 38.3127 19.5645 38.3117 19.5703 38.3104C19.605 38.3028 19.6392 38.2929 19.6728 38.281C19.6787 38.2789 19.6846 38.2767 19.6904 38.2745C19.7243 38.2617 19.7577 38.247 19.7902 38.2299C19.7943 38.2277 19.7983 38.2254 19.8023 38.2231C19.8362 38.2045 19.8695 38.1841 19.9012 38.1608L20.6781 37.5895L21.4551 37.0182L23.0091 38.1609C23.1449 38.2608 23.3022 38.3168 23.4622 38.3291C23.6671 38.3449 23.8766 38.2888 24.0505 38.1609L25.6779 36.9644L26.7956 37.5652L28.4082 39.5582L28.673 39.8855C28.6635 39.8864 28.6539 39.8873 28.6444 39.8882C28.4143 39.9093 28.1835 39.9295 27.9517 39.9484ZM12.5416 39.4027C12.5343 39.4014 12.5269 39.4003 12.5196 39.3991C12.3952 39.3784 12.2717 39.3573 12.149 39.3359C12.1395 39.3342 12.1299 39.3326 12.1205 39.3309C11.9976 39.3094 11.8757 39.2874 11.7547 39.2652C11.7469 39.2638 11.7391 39.2624 11.7312 39.261C11.4734 39.2133 11.2197 39.164 10.9705 39.1131C10.9665 39.1123 10.9626 39.1114 10.9587 39.1106C10.8438 39.087 10.7301 39.0631 10.6171 39.0389C10.5733 39.0295 10.53 39.0198 10.4864 39.0102C10.4134 38.9943 10.3405 38.9784 10.2685 38.9622C10.2559 38.9593 10.2435 38.9564 10.2309 38.9535L14.9885 34.8687L16.2432 35.9461L13.3445 39.5286C13.2083 39.5084 13.0732 39.4878 12.939 39.4667C12.9354 39.4662 12.9318 39.4656 12.9282 39.4651C12.7984 39.4446 12.6696 39.4238 12.5416 39.4027ZM35.024 38.8947C34.1575 39.0978 32.7165 39.3496 30.7383 39.6437L28.0504 36.3218L27.7577 35.9602L30.0097 33.7285L35.1844 38.8563C35.1308 38.8691 35.0785 38.8818 35.024 38.8947ZM23.5294 36.3616L21.9753 35.2188C21.7818 35.0764 21.5444 35.0231 21.3179 35.0587C21.182 35.08 21.05 35.1334 20.9338 35.2188L19.3069 36.4153L18.4832 35.9725L21.9947 31.6325L24.9664 35.3051L23.5294 36.3616ZM4.2994 21.4869V26.3087C3.83112 26.0801 3.42497 25.8474 3.08396 25.6141C2.39288 25.1359 1.95641 24.649 1.82405 24.1915C1.82379 24.1905 1.82352 24.1894 1.82326 24.1885C1.81333 24.1537 1.80559 24.1191 1.79918 24.0847C1.79566 24.0652 1.79223 24.0456 1.78986 24.0261C1.78845 24.0153 1.78722 24.0045 1.78626 23.9938C1.78344 23.963 1.78133 23.9324 1.78133 23.9019C1.78125 23.1433 2.70172 22.2742 4.2994 21.4869ZM22.4991 43.242C9.66309 43.242 1.78125 40.0893 1.78125 37.8292V26.8478C2.28706 27.232 2.90176 27.598 3.62396 27.9448C3.63626 27.9508 3.64857 27.9568 3.66096 27.9627C3.73496 27.998 3.81029 28.033 3.88657 28.0679C3.92138 28.0839 3.95574 28.0999 3.99108 28.1159C4.01656 28.1274 4.04293 28.1386 4.0686 28.15C4.31829 28.2611 4.57942 28.3698 4.85152 28.4761C4.8539 28.477 4.85618 28.478 4.85856 28.4789C4.85882 28.479 4.85908 28.4791 4.85935 28.4792C5.50517 28.7314 6.21216 28.9703 6.98208 29.1947C10.5459 30.233 15.1054 30.8708 20.0199 31.0318C20.0485 31.0328 20.0771 31.0336 20.1056 31.0345C20.1419 31.0357 20.1781 31.037 20.2145 31.038L17.3495 34.5788L15.5611 33.0433C15.2317 32.7604 14.7453 32.7605 14.4159 33.0433L8.16473 38.4106C8.0009 38.3605 7.84042 38.31 7.68459 38.2586C7.22342 38.1065 6.72649 38.3568 6.57444 38.8178C6.42239 39.2788 6.6727 39.7758 7.1336 39.928C7.45176 40.0329 7.78601 40.1349 8.13291 40.2336C8.13335 40.2337 8.13379 40.2339 8.13414 40.234C8.13942 40.2355 8.14478 40.2369 8.15005 40.2384C8.25236 40.2674 8.35572 40.2962 8.46031 40.3246C8.47411 40.3284 8.48773 40.3321 8.50153 40.3359C8.60137 40.3629 8.70218 40.3896 8.80396 40.4159C8.82189 40.4206 8.83973 40.4254 8.85775 40.43C8.95583 40.4553 9.05497 40.4803 9.15482 40.505C9.17547 40.5101 9.19586 40.5153 9.21652 40.5204C9.33429 40.5493 9.45285 40.5779 9.57291 40.6061C9.71072 40.6384 9.85047 40.67 9.99101 40.7012C10.0316 40.7102 10.0726 40.7191 10.1134 40.728C10.2213 40.7515 10.3299 40.7747 10.4393 40.7977C10.4779 40.8057 10.5163 40.8139 10.5552 40.8219C10.6996 40.8517 10.845 40.881 10.9918 40.9096C11.01 40.9131 11.0286 40.9166 11.0467 40.9201C11.1768 40.9452 11.308 40.9699 11.4399 40.9943C11.4836 41.0023 11.5274 41.0103 11.5714 41.0182C11.6904 41.0397 11.81 41.0609 11.9304 41.0816C11.9656 41.0877 12.0004 41.0939 12.0358 41.0999C12.1883 41.1259 12.3419 41.1513 12.4967 41.1761C12.53 41.1815 12.5636 41.1866 12.5971 41.1919C12.722 41.2117 12.8477 41.231 12.974 41.2501C13.0209 41.2571 13.0677 41.2642 13.1146 41.2711C13.25 41.2911 13.3861 41.3107 13.523 41.3297C13.5426 41.3325 13.5618 41.3355 13.5814 41.3382C13.5853 41.3388 13.5892 41.3393 13.5931 41.3399C13.6008 41.341 13.6086 41.342 13.6162 41.343C13.7619 41.3631 13.9084 41.3826 14.0556 41.4016C14.0674 41.4031 14.079 41.4048 14.0907 41.4063C14.0928 41.4066 14.0948 41.4068 14.0967 41.4071L14.0969 41.4072C14.0972 41.4072 14.0973 41.4072 14.0975 41.4072C14.1386 41.4124 14.1802 41.4175 14.2214 41.4226C14.3346 41.437 14.448 41.4509 14.562 41.4647C14.6087 41.4703 14.6554 41.4759 14.7021 41.4814C16.7944 41.7279 19.0296 41.8751 21.3105 41.9132C21.3433 41.9137 21.3762 41.9142 21.4089 41.9147C21.5526 41.9169 21.6965 41.9186 21.8406 41.9199C21.8843 41.9204 21.928 41.9208 21.9718 41.9212C22.1472 41.9225 22.3228 41.9234 22.4987 41.9234C22.8249 41.9234 23.1503 41.9209 23.4752 41.9164C23.5176 41.9158 23.5601 41.9151 23.6025 41.9145C23.8818 41.9102 24.1605 41.9042 24.4384 41.8966C24.5053 41.8948 24.5723 41.893 24.6391 41.891C24.8978 41.8832 25.1555 41.8739 25.4126 41.8632C25.517 41.8589 25.6212 41.8544 25.7252 41.8496C25.9654 41.8386 26.205 41.8267 26.4434 41.8132C26.5403 41.8078 26.6367 41.8019 26.7333 41.7961C26.9585 41.7825 27.1828 41.7677 27.4061 41.752C27.4953 41.7456 27.5845 41.7394 27.6735 41.7327C27.93 41.7136 28.1849 41.6928 28.4385 41.6708C28.5061 41.6649 28.5736 41.659 28.6409 41.6529C28.9159 41.6281 29.1891 41.6018 29.4602 41.5737C29.5018 41.5694 29.5433 41.565 29.5849 41.5606C29.8695 41.5306 30.1517 41.4988 30.4313 41.4652C30.4465 41.4633 30.4618 41.4618 30.4769 41.4601C30.477 41.4601 30.4772 41.46 30.4774 41.46C30.4794 41.4597 30.4814 41.4593 30.4835 41.459C32.2562 41.2442 33.9237 40.9581 35.425 40.6061C35.5661 40.5731 35.7028 40.5399 35.8377 40.5066C35.8656 40.4996 35.8934 40.4926 35.9212 40.4856C36.0455 40.4545 36.1672 40.4234 36.2863 40.3922C36.2964 40.3895 36.3067 40.3869 36.3168 40.3842C39.3738 39.5786 40.6831 38.7358 41.1227 38.3906C41.5045 38.0907 41.5708 37.5382 41.271 37.1564C40.9713 36.7747 40.4185 36.7083 40.0369 37.0081C39.8714 37.1381 39.0918 37.691 37.1369 38.3165L30.6281 31.8666C30.2855 31.5271 29.7333 31.5271 29.3907 31.8666L26.6461 34.5865L23.7936 31.0613C24.1616 31.0551 24.5279 31.0462 24.8923 31.0347C24.9209 31.0338 24.9494 31.0329 24.978 31.032C29.8927 30.871 34.4522 30.2331 38.0158 29.1949C38.7858 28.9706 39.4927 28.7316 40.1386 28.4794C40.1388 28.4793 40.1391 28.4792 40.1394 28.4791C40.1417 28.4782 40.144 28.4773 40.1464 28.4763C40.4184 28.3699 40.6795 28.2612 40.9293 28.1502C40.9551 28.1388 40.9814 28.1275 41.0068 28.1161C41.0422 28.1002 41.0765 28.0841 41.1114 28.068C41.1876 28.0331 41.2629 27.9981 41.3369 27.9628C41.3493 27.9569 41.3616 27.9509 41.3739 27.945C42.0962 27.5982 42.7108 27.2323 43.2166 26.8479V37.8293C43.2169 40.0893 35.3352 43.242 22.4991 43.242Z" fill="black"/>
</g>
<defs>
<clipPath id="clip0_1695_622">
<rect width="45" height="45" fill="white"/>
</clipPath>
</defs>
</svg>
