<svg width="45" height="45" viewBox="0 0 45 45" fill="none" xmlns="http://www.w3.org/2000/svg">
<path d="M25.4023 39.9199H37.0152V44.2748H25.4023V39.9199Z" fill="#AAB2BD"/>
<path d="M44.2736 35.5654V37.017C44.2736 38.6211 42.9744 39.9203 41.3703 39.9203H37.0155H25.4026H21.0478C19.4437 39.9203 18.1445 38.6211 18.1445 37.017V35.5654H22.4994H27.101H31.209H35.3171H39.9187H44.2736Z" fill="#CCD1D9"/>
<path d="M44.2707 25.4042V35.5655H39.9158V32.6623L38.1666 32.0816C38.0215 31.5663 37.8182 31.08 37.5715 30.6228L38.3916 28.9824L36.3376 26.9284L34.6973 27.7486C34.5086 27.6469 34.3126 27.5526 34.1094 27.4655V22.501H41.3674C42.9715 22.501 44.2707 23.8002 44.2707 25.4042Z" fill="#69D6F4"/>
<path d="M28.3058 22.501V27.4655C28.1026 27.5526 27.9066 27.6469 27.7179 27.7486L26.0776 26.9284L24.0236 28.9824L24.8437 30.6228C24.5969 31.08 24.3937 31.5663 24.2486 32.0816L22.4994 32.6623V35.5655H18.1445V25.4042C18.1445 23.8002 19.4437 22.501 21.0478 22.501H28.3058Z" fill="#69D6F4"/>
<path d="M15.2388 34.1137V37.0169C15.2388 37.8153 14.5856 38.4686 13.7872 38.4686H2.17427C1.37588 38.4686 0.722656 37.8153 0.722656 37.0169V34.1137C0.722656 33.3153 1.37588 32.6621 2.17427 32.6621H13.7872C14.5856 32.6621 15.2388 33.3153 15.2388 34.1137Z" fill="#FCD770"/>
<path d="M0.722656 42.8226V39.9194C0.722656 39.121 1.37588 38.4678 2.17427 38.4678H13.7872C14.5856 38.4678 15.2388 39.121 15.2388 39.9194V42.8226C15.2388 43.621 14.5856 44.2742 13.7872 44.2742H2.17427C1.37588 44.2742 0.722656 43.621 0.722656 42.8226Z" fill="#FCD770"/>
<path d="M0.722656 31.2103V28.3071C0.722656 27.5087 1.37588 26.8555 2.17427 26.8555H7.98072H13.7872C14.5856 26.8555 15.2388 27.5087 15.2388 28.3071V31.2103C15.2388 32.0087 14.5856 32.6619 13.7872 32.6619H2.17427C1.37588 32.6619 0.722656 32.0087 0.722656 31.2103Z" fill="#FCD770"/>
<path d="M39.1904 9.43624C38.6025 9.43624 38.0364 9.54511 37.5065 9.72656C36.6573 6.22818 33.5146 3.62979 29.7549 3.62979C28.2162 3.62979 26.7791 4.07253 25.5598 4.82737C23.7089 2.34511 20.7549 0.726562 17.4162 0.726562C12.771 0.726562 8.8662 3.84027 7.65411 8.0935C7.2912 8.02092 6.91378 7.98463 6.52911 7.98463C3.32104 7.98463 0.722656 10.583 0.722656 13.7911C0.722656 16.9991 3.32104 19.5975 6.52911 19.5975H39.1904C41.9993 19.5975 44.271 17.3258 44.271 14.5169C44.271 11.708 41.9993 9.43624 39.1904 9.43624Z" fill="#E6E9ED"/>
<path d="M32.6597 25.4033H29.7564L29.1758 27.1525C28.8782 27.2396 28.5879 27.3412 28.3048 27.4646V22.5001V19.5968V16.6936H24.6758L30.0322 10.0017C30.3153 9.64603 30.7508 9.43555 31.208 9.43555C31.6653 9.43555 32.1008 9.64603 32.3838 10.0017L37.7403 16.6936H34.1113V19.5968V22.5001V27.4646C33.8282 27.3412 33.5379 27.2396 33.2403 27.1525L32.6597 25.4033Z" fill="#FF826E"/>
<path d="M39.9154 32.6614V35.5646H35.3138C35.4735 35.1074 35.5606 34.6211 35.5606 34.113C35.5606 31.7106 33.6082 29.7582 31.2058 29.7582C28.8034 29.7582 26.8509 31.7106 26.8509 34.113C26.8509 34.6211 26.938 35.1074 27.0977 35.5646H22.4961V32.6614L24.2453 32.0807C24.3904 31.5654 24.5937 31.0791 24.8404 30.6219L24.0203 28.9815L26.0743 26.9275L27.7146 27.7477C27.9034 27.6461 28.0993 27.5517 28.3025 27.4646C28.5856 27.3412 28.8759 27.2396 29.1735 27.1525L29.7542 25.4033H32.6574L33.238 27.1525C33.5356 27.2396 33.8259 27.3412 34.109 27.4646C34.3122 27.5517 34.5082 27.6461 34.6969 27.7477L36.3372 26.9275L38.3913 28.9815L37.5711 30.6219C37.8179 31.0791 38.0211 31.5654 38.1663 32.0807L39.9154 32.6614Z" fill="#FFC729"/>
<path d="M35.3145 35.5652H31.2064C32.0048 35.5652 32.658 34.912 32.658 34.1136C32.658 33.3152 32.0048 32.662 31.2064 32.662C30.408 32.662 29.7548 33.3152 29.7548 34.1136C29.7548 34.912 30.408 35.5652 31.2064 35.5652H27.0983C26.9387 35.108 26.8516 34.6217 26.8516 34.1136C26.8516 31.7112 28.804 29.7588 31.2064 29.7588C33.6088 29.7588 35.5612 31.7112 35.5612 34.1136C35.5612 34.6217 35.4741 35.108 35.3145 35.5652Z" fill="#FCD770"/>
<path d="M41.371 21.7742H34.8387V20.3226H39.1935C42.3951 20.3226 45 17.7177 45 14.5161C45 11.3146 42.3951 8.70968 39.1935 8.70968C38.7958 8.70968 38.3988 8.75177 38.0061 8.83524C36.826 5.30782 33.5344 2.90323 29.7581 2.90323C28.3609 2.90323 26.9869 3.2429 25.7465 3.8896C23.6693 1.40952 20.6695 0 17.4194 0C12.801 0 8.66613 2.96637 7.15137 7.28855C3.29516 6.92056 0 9.98419 0 13.7903C0 17.3918 2.93008 20.3226 6.53226 20.3226H7.25806V26.129H2.17742C0.976935 26.129 0 27.106 0 28.3065V31.2097C0 31.7693 0.218468 32.2752 0.566129 32.6613C0.218468 33.0474 0 33.5533 0 34.1129V37.0161C0 37.5757 0.218468 38.0816 0.566129 38.4677C0.218468 38.8539 0 39.3598 0 39.9194V42.8226C0 44.0231 0.976935 45 2.17742 45H13.7903C14.9908 45 15.9677 44.0231 15.9677 42.8226V39.9194C15.9677 39.3598 15.7493 38.8539 15.4016 38.4677C15.75 38.0816 15.9677 37.5757 15.9677 37.0161V34.1129C15.9677 33.5533 15.7493 33.0474 15.4016 32.6613C15.75 32.2752 15.9677 31.7693 15.9677 31.2097V28.3065C15.9677 27.106 14.9908 26.129 13.7903 26.129H8.70968V20.3226H27.5806V21.7742H21.0484C19.0473 21.7742 17.4194 23.4022 17.4194 25.4032V37.0161C17.4194 39.0172 19.0473 40.6452 21.0484 40.6452H24.6774V43.5484H21.7742V45H40.6452V43.5484H37.7419V40.6452H41.371C43.372 40.6452 45 39.0172 45 37.0161V25.4032C45 23.4022 43.372 21.7742 41.371 21.7742ZM14.5161 34.1129V37.0161C14.5161 37.4168 14.191 37.7419 13.7903 37.7419H2.17742C1.77677 37.7419 1.45161 37.4168 1.45161 37.0161V34.1129C1.45161 33.7123 1.77677 33.3871 2.17742 33.3871H13.7903C14.191 33.3871 14.5161 33.7123 14.5161 34.1129ZM14.5161 42.8226C14.5161 43.2232 14.191 43.5484 13.7903 43.5484H2.17742C1.77677 43.5484 1.45161 43.2232 1.45161 42.8226V39.9194C1.45161 39.5187 1.77677 39.1935 2.17742 39.1935H13.7903C14.191 39.1935 14.5161 39.5187 14.5161 39.9194V42.8226ZM14.5161 28.3065V31.2097C14.5161 31.6103 14.191 31.9355 13.7903 31.9355H2.17742C1.77677 31.9355 1.45161 31.6103 1.45161 31.2097V28.3065C1.45161 27.9058 1.77677 27.5806 2.17742 27.5806H13.7903C14.191 27.5806 14.5161 27.9058 14.5161 28.3065ZM41.371 23.2258C42.5715 23.2258 43.5484 24.2027 43.5484 25.4032V34.8387H40.6452V32.138L38.7537 31.5073C38.6485 31.201 38.5265 30.9034 38.3879 30.6181L39.2785 28.837L36.4856 26.0441L34.8387 26.8679V23.2258H41.371ZM30.4839 34.1129C30.4839 33.7123 30.809 33.3871 31.2097 33.3871C31.6103 33.3871 31.9355 33.7123 31.9355 34.1129C31.9355 34.5135 31.6103 34.8387 31.2097 34.8387C30.809 34.8387 30.4839 34.5135 30.4839 34.1129ZM31.2097 31.9355C30.0092 31.9355 29.0323 32.9124 29.0323 34.1129C29.0323 34.3684 29.0845 34.6108 29.1658 34.8387H27.6612C27.6126 34.6006 27.5806 34.3597 27.5806 34.1129C27.5806 32.1119 29.2086 30.4839 31.2097 30.4839C33.2107 30.4839 34.8387 32.1119 34.8387 34.1129C34.8387 34.3597 34.8068 34.6006 34.7581 34.8387H33.2536C33.3348 34.6108 33.3871 34.3684 33.3871 34.1129C33.3871 32.9124 32.4102 31.9355 31.2097 31.9355ZM31.2097 29.0323C28.4088 29.0323 26.129 31.312 26.129 34.1129C26.129 34.3582 26.1559 34.5992 26.1907 34.8387H23.2258V33.1846L24.8364 32.6482L24.9423 32.2831C25.0781 31.8179 25.2595 31.3781 25.4816 30.9738L25.6652 30.6399L24.9075 29.1237L26.2205 27.8107L27.7367 28.5685L28.0706 28.3848C28.4748 28.162 28.9147 27.9806 29.3799 27.8456L29.745 27.7396L30.2814 26.129H32.1387L32.6751 27.7396L33.0402 27.8456C33.5054 27.9813 33.9452 28.1627 34.3495 28.3848L34.6834 28.5685L36.1996 27.8107L37.5126 29.1237L36.7548 30.6399L36.9385 30.9738C37.1613 31.3781 37.3427 31.8179 37.4777 32.2831L37.5837 32.6482L39.1935 33.1846V34.8387H36.2286C36.2635 34.5992 36.2903 34.3582 36.2903 34.1129C36.2903 31.312 34.0106 29.0323 31.2097 29.0323ZM33.3871 15.9677V25.2856L33.1846 24.6774H29.2355L29.0323 25.2856V15.9677H26.1871L30.5964 10.456C30.8969 10.0807 31.5225 10.0815 31.8215 10.4552L36.2323 15.9677H33.3871ZM6.53226 18.871C3.73137 18.871 1.45161 16.5919 1.45161 13.7903C1.45161 10.6657 4.33089 8.17984 7.51573 8.80694L8.16968 8.93468L8.35331 8.29379C9.50444 4.26556 13.2322 1.45161 17.4194 1.45161C20.4213 1.45161 23.1772 2.84081 24.9815 5.26282L25.38 5.79702L25.9461 5.44645C27.0973 4.73226 28.4153 4.35484 29.7581 4.35484C33.1142 4.35484 36.0116 6.6346 36.8035 9.89855L36.9929 10.6781L37.7499 10.4117C38.2231 10.2455 38.7087 10.1613 39.1935 10.1613C41.5952 10.1613 43.5484 12.1144 43.5484 14.5161C43.5484 16.9178 41.5952 18.871 39.1935 18.871H34.8387V17.4194H39.2516L32.9552 9.54798C32.5285 9.01524 31.8919 8.70968 31.2097 8.70968C30.5274 8.70968 29.8909 9.01524 29.4634 9.54871L23.1677 17.4194H27.5806V18.871H6.53226ZM21.0484 23.2258H27.5806V26.8679L25.9338 26.0448L23.1409 28.8377L24.0315 30.6189C23.8935 30.9041 23.7709 31.2017 23.6656 31.508L21.7742 32.138V34.8387H18.871V25.4032C18.871 24.2027 19.8479 23.2258 21.0484 23.2258ZM36.2903 43.5484H26.129V40.6452H36.2903V43.5484ZM41.371 39.1935H21.0484C19.8479 39.1935 18.871 38.2166 18.871 37.0161V36.2903H43.5484V37.0161C43.5484 38.2166 42.5715 39.1935 41.371 39.1935Z" fill="black"/>
<path d="M5.80469 29.0322H7.2563V30.4838H5.80469V29.0322Z" fill="black"/>
<path d="M8.71094 29.0322H10.1626V30.4838H8.71094V29.0322Z" fill="black"/>
<path d="M2.90234 29.0322H4.35396V30.4838H2.90234V29.0322Z" fill="black"/>
<path d="M5.80469 34.8389H7.2563V36.2905H5.80469V34.8389Z" fill="black"/>
<path d="M11.6133 34.8389H13.0649V36.2905H11.6133V34.8389Z" fill="black"/>
<path d="M8.71094 34.8389H10.1626V36.2905H8.71094V34.8389Z" fill="black"/>
<path d="M5.80469 40.6455H7.2563V42.0971H5.80469V40.6455Z" fill="black"/>
<path d="M8.71094 40.6455H10.1626V42.0971H8.71094V40.6455Z" fill="black"/>
<path d="M2.90234 40.6455H4.35396V42.0971H2.90234V40.6455Z" fill="black"/>
<path d="M9.59375 9.29114L11.0171 9.58001C11.6311 6.55268 14.3231 4.35493 17.4179 4.35493C18.3267 4.35493 19.2056 4.53784 20.0308 4.89856L20.6115 3.56816C19.6026 3.12687 18.5277 2.90332 17.4179 2.90332C13.6358 2.90332 10.3457 5.58953 9.59375 9.29114Z" fill="black"/>
<path d="M4.35396 13.79H2.90234C2.90234 15.7911 4.53033 17.4191 6.53138 17.4191H7.98299V15.9675H6.53138C5.33089 15.9675 4.35396 14.9905 4.35396 13.79Z" fill="black"/>
<path d="M9.43359 15.9678H10.8852V17.4194H9.43359V15.9678Z" fill="black"/>
</svg>
