<svg width="45" height="45" viewBox="0 0 45 45" fill="none" xmlns="http://www.w3.org/2000/svg">
<path d="M3.1982 12.3193C4.57619 12.3193 5.69328 11.2022 5.69328 9.82418C5.69328 8.44618 4.57619 7.3291 3.1982 7.3291C1.82021 7.3291 0.703125 8.44618 0.703125 9.82418C0.703125 11.2022 1.82021 12.3193 3.1982 12.3193Z" fill="#FFE177"/>
<path fill-rule="evenodd" clip-rule="evenodd" d="M3.19871 7.3291C4.57672 7.3291 5.69378 8.44617 5.69378 9.82418C5.69378 11.2022 4.57672 12.3193 3.19871 12.3193C3.05917 12.3193 2.92244 12.3076 2.78906 12.2856C3.97218 12.0902 4.87458 11.0626 4.87458 9.82418C4.87458 8.58571 3.97218 7.55829 2.78906 7.36276C2.92244 7.34081 3.05917 7.3291 3.19871 7.3291Z" fill="#FFD064"/>
<path d="M19.1865 5.69718C20.5645 5.69718 21.6816 4.5801 21.6816 3.20211C21.6816 1.82411 20.5645 0.707031 19.1865 0.707031C17.8085 0.707031 16.6914 1.82411 16.6914 3.20211C16.6914 4.5801 17.8085 5.69718 19.1865 5.69718Z" fill="#FFE177"/>
<path fill-rule="evenodd" clip-rule="evenodd" d="M19.187 0.707031C20.565 0.707031 21.6821 1.8241 21.6821 3.20211C21.6821 4.58011 20.565 5.69718 19.187 5.69718C19.0474 5.69718 18.9107 5.68557 18.7773 5.66352C19.9605 5.46809 20.8629 4.44057 20.8629 3.20211C20.8629 1.96364 19.9605 0.936125 18.7773 0.740692C18.9107 0.718735 19.0474 0.707031 19.187 0.707031Z" fill="#FFD064"/>
<path d="M41.792 28.3056C43.1699 28.3056 44.287 27.1885 44.287 25.8105C44.287 24.4325 43.1699 23.3154 41.792 23.3154C40.414 23.3154 39.2969 24.4325 39.2969 25.8105C39.2969 27.1885 40.414 28.3056 41.792 28.3056Z" fill="#FFE177"/>
<path fill-rule="evenodd" clip-rule="evenodd" d="M41.7925 23.3154C43.1705 23.3154 44.2875 24.4325 44.2875 25.8105C44.2875 27.1885 43.1705 28.3056 41.7925 28.3056C41.6529 28.3056 41.5162 28.294 41.3828 28.2719C42.5659 28.0765 43.4683 27.049 43.4683 25.8105C43.4683 24.572 42.5659 23.5445 41.3828 23.3491C41.5162 23.327 41.6529 23.3154 41.7925 23.3154Z" fill="#FFD064"/>
<path d="M35.2187 44.309C36.5966 44.2828 37.6925 43.1445 37.6663 41.7665C37.6401 40.3885 36.5018 39.2926 35.1239 39.3188C33.7459 39.345 32.6501 40.4833 32.6763 41.8613C32.7025 43.2393 33.8408 44.3351 35.2187 44.309Z" fill="#FFE177"/>
<path fill-rule="evenodd" clip-rule="evenodd" d="M35.1714 39.3027C36.5494 39.3027 37.6664 40.4198 37.6664 41.7978C37.6664 43.1758 36.5494 44.2929 35.1714 44.2929C35.0318 44.2929 34.8951 44.2813 34.7617 44.2592C35.9448 44.0638 36.8472 43.0363 36.8472 41.7978C36.8472 40.5593 35.9448 39.5318 34.7617 39.3364C34.8951 39.3144 35.0318 39.3027 35.1714 39.3027Z" fill="#FFD064"/>
<path d="M3.1982 44.2929C4.57619 44.2929 5.69328 43.1758 5.69328 41.7978C5.69328 40.4198 4.57619 39.3027 3.1982 39.3027C1.82021 39.3027 0.703125 40.4198 0.703125 41.7978C0.703125 43.1758 1.82021 44.2929 3.1982 44.2929Z" fill="#FFE177"/>
<path fill-rule="evenodd" clip-rule="evenodd" d="M3.19871 39.3027C4.57672 39.3027 5.69378 40.4198 5.69378 41.7978C5.69378 43.1758 4.57672 44.2929 3.19871 44.2929C3.05917 44.2929 2.92244 44.2813 2.78906 44.2592C3.97218 44.0638 4.87458 43.0363 4.87458 41.7978C4.87458 40.5593 3.97218 39.5318 2.78906 39.3364C2.92244 39.3144 3.05917 39.3027 3.19871 39.3027Z" fill="#FFD064"/>
<path fill-rule="evenodd" clip-rule="evenodd" d="M6.54955 20.8176C4.60539 21.6137 3.22656 23.5289 3.22656 25.751C3.22656 28.6813 5.62392 31.0787 8.55423 31.0787H29.816C32.7463 31.0787 35.1437 28.6813 35.1437 25.751C35.1437 23.3011 33.4678 21.2241 31.2059 20.6088C30.789 16.7567 27.5268 13.7577 23.5639 13.7577C22.6534 13.7577 21.7798 13.916 20.9693 14.2066C19.437 12.7241 17.35 11.8115 15.0497 11.8115C10.3472 11.8115 6.53512 15.6236 6.53512 20.3261C6.53512 20.4912 6.5402 20.6549 6.54955 20.8176Z" fill="#8AC9FE"/>
<path fill-rule="evenodd" clip-rule="evenodd" d="M32.7356 30.2007C34.183 29.2456 35.1431 27.6052 35.1431 25.751C35.1431 23.3011 33.4672 21.2241 31.2053 20.6088C30.7885 16.7567 27.5262 13.7577 23.5633 13.7577C22.6528 13.7577 21.7792 13.916 20.9687 14.2066C19.4365 12.7241 17.3495 11.8115 15.0491 11.8115C12.3081 11.8115 9.86988 13.1071 8.3125 15.119C9.75193 14.0046 11.5582 13.3411 13.5195 13.3411C15.8199 13.3411 17.9068 14.2536 19.4391 15.7361C20.2496 15.4455 21.1231 15.2871 22.0337 15.2871C25.9966 15.2871 29.2588 18.2862 29.6757 22.1382C31.9376 22.7536 33.6135 24.8306 33.6135 27.2804C33.6135 28.3566 33.2898 29.3606 32.7356 30.2007Z" fill="#60B7FF"/>
<path fill-rule="evenodd" clip-rule="evenodd" d="M25.7273 40.6749C25.7273 41.2444 25.261 41.7107 24.6915 41.7107H13.6842C13.1146 41.7107 12.6484 41.2446 12.6484 40.6749V21.4811C12.6484 20.9114 13.1145 20.4453 13.6842 20.4453H24.6915C25.2612 20.4453 25.7273 20.9115 25.7273 21.4811V40.6749Z" fill="#D8ECFE"/>
<path fill-rule="evenodd" clip-rule="evenodd" d="M25.7278 40.6749C25.7278 41.2444 25.2615 41.7107 24.6921 41.7107H23.6953C24.2648 41.7107 24.7311 41.2444 24.7311 40.6749V21.4811C24.7311 20.9115 24.265 20.4453 23.6953 20.4453H24.6921C25.2618 20.4453 25.7278 20.9115 25.7278 21.4811V40.6749Z" fill="#C4E2FF"/>
<path fill-rule="evenodd" clip-rule="evenodd" d="M15.5039 20.4453H22.8715L22.4832 21.6401C22.4154 21.849 22.2289 21.9845 22.0093 21.9845H16.3661C16.1465 21.9845 15.96 21.8489 15.8922 21.6401L15.5039 20.4453Z" fill="#ECEFF1"/>
<path fill-rule="evenodd" clip-rule="evenodd" d="M22.0691 20.4453H22.873L22.4848 21.6401C22.4169 21.849 22.2305 21.9845 22.0109 21.9845H21.207C21.4266 21.9845 21.6131 21.8489 21.6809 21.6401L22.0691 20.4453Z" fill="#D1D1D6"/>
<path fill-rule="evenodd" clip-rule="evenodd" d="M20.857 39.5906C20.857 39.9916 20.5316 40.3166 20.1309 40.3166H18.2459C17.8445 40.3166 17.5199 39.9908 17.5199 39.5906C17.5199 39.1896 17.8445 38.865 18.2459 38.865H20.1309C20.532 38.865 20.857 39.1896 20.857 39.5906ZM15.7788 15.0302C15.7788 15.4313 15.4538 15.7563 15.0528 15.7563C12.5323 15.7563 10.4812 17.8066 10.4812 20.3271C10.4812 20.7281 10.1562 21.0531 9.75515 21.0531C9.35504 21.0531 9.02913 20.7281 9.02913 20.3271C9.02913 17.0063 11.7312 14.3043 15.0528 14.3043C15.4538 14.3042 15.7788 14.6292 15.7788 15.0302ZM28.2561 4.85306C28.2378 4.45294 28.5482 4.11343 28.9484 4.09546C32.1248 3.95283 35.0599 5.05802 37.2111 7.20913C39.3622 9.36152 40.4674 12.2954 40.3264 15.4718C40.3093 15.8613 39.9848 16.1654 39.6004 16.1654C39.5919 16.1654 39.5791 16.1654 39.5663 16.1641C39.167 16.1461 38.857 15.8066 38.875 15.407C39.0005 12.6422 38.0439 10.0961 36.1849 8.23629C34.325 6.37651 31.7772 5.4203 29.0146 5.54542C28.6118 5.56157 28.2741 5.25408 28.2561 4.85306ZM27.973 11.1244C27.991 11.5245 28.3305 11.8312 28.7314 11.8167C29.8221 11.7659 30.8218 12.1412 31.5504 12.8707C32.279 13.5997 32.6535 14.6003 32.604 15.6901C32.5856 16.0899 32.8961 16.4294 33.2971 16.4473C33.3078 16.4485 33.3188 16.4485 33.3295 16.4485C33.716 16.4485 34.0363 16.1445 34.0546 15.755C34.1217 14.2535 33.5973 12.8647 32.5767 11.844C31.5569 10.8229 30.1676 10.2976 28.6661 10.3668C28.2651 10.3847 27.9546 10.7242 27.973 11.1244ZM28.1147 7.98851C28.1327 8.38862 28.4675 8.69829 28.8728 8.68078C30.8001 8.59449 32.5728 9.259 33.8677 10.5539C35.1616 11.8474 35.8265 13.621 35.7394 15.5483C35.7215 15.9484 36.0316 16.288 36.4325 16.3059C36.4436 16.3067 36.4543 16.3067 36.4653 16.3067C36.8509 16.3067 37.1721 16.0027 37.1901 15.6136C37.2956 13.2746 36.4799 11.1133 34.8938 9.52638C33.3077 7.94069 31.1468 7.12675 28.8078 7.231C28.4069 7.24924 28.0972 7.58839 28.1147 7.98851ZM41.7955 27.5634C40.8303 27.5634 40.0446 26.7781 40.0446 25.8116C40.0446 24.8465 40.8304 24.0602 41.7955 24.0602C42.7649 24.0602 43.5506 24.8464 43.5506 25.8116C43.5506 26.7781 42.7649 27.5634 41.7955 27.5634ZM29.8191 30.3534C32.3571 30.3534 34.421 28.2894 34.421 25.7518C34.421 23.6823 33.022 21.855 31.0186 21.3105C30.7304 21.2315 30.5199 20.9847 30.487 20.6878C30.1047 17.1513 27.129 14.4849 23.567 14.4849C22.7594 14.4849 21.9693 14.6211 21.2169 14.8914C20.9569 14.9837 20.6664 14.9213 20.4678 14.7291C19.0069 13.3164 17.0842 12.5387 15.0528 12.5387C10.7579 12.5387 7.26371 16.0329 7.26371 20.3269C7.26371 20.472 7.26843 20.6237 7.27732 20.777C7.29438 21.0862 7.11419 21.3732 6.82721 21.4901C5.08283 22.2052 3.95578 23.8771 3.95578 25.7518C3.95578 28.2893 6.01971 30.3534 8.5577 30.3534H11.9229V21.3677C11.9229 20.4594 12.6612 19.721 13.5696 19.721H24.8063C25.7146 19.721 26.453 20.4593 26.453 21.3677V30.3534H29.8191ZM16.4911 21.1726H21.8857L21.6547 21.7969H16.7213L16.4911 21.1726ZM25.0015 40.7919V21.3677C25.0015 21.2614 24.9127 21.1726 24.8064 21.1726H23.433L22.8411 22.774C22.736 23.0588 22.464 23.2484 22.1608 23.2484H16.2161C15.9121 23.2484 15.6409 23.0588 15.5354 22.774L14.943 21.1726H13.5696C13.4641 21.1726 13.3745 21.2614 13.3745 21.3677V40.7919C13.3745 40.8974 13.4641 40.987 13.5696 40.987H24.8063C24.9127 40.987 25.0015 40.8974 25.0015 40.7919ZM36.4137 40.5596C37.0966 41.2429 37.0966 42.3545 36.4137 43.0365C35.7304 43.7198 34.6188 43.7198 33.9368 43.0373C33.2535 42.3545 33.2535 41.2429 33.9368 40.5596C34.2776 40.2188 34.7269 40.048 35.1753 40.048C35.6233 40.048 36.0725 40.2188 36.4137 40.5596ZM4.44046 43.0373C3.75718 43.7198 2.64555 43.7198 1.96226 43.0365C1.28025 42.3545 1.28025 41.2429 1.96226 40.5596C2.30432 40.2188 2.7527 40.048 3.20073 40.048C3.65002 40.048 4.09796 40.2188 4.44046 40.5596C5.12248 41.2429 5.12248 42.3545 4.44046 43.0373ZM1.96235 11.0633C1.28034 10.3804 1.28034 9.26961 1.96235 8.58633C2.30441 8.24509 2.75279 8.0747 3.20082 8.0747C3.65011 8.0747 4.09805 8.24509 4.44055 8.58633C5.12257 9.26961 5.12257 10.3804 4.44055 11.0633C3.75727 11.7465 2.64555 11.7465 1.96235 11.0633ZM17.4366 3.2025C17.4366 2.23731 18.222 1.45159 19.1884 1.45159C20.154 1.45159 20.9394 2.23731 20.9394 3.2025C20.9394 4.16895 20.154 4.95468 19.1884 4.95468C18.222 4.95468 17.4366 4.16895 17.4366 3.2025ZM41.7955 22.6087C40.2795 22.6087 39.0077 23.6686 38.678 25.0857H35.8347C35.5805 22.8039 34.0393 20.8403 31.8661 20.0567C31.1986 16.0202 27.7117 13.0334 23.5671 13.0334C22.7424 13.0334 21.9323 13.1512 21.1508 13.3853C20.7617 13.0433 20.3479 12.7383 19.9145 12.4688V6.32216C21.3314 5.99245 22.3914 4.71987 22.3914 3.2025C22.3914 1.43707 20.954 0 19.1884 0C17.4222 0 15.9847 1.43707 15.9847 3.2025C15.9847 4.71987 17.0446 5.99245 18.4624 6.32216V11.7377C17.3901 11.3119 16.237 11.0868 15.0528 11.0868C12.4234 11.0868 10.0464 12.1912 8.36254 13.9596L5.92018 11.5169C6.6893 10.2814 6.53896 8.63296 5.46617 7.56071C4.21699 6.31118 2.18555 6.31118 0.936379 7.56071C-0.312157 8.80889 -0.312157 10.8412 0.936561 12.0895C1.56051 12.7147 2.3808 13.0268 3.20082 13.0268C3.78975 13.0268 4.37777 12.8654 4.89411 12.5442L7.44281 15.0925C6.41484 16.5816 5.8123 18.3851 5.8123 20.3269V20.3606C3.78721 21.392 2.50438 23.4572 2.50438 25.7517C2.50438 29.0896 5.22002 31.8048 8.55788 31.8048H11.9231V32.0499L4.8942 39.0797C3.65828 38.3106 2.00899 38.4609 0.936651 39.5336C-0.312066 40.7828 -0.312066 42.8142 0.936651 44.0638C1.5606 44.6878 2.38089 45 3.20218 45C4.02211 45 4.84249 44.6878 5.46644 44.0638C6.53923 42.9911 6.68948 41.3418 5.92045 40.1059L11.9231 34.1032V40.7918C11.9231 41.7001 12.6615 42.4385 13.5699 42.4385H24.8065C25.7148 42.4385 26.4533 41.7001 26.4533 40.7918V34.1032L32.456 40.1059C31.6877 41.3419 31.8385 42.9911 32.9108 44.0638C33.5347 44.6878 34.3551 45 35.1755 45C35.9955 45 36.8158 44.6878 37.4398 44.0638C38.6893 42.8143 38.6893 40.7828 37.4398 39.5336C36.3683 38.4608 34.7191 38.3106 33.4831 39.0797L26.4534 32.0499V31.8048H29.8195C32.8909 31.8048 35.4339 29.505 35.8204 26.5374H38.6783C39.0081 27.9553 40.2798 29.0152 41.7958 29.0152C43.5638 29.0152 44.9987 27.5778 44.9987 25.8114C44.9984 24.0462 43.5635 22.6087 41.7955 22.6087Z" fill="black"/>
</svg>
