<svg width="93" height="90" viewBox="0 0 93 90" fill="none" xmlns="http://www.w3.org/2000/svg">
<mask id="mask0_619_980" style="mask-type:alpha" maskUnits="userSpaceOnUse" x="0" y="0" width="93" height="90">
<path d="M0.730469 0H92.9994V90H0.730469V0Z" fill="#D9D9D9"/>
</mask>
<g mask="url(#mask0_619_980)">
<path fill-rule="evenodd" clip-rule="evenodd" d="M49.6813 69.9692L61.9587 72.0215L59.3269 87.7666C59.2567 88.1851 59.3245 88.6148 59.5196 88.9888C59.7147 89.3629 60.0263 89.6604 60.406 89.8352C60.7856 90.01 61.2122 90.0524 61.6194 89.9557C62.0266 89.859 62.3917 89.6287 62.6581 89.3004L81.9868 65.5052C82.1993 65.2436 82.3406 64.9301 82.3963 64.5962C82.452 64.2624 82.4203 63.92 82.3043 63.6035C82.1883 63.287 81.9921 63.0075 81.7354 62.7932C81.4788 62.579 81.1707 62.4374 80.8423 62.3828L68.5655 60.3307L71.1974 44.5856C71.2675 44.167 71.1998 43.7373 71.0047 43.3633C70.8095 42.9893 70.498 42.6917 70.1183 42.5169C69.7386 42.3421 69.3121 42.2997 68.9048 42.3964C68.4976 42.4931 68.1325 42.7235 67.8661 43.0517L48.5388 66.8462C48.3264 67.1077 48.1852 67.4209 48.1294 67.7546C48.0736 68.0882 48.1051 68.4304 48.2209 68.7468C48.3366 69.0632 48.5325 69.3426 48.7888 69.557C49.0451 69.7714 49.3528 69.9132 49.681 69.9682L49.6813 69.9692Z" fill="#2DDBE2"/>
<path fill-rule="evenodd" clip-rule="evenodd" d="M19.7324 10.3784H74.0013C78.9719 10.3784 83.0013 14.4079 83.0013 19.3784V55.4961C83.0013 55.6652 82.9967 55.8332 82.9875 56H92.9948C92.9991 55.8326 93.0013 55.6646 93.0013 55.4961V19.3784C93.0013 8.88501 84.4947 0.378418 74.0013 0.378418H19.7324C9.23901 0.378418 0.732422 8.885 0.732422 19.3784V55.4961C0.732422 65.9895 9.23903 74.4961 19.7324 74.4961H29V64.4961H19.7324C14.7619 64.4961 10.7324 60.4666 10.7324 55.4961V19.3784C10.7324 14.4079 14.7619 10.3784 19.7324 10.3784Z" fill="#E635A8"/>
<path d="M41.8764 68.6891C42.4295 69.0882 42.4295 69.9117 41.8764 70.3109L29.5852 79.1813C28.9238 79.6586 28 79.186 28 78.3704L28 60.6296C28 59.814 28.9238 59.3414 29.5852 59.8187L41.8764 68.6891Z" fill="#E635A8"/>
</g>
</svg>
