<svg xmlns="http://www.w3.org/2000/svg" xmlns:xlink="http://www.w3.org/1999/xlink" width="122" height="122" viewBox="0 0 122 122">
  <defs>
    <clipPath id="clip-path">
      <circle id="Ellipse_2170" data-name="Ellipse 2170" cx="58.296" cy="58.296" r="58.296" fill="#15203e"/>
    </clipPath>
  </defs>
  <g id="full_time_hiring" transform="translate(-2362.2 -1376.436)">
    <g id="Group_74991" data-name="Group 74991" transform="translate(2362.2 1376.436)">
      <circle id="Ellipse_2169" data-name="Ellipse 2169" cx="61" cy="61" r="61" fill="#ff8285"/>
    </g>
    <g id="Group_74994" data-name="Group 74994" transform="translate(2364.654 1378.89)">
      <g id="Group_74993" data-name="Group 74993" transform="translate(0 0)" style="isolation: isolate">
        <g id="Group_74992" data-name="Group 74992" clip-path="url(#clip-path)">
          <rect id="Rectangle_9985" data-name="Rectangle 9985" width="157.922" height="157.973" transform="translate(-20.652 -20.685)" fill="#15203e"/>
        </g>
      </g>
    </g>
    <g id="Group_75000" data-name="Group 75000" transform="translate(2367.153 1381.927)">
      <g id="Group_74995" data-name="Group 74995" transform="translate(55.427 55.427)">
        <path id="Path_151375" data-name="Path 151375" d="M2644.672,1661.449Z" transform="translate(-2644.672 -1661.449)" fill="#ff8285"/>
      </g>
      <g id="Group_74996" data-name="Group 74996" transform="translate(55.427 55.427)">
        <path id="Path_151376" data-name="Path 151376" d="M2644.672,1661.449Z" transform="translate(-2644.672 -1661.449)" fill="#ff8285"/>
      </g>
      <g id="Group_74997" data-name="Group 74997" transform="translate(55.427 55.427)">
        <path id="Path_151377" data-name="Path 151377" d="M2644.672,1661.449Z" transform="translate(-2644.672 -1661.449)" fill="#ff8285"/>
      </g>
      <g id="Group_74998" data-name="Group 74998" transform="translate(55.427 55.427)">
        <path id="Path_151378" data-name="Path 151378" d="M2644.672,1661.449Z" transform="translate(-2644.672 -1661.449)" fill="#ff8285"/>
      </g>
      <g id="Group_74999" data-name="Group 74999">
        <path id="Path_151379" data-name="Path 151379" d="M2486.6,1427.884a55.48,55.48,0,1,0,7.12,27.19A55.689,55.689,0,0,0,2486.6,1427.884Z" transform="translate(-2382.869 -1399.646)" fill="#ff8285"/>
      </g>
    </g>
    <g id="Group_75061" data-name="Group 75061" transform="translate(2367.854 1382.091)">
      <g id="Group_75001" data-name="Group 75001" transform="translate(54.543 0)">
        <rect id="Rectangle_9986" data-name="Rectangle 9986" width="1.105" height="5.401"/>
      </g>
      <g id="Group_75002" data-name="Group 75002" transform="translate(27.031 7.127)">
        <rect id="Rectangle_9987" data-name="Rectangle 9987" width="1.105" height="5.401" transform="translate(0 0.553) rotate(-30.048)"/>
      </g>
      <g id="Group_75003" data-name="Group 75003" transform="translate(7.061 27.147)">
        <rect id="Rectangle_9988" data-name="Rectangle 9988" width="1.105" height="5.401" transform="translate(0 0.958) rotate(-60.095)"/>
      </g>
      <g id="Group_75004" data-name="Group 75004" transform="translate(0 54.665)">
        <rect id="Rectangle_9989" data-name="Rectangle 9989" width="1.105" height="5.401" transform="translate(0.003 1.118) rotate(-90.143)"/>
      </g>
      <g id="Group_75005" data-name="Group 75005" transform="translate(7.196 79.605)">
        <rect id="Rectangle_9990" data-name="Rectangle 9990" width="1.105" height="5.401" transform="matrix(-0.503, -0.864, 0.864, -0.503, 0.555, 3.671)"/>
      </g>
      <g id="Group_75006" data-name="Group 75006" transform="translate(27.266 97.957)">
        <rect id="Rectangle_9991" data-name="Rectangle 9991" width="1.105" height="5.401" transform="matrix(-0.868, -0.496, 0.496, -0.868, 0.959, 5.237)"/>
      </g>
      <g id="Group_75007" data-name="Group 75007" transform="translate(54.789 104.783)">
        <rect id="Rectangle_9992" data-name="Rectangle 9992" width="1.105" height="5.401" transform="matrix(-1, 0.005, -0.005, -1, 1.131, 5.401)"/>
      </g>
      <g id="Group_75008" data-name="Group 75008" transform="translate(79.713 97.705)">
        <rect id="Rectangle_9993" data-name="Rectangle 9993" width="1.105" height="5.401" transform="translate(3.681 4.662) rotate(149.668)"/>
      </g>
      <g id="Group_75009" data-name="Group 75009" transform="translate(98.02 79.174)">
        <rect id="Rectangle_9994" data-name="Rectangle 9994" width="1.105" height="5.401" transform="translate(5.242 2.67) rotate(119.62)"/>
      </g>
      <g id="Group_75010" data-name="Group 75010" transform="translate(104.782 54.131)">
        <rect id="Rectangle_9995" data-name="Rectangle 9995" width="1.105" height="5.401" transform="matrix(0.007, 1, -1, 0.007, 5.401, 0)"/>
      </g>
      <g id="Group_75011" data-name="Group 75011" transform="translate(97.642 26.677)">
        <rect id="Rectangle_9996" data-name="Rectangle 9996" width="1.105" height="5.401" transform="matrix(0.507, 0.862, -0.862, 0.507, 4.655, 0)"/>
      </g>
      <g id="Group_75012" data-name="Group 75012" transform="translate(79.067 6.861)">
        <rect id="Rectangle_9997" data-name="Rectangle 9997" width="1.105" height="5.401" transform="translate(2.658 0) rotate(29.479)"/>
      </g>
      <g id="Group_75013" data-name="Group 75013" transform="translate(48.633 1.067)">
        <rect id="Rectangle_9998" data-name="Rectangle 9998" width="0.557" height="3.585" transform="translate(0 0.074) rotate(-7.656)"/>
      </g>
      <g id="Group_75014" data-name="Group 75014" transform="translate(42.97 1.994)">
        <rect id="Rectangle_9999" data-name="Rectangle 9999" width="0.557" height="3.585" transform="translate(0 0.132) rotate(-13.72)"/>
      </g>
      <g id="Group_75015" data-name="Group 75015" transform="translate(37.442 3.515)">
        <rect id="Rectangle_10000" data-name="Rectangle 10000" width="0.557" height="3.585" transform="translate(0 0.189) rotate(-19.784)"/>
      </g>
      <g id="Group_75016" data-name="Group 75016" transform="translate(32.112 5.613)">
        <rect id="Rectangle_10001" data-name="Rectangle 10001" width="0.557" height="3.585" transform="translate(0 0.243) rotate(-25.847)"/>
      </g>
      <g id="Group_75017" data-name="Group 75017" transform="translate(22.28 11.44)">
        <rect id="Rectangle_10002" data-name="Rectangle 10002" width="0.557" height="3.585" transform="matrix(0.788, -0.615, 0.615, 0.788, 0, 0.343)"/>
      </g>
      <g id="Group_75018" data-name="Group 75018" transform="translate(17.889 15.105)">
        <rect id="Rectangle_10003" data-name="Rectangle 10003" width="0.557" height="3.585" transform="matrix(0.719, -0.695, 0.695, 0.719, 0, 0.387)"/>
      </g>
      <g id="Group_75019" data-name="Group 75019" transform="translate(13.913 19.217)">
        <rect id="Rectangle_10004" data-name="Rectangle 10004" width="0.557" height="3.585" transform="matrix(0.641, -0.767, 0.767, 0.641, 0, 0.427)"/>
      </g>
      <g id="Group_75020" data-name="Group 75020" transform="translate(10.399 23.73)">
        <rect id="Rectangle_10005" data-name="Rectangle 10005" width="0.557" height="3.585" transform="translate(0 0.463) rotate(-56.169)"/>
      </g>
      <g id="Group_75021" data-name="Group 75021" transform="translate(4.904 33.756)">
        <rect id="Rectangle_10006" data-name="Rectangle 10006" width="0.557" height="3.585" transform="translate(0 0.518) rotate(-68.297)"/>
      </g>
      <g id="Group_75022" data-name="Group 75022" transform="translate(2.986 39.155)">
        <rect id="Rectangle_10007" data-name="Rectangle 10007" width="0.557" height="3.585" transform="matrix(0.27, -0.963, 0.963, 0.27, 0, 0.537)"/>
      </g>
      <g id="Group_75023" data-name="Group 75023" transform="translate(1.65 44.734)">
        <rect id="Rectangle_10008" data-name="Rectangle 10008" width="0.557" height="3.585" transform="translate(0 0.549) rotate(-80.426)"/>
      </g>
      <g id="Group_75024" data-name="Group 75024" transform="translate(0.913 50.428)">
        <rect id="Rectangle_10009" data-name="Rectangle 10009" width="0.557" height="3.585" transform="translate(0 0.556) rotate(-86.49)"/>
      </g>
      <g id="Group_75025" data-name="Group 75025" transform="translate(0.811 60.277)">
        <rect id="Rectangle_10010" data-name="Rectangle 10010" width="0.557" height="3.585" transform="matrix(-0.15, -0.989, 0.989, -0.15, 0.084, 1.088)"/>
      </g>
      <g id="Group_75026" data-name="Group 75026" transform="translate(1.832 65.564)">
        <rect id="Rectangle_10011" data-name="Rectangle 10011" width="0.557" height="3.585" transform="translate(0.141 1.448) rotate(-104.682)"/>
      </g>
      <g id="Group_75027" data-name="Group 75027" transform="translate(3.446 70.721)">
        <rect id="Rectangle_10012" data-name="Rectangle 10012" width="0.557" height="3.585" transform="translate(0.197 1.791) rotate(-110.745)"/>
      </g>
      <g id="Group_75028" data-name="Group 75028" transform="translate(5.633 75.691)">
        <rect id="Rectangle_10013" data-name="Rectangle 10013" width="0.557" height="3.585" transform="translate(0.251 2.114) rotate(-116.809)"/>
      </g>
      <g id="Group_75029" data-name="Group 75029" transform="translate(11.357 84.081)">
        <rect id="Rectangle_10014" data-name="Rectangle 10014" width="0.557" height="3.585" transform="matrix(-0.572, -0.82, 0.82, -0.572, 0.319, 2.507)"/>
      </g>
      <g id="Group_75030" data-name="Group 75030" transform="translate(14.775 88.404)">
        <rect id="Rectangle_10015" data-name="Rectangle 10015" width="0.557" height="3.585" transform="matrix(-0.655, -0.756, 0.756, -0.655, 0.365, 2.77)"/>
      </g>
      <g id="Group_75031" data-name="Group 75031" transform="translate(18.663 92.367)">
        <rect id="Rectangle_10016" data-name="Rectangle 10016" width="0.557" height="3.585" transform="matrix(-0.731, -0.682, 0.682, -0.731, 0.407, 3.002)"/>
      </g>
      <g id="Group_75032" data-name="Group 75032" transform="translate(22.976 95.925)">
        <rect id="Rectangle_10017" data-name="Rectangle 10017" width="0.557" height="3.585" transform="translate(0.445 3.2) rotate(-143.056)"/>
      </g>
      <g id="Group_75033" data-name="Group 75033" transform="translate(33.369 100.846)">
        <rect id="Rectangle_10018" data-name="Rectangle 10018" width="0.557" height="3.585" transform="translate(0.503 3.478) rotate(-154.601)"/>
      </g>
      <g id="Group_75034" data-name="Group 75034" transform="translate(38.63 103.02)">
        <rect id="Rectangle_10019" data-name="Rectangle 10019" width="0.557" height="3.585" transform="translate(0.526 3.568) rotate(-160.666)"/>
      </g>
      <g id="Group_75035" data-name="Group 75035" transform="translate(44.107 104.663)">
        <rect id="Rectangle_10020" data-name="Rectangle 10020" width="0.557" height="3.585" transform="translate(0.542 3.617) rotate(-166.73)"/>
      </g>
      <g id="Group_75036" data-name="Group 75036" transform="translate(49.738 105.757)">
        <rect id="Rectangle_10021" data-name="Rectangle 10021" width="0.557" height="3.585" transform="translate(0.553 3.627) rotate(-172.795)"/>
      </g>
      <g id="Group_75037" data-name="Group 75037" transform="translate(60.484 106.448)">
        <rect id="Rectangle_10022" data-name="Rectangle 10022" width="0.557" height="3.585" transform="translate(1.146 3.535) rotate(170.422)"/>
      </g>
      <g id="Group_75038" data-name="Group 75038" transform="translate(65.754 105.357)">
        <rect id="Rectangle_10023" data-name="Rectangle 10023" width="0.557" height="3.585" transform="translate(1.503 3.453) rotate(164.358)"/>
      </g>
      <g id="Group_75039" data-name="Group 75039" transform="translate(70.886 103.717)">
        <rect id="Rectangle_10024" data-name="Rectangle 10024" width="0.557" height="3.585" transform="translate(1.844 3.331) rotate(158.293)"/>
      </g>
      <g id="Group_75040" data-name="Group 75040" transform="translate(75.821 101.546)">
        <rect id="Rectangle_10025" data-name="Rectangle 10025" width="0.557" height="3.585" transform="translate(2.164 3.172) rotate(152.229)"/>
      </g>
      <g id="Group_75041" data-name="Group 75041" transform="translate(85.431 96.807)">
        <rect id="Rectangle_10026" data-name="Rectangle 10026" width="0.557" height="3.585" transform="translate(2.727 2.751) rotate(140.101)"/>
      </g>
      <g id="Group_75042" data-name="Group 75042" transform="translate(89.459 93.211)">
        <rect id="Rectangle_10027" data-name="Rectangle 10027" width="0.557" height="3.585" transform="translate(2.965 2.492) rotate(134.038)"/>
      </g>
      <g id="Group_75043" data-name="Group 75043" transform="translate(93.088 89.215)">
        <rect id="Rectangle_10028" data-name="Rectangle 10028" width="0.557" height="3.585" transform="translate(3.169 2.206) rotate(127.973)"/>
      </g>
      <g id="Group_75044" data-name="Group 75044" transform="translate(96.279 84.861)">
        <rect id="Rectangle_10029" data-name="Rectangle 10029" width="0.557" height="3.585" transform="translate(3.338 1.895) rotate(121.909)"/>
      </g>
      <g id="Group_75045" data-name="Group 75045" transform="translate(102.393 75.74)">
        <rect id="Rectangle_10030" data-name="Rectangle 10030" width="0.557" height="3.585" transform="matrix(-0.338, 0.941, -0.941, -0.338, 3.562, 1.213)"/>
      </g>
      <g id="Group_75046" data-name="Group 75046" transform="translate(104.076 70.623)">
        <rect id="Rectangle_10031" data-name="Rectangle 10031" width="0.557" height="3.585" transform="translate(3.615 0.85) rotate(103.718)"/>
      </g>
      <g id="Group_75047" data-name="Group 75047" transform="translate(105.211 65.363)">
        <rect id="Rectangle_10032" data-name="Rectangle 10032" width="0.557" height="3.585" transform="translate(3.628 0.477) rotate(97.653)"/>
      </g>
      <g id="Group_75048" data-name="Group 75048" transform="translate(105.785 60.019)">
        <rect id="Rectangle_10033" data-name="Rectangle 10033" width="0.557" height="3.585" transform="matrix(-0.028, 1, -1, -0.028, 3.599, 0.099)"/>
      </g>
      <g id="Group_75049" data-name="Group 75049" transform="translate(105.596 49.331)">
        <rect id="Rectangle_10034" data-name="Rectangle 10034" width="0.557" height="3.585" transform="matrix(0.107, 0.994, -0.994, 0.107, 3.565, 0)"/>
      </g>
      <g id="Group_75050" data-name="Group 75050" transform="translate(104.82 43.644)">
        <rect id="Rectangle_10035" data-name="Rectangle 10035" width="0.557" height="3.585" transform="matrix(0.212, 0.977, -0.977, 0.212, 3.504, 0)"/>
      </g>
      <g id="Group_75051" data-name="Group 75051" transform="translate(103.487 38.077)">
        <rect id="Rectangle_10036" data-name="Rectangle 10036" width="0.557" height="3.585" transform="translate(3.404 0) rotate(71.71)"/>
      </g>
      <g id="Group_75052" data-name="Group 75052" transform="translate(101.612 32.693)">
        <rect id="Rectangle_10037" data-name="Rectangle 10037" width="0.557" height="3.585" transform="matrix(0.412, 0.911, -0.911, 0.412, 3.266, 0)"/>
      </g>
      <g id="Group_75053" data-name="Group 75053" transform="translate(95.211 23.093)">
        <rect id="Rectangle_10038" data-name="Rectangle 10038" width="0.557" height="3.585" transform="matrix(0.571, 0.821, -0.821, 0.571, 2.944, 0)"/>
      </g>
      <g id="Group_75054" data-name="Group 75054" transform="translate(91.984 18.503)">
        <rect id="Rectangle_10039" data-name="Rectangle 10039" width="0.557" height="3.585" transform="translate(2.712 0) rotate(49.142)"/>
      </g>
      <g id="Group_75055" data-name="Group 75055" transform="translate(88.322 14.303)">
        <rect id="Rectangle_10040" data-name="Rectangle 10040" width="0.557" height="3.585" transform="translate(2.449 0) rotate(43.077)"/>
      </g>
      <g id="Group_75056" data-name="Group 75056" transform="translate(84.266 10.541)">
        <rect id="Rectangle_10041" data-name="Rectangle 10041" width="0.557" height="3.585" transform="translate(2.158 0) rotate(37.014)"/>
      </g>
      <g id="Group_75057" data-name="Group 75057" transform="translate(75.338 5.681)">
        <rect id="Rectangle_10042" data-name="Rectangle 10042" width="0.557" height="3.585" transform="translate(1.509 0) rotate(24.884)"/>
      </g>
      <g id="Group_75058" data-name="Group 75058" transform="translate(70.386 3.464)">
        <rect id="Rectangle_10043" data-name="Rectangle 10043" width="0.557" height="3.585" transform="translate(1.157 0) rotate(18.82)"/>
      </g>
      <g id="Group_75059" data-name="Group 75059" transform="translate(65.243 1.82)">
        <rect id="Rectangle_10044" data-name="Rectangle 10044" width="0.557" height="3.585" transform="matrix(0.975, 0.221, -0.221, 0.975, 0.792, 0)"/>
      </g>
      <g id="Group_75060" data-name="Group 75060" transform="translate(59.966 0.768)">
        <rect id="Rectangle_10045" data-name="Rectangle 10045" width="0.557" height="3.585" transform="matrix(0.993, 0.117, -0.117, 0.993, 0.418, 0)"/>
      </g>
    </g>
    <g id="Group_75062" data-name="Group 75062" transform="translate(2446.345 1395.809)">
      <path id="Path_151380" data-name="Path 151380" d="M2759.591,1465.213v6.172a.443.443,0,0,0,.079.294.2.2,0,0,0,.079.066q.037.013.241.065a.28.28,0,0,1,.252.289.252.252,0,0,1-.136.221.652.652,0,0,1-.332.063h-2.369a.632.632,0,0,1-.331-.063.251.251,0,0,1-.137-.221.28.28,0,0,1,.252-.289c.137-.035.217-.057.242-.065a.168.168,0,0,0,.073-.066.44.44,0,0,0,.079-.294v-4.917a1.07,1.07,0,0,0-.055-.4.217.217,0,0,0-.176-.142l-.184-.026q-.247-.036-.247-.252a.292.292,0,0,1,.158-.263.929.929,0,0,1,.326-.058Z" transform="translate(-2756.922 -1465.213)"/>
    </g>
    <g id="Group_75063" data-name="Group 75063" transform="translate(2459.204 1411.11)">
      <path id="Path_151381" data-name="Path 151381" d="M2822.476,1542.413a.219.219,0,0,1,.192.095.421.421,0,0,1,.076.263,2.094,2.094,0,0,1-.192.812,2.314,2.314,0,0,1-.459.722,1.763,1.763,0,0,1-.573.384,1.636,1.636,0,0,1-.646.147,2.754,2.754,0,0,1-.777-.121l-.693-.2a3.674,3.674,0,0,0-.756-.168.769.769,0,0,0-.489.221.473.473,0,0,1-.247.137.228.228,0,0,1-.186-.079.343.343,0,0,1-.066-.226,1.417,1.417,0,0,1,.131-.578,1.666,1.666,0,0,1,.357-.515,1.783,1.783,0,0,1,1.3-.467,6,6,0,0,1,1.035.121,8.827,8.827,0,0,0,1.24.178.5.5,0,0,0,.373-.126.349.349,0,0,0,.066-.108,1.909,1.909,0,0,0,.06-.218Q2822.281,1542.424,2822.476,1542.413Zm-2.989-4.911v.557a.739.739,0,0,0-.239.089c-.061.039-.09.077-.087.115s.054.1.142.157a1.077,1.077,0,0,1,.342.352.974.974,0,0,1-.2,1.145,1.041,1.041,0,0,1-1.458-.019,1.051,1.051,0,0,1-.3-.764,1.379,1.379,0,0,1,.26-.8,1.787,1.787,0,0,1,.706-.588A3.547,3.547,0,0,1,2819.487,1537.5Zm.462.557v-.573h.142a3.027,3.027,0,0,1,1.043.181,2.316,2.316,0,0,1,.827.5,1.825,1.825,0,0,1,.557,1.366,2.022,2.022,0,0,1-.417,1.258,2.731,2.731,0,0,1-1.185.859l-.688.273a8.7,8.7,0,0,0-.845.42l-.157.089a1.471,1.471,0,0,0-.4.055,5.156,5.156,0,0,0-.562.213,3.573,3.573,0,0,1,.381-.436q.192-.184.575-.483a8.153,8.153,0,0,0,.665-.554,1.669,1.669,0,0,0,.292-.4,1.9,1.9,0,0,0,.176-.544,4.7,4.7,0,0,0,.055-.791,2.905,2.905,0,0,0-.147-1.135.644.644,0,0,0-.123-.178A.844.844,0,0,0,2819.949,1538.059Z" transform="translate(-2817.659 -1537.486)"/>
    </g>
    <g id="Group_75064" data-name="Group 75064" transform="translate(2465.526 1433.105)">
      <path id="Path_151382" data-name="Path 151382" d="M2849.507,1648.17v.552a3.587,3.587,0,0,1-1-.257,1.8,1.8,0,0,1-.733-.559,1.276,1.276,0,0,1-.26-.78,1.026,1.026,0,0,1,.283-.738.935.935,0,0,1,.7-.3.956.956,0,0,1,.767.368.848.848,0,0,1,.1.982.973.973,0,0,1-.294.336q-.168.121-.168.184,0,.084.179.147A1.237,1.237,0,0,0,2849.507,1648.17Zm0-6.766v.531a1.1,1.1,0,0,0-.294.1.3.3,0,0,0-.1.084.159.159,0,0,0-.039.089.248.248,0,0,0,.11.168l.242.194a.616.616,0,0,1,.173.5.891.891,0,0,1-.276.656.911.911,0,0,1-.665.273.855.855,0,0,1-.651-.281.98.98,0,0,1-.262-.7,1.34,1.34,0,0,1,.186-.68,1.659,1.659,0,0,1,.523-.549A2.821,2.821,0,0,1,2849.507,1641.4Zm1.581,3.567a5.125,5.125,0,0,1,.683.244,1.655,1.655,0,0,1,.4.265,1.541,1.541,0,0,1,.368.546,1.873,1.873,0,0,1-.42,2.033,2.266,2.266,0,0,1-.833.5,3.273,3.273,0,0,1-1.079.171l-.231-.005v-.552a.815.815,0,0,0,.425-.247.562.562,0,0,0,.11-.2,1.048,1.048,0,0,0,.032-.286v-1.508a1.731,1.731,0,0,0-.021-.32.475.475,0,0,0-.095-.194.582.582,0,0,0-.462-.21.665.665,0,0,1-.278-.053.244.244,0,0,1-.115-.221.235.235,0,0,1,.081-.2.687.687,0,0,1,.307-.079q.589-.052.588-.594l0-.2v-1.187a.79.79,0,0,0-.126-.491.766.766,0,0,0-.441-.234v-.557h.147a3.341,3.341,0,0,1,.972.142,2.515,2.515,0,0,1,.8.394,1.684,1.684,0,0,1,.5.586,1.593,1.593,0,0,1,.171.727,1.638,1.638,0,0,1-.447,1.171,1.718,1.718,0,0,1-.412.326A3.518,3.518,0,0,1,2851.088,1644.971Z" transform="translate(-2847.516 -1641.378)"/>
    </g>
    <g id="Group_75065" data-name="Group 75065" transform="translate(2458.261 1457.346)">
      <path id="Path_151383" data-name="Path 151383" d="M2815.425,1757.793v.777l-1.649,2.3h1.649v.52h-1.833a.5.5,0,0,1-.308-.068.317.317,0,0,1-.081-.252.814.814,0,0,1,.178-.473l.079-.11Zm.415-.568.825-1.14a.5.5,0,0,1,.179-.176.834.834,0,0,1,.289-.034h.457c.125,0,.2.023.226.068a.565.565,0,0,1,.031.221v4.7h.657q.262,0,.262.252,0,.268-.294.268h-.625v.667a.452.452,0,0,0,.079.294.2.2,0,0,0,.079.061q.037.013.242.066a.28.28,0,0,1,.252.289.252.252,0,0,1-.137.221.665.665,0,0,1-.336.063h-2.363a.631.631,0,0,1-.331-.063.251.251,0,0,1-.137-.221.279.279,0,0,1,.252-.289q.2-.053.239-.066a.17.17,0,0,0,.076-.061.455.455,0,0,0,.079-.294Z" transform="translate(-2813.203 -1755.876)"/>
    </g>
    <g id="Group_75066" data-name="Group 75066" transform="translate(2444.281 1471.182)">
      <path id="Path_151384" data-name="Path 151384" d="M2749.121,1827.985v.578a2.555,2.555,0,0,1-1.024-.284,1.885,1.885,0,0,1-.686-.565,1.223,1.223,0,0,1-.239-.727,1.06,1.06,0,0,1,.291-.762.973.973,0,0,1,.733-.3.9.9,0,0,1,.654.273.88.88,0,0,1,.276.646.983.983,0,0,1-.1.428.909.909,0,0,1-.257.334c-.081.059-.121.108-.121.147q0,.084.126.147A1.092,1.092,0,0,0,2749.121,1827.985Zm-1.481-4.617.483.052-.089,1.093a3.555,3.555,0,0,1,.551-.389,2.273,2.273,0,0,1,.536-.2v.741a3.271,3.271,0,0,0-.946.362.841.841,0,0,1-.368.157.314.314,0,0,1-.223-.076.271.271,0,0,1-.082-.208c0-.042,0-.091.005-.147Zm.037-.4.147-1.739.2.026,1.061.142a9.851,9.851,0,0,0,1.345.079,5.532,5.532,0,0,0,.851-.053,3.24,3.24,0,0,0,.683-.194,2.958,2.958,0,0,1-.241.594,2.233,2.233,0,0,1-.368.467,2.732,2.732,0,0,1-.56.431,2.153,2.153,0,0,1-.612.247,5.559,5.559,0,0,1-1.2.1A8.154,8.154,0,0,1,2747.676,1822.969Zm1.886,1.691v-.762a4.169,4.169,0,0,1,.909.084,2.432,2.432,0,0,1,.7.284,2.074,2.074,0,0,1,1.056,1.923,2.539,2.539,0,0,1-.242,1.124,2.052,2.052,0,0,1-.688.809,2.682,2.682,0,0,1-.73.334,2.908,2.908,0,0,1-.83.123h-.163v-.594a.756.756,0,0,0,.26-.134.6.6,0,0,0,.16-.228.976.976,0,0,0,.071-.273,2.375,2.375,0,0,0,.029-.363v-1.345a1.476,1.476,0,0,0-.11-.665A.752.752,0,0,0,2749.562,1824.66Z" transform="translate(-2747.172 -1821.23)"/>
    </g>
    <g id="Group_75067" data-name="Group 75067" transform="translate(2420.441 1477.096)">
      <path id="Path_151385" data-name="Path 151385" d="M2637.237,1849.164v.531a.754.754,0,0,0-.412.265.856.856,0,0,0-.123.5v4.812a2.563,2.563,0,0,0,.016.349.361.361,0,0,0,.074.171.589.589,0,0,0,.325.174v.551a2.529,2.529,0,0,1-.945-.3,2.783,2.783,0,0,1-.788-.659,3.291,3.291,0,0,1-.6-1.19,5.538,5.538,0,0,1-.213-1.568,3.9,3.9,0,0,1,1.035-2.858,2.767,2.767,0,0,1,.791-.57A1.964,1.964,0,0,1,2637.237,1849.164Zm-.121,3.976v-.6a2.293,2.293,0,0,1,1.108-.315,1.816,1.816,0,0,1,.654.126,1.847,1.847,0,0,1,.575.347,1.756,1.756,0,0,1,.425.612,1.942,1.942,0,0,1,.152.765,2.562,2.562,0,0,1-.231,1.053,2.265,2.265,0,0,1-.61.833,2.488,2.488,0,0,1-.73.4,2.4,2.4,0,0,1-.82.152h-.131v-.551a.527.527,0,0,0,.3-.168.542.542,0,0,0,.089-.336v-1.965a.619.619,0,0,0-.1-.373.285.285,0,0,0-.262-.126A1,1,0,0,0,2637.116,1853.141Zm.515-3.446v-.531a2.469,2.469,0,0,1,1.056.252,1.848,1.848,0,0,1,.707.559,1.225,1.225,0,0,1,.255.744,1.005,1.005,0,0,1-1.03,1.024.94.94,0,0,1-.662-.252.794.794,0,0,1-.273-.6.864.864,0,0,1,.236-.557,1.271,1.271,0,0,0,.147-.192.28.28,0,0,0,.037-.139Q2638.1,1849.753,2637.631,1849.695Z" transform="translate(-2634.568 -1849.164)"/>
    </g>
    <g id="Group_75068" data-name="Group 75068" transform="translate(2397.958 1471.071)">
      <path id="Path_151386" data-name="Path 151386" d="M2528.372,1823.083l.331-2.238h.388l-.079.609a3.118,3.118,0,0,1,.767-.575,1.725,1.725,0,0,1,.772-.176,1.926,1.926,0,0,1,.336.026,3.594,3.594,0,0,1,.425.115q.431.131.578.189a1.783,1.783,0,0,0,.51.131.314.314,0,0,0,.241-.131l.058-.074a.233.233,0,0,1,.168-.094.178.178,0,0,1,.131.06.2.2,0,0,1,.058.14,1.282,1.282,0,0,1-.095.407,3.036,3.036,0,0,1-.226.486,1.377,1.377,0,0,1-.533.544,1.634,1.634,0,0,1-.781.171,2.037,2.037,0,0,1-.349-.026q-.149-.026-.833-.189a4.788,4.788,0,0,0-.956-.158.454.454,0,0,0-.386.163.833.833,0,0,0-.124.5v.115Zm3.882-.184a6.9,6.9,0,0,0-.478,1.124,4.38,4.38,0,0,0-.21,1.245,2.588,2.588,0,0,0,.031.41l.1.583a3.238,3.238,0,0,1,.047.547,1.2,1.2,0,0,1-.368.935,1.112,1.112,0,0,1-.777.31,1.022,1.022,0,0,1-.827-.394,1.529,1.529,0,0,1-.323-1,2.682,2.682,0,0,1,.373-1.3,3.135,3.135,0,0,1,.292-.441q.176-.226.581-.683.42-.473.612-.72a2.427,2.427,0,0,0,.276-.426A2.374,2.374,0,0,0,2532.254,1822.9Z" transform="translate(-2528.372 -1820.704)"/>
    </g>
    <g id="Group_75069" data-name="Group 75069" transform="translate(2382.255 1456.828)">
      <path id="Path_151387" data-name="Path 151387" d="M2456.707,1753.939a.614.614,0,0,0-.284.247,1.257,1.257,0,0,0-.063.483v1.45a.885.885,0,0,0,.063.331.514.514,0,0,0,.107.163.561.561,0,0,0,.176.105v.552a.514.514,0,0,0-.268.2.734.734,0,0,0-.079.373v1.8a.882.882,0,0,0,.068.362.372.372,0,0,0,.1.147.47.47,0,0,0,.173.079v.546l-.105,0a4.22,4.22,0,0,1-.945-.111,2.646,2.646,0,0,1-.486-.155,1.659,1.659,0,0,1-.964-1.573,1.952,1.952,0,0,1,.187-.856,1.728,1.728,0,0,1,.533-.646,2.059,2.059,0,0,1,.408-.241,5.113,5.113,0,0,1,.58-.205,4.031,4.031,0,0,1-.564-.2,1.8,1.8,0,0,1-.386-.244,1.535,1.535,0,0,1-.552-1.24,1.759,1.759,0,0,1,.252-.927,1.723,1.723,0,0,1,.7-.649,3.286,3.286,0,0,1,1.35-.294Zm.362,0v-.51a3.3,3.3,0,0,1,1.355.294,1.725,1.725,0,0,1,.7.649,1.761,1.761,0,0,1,.252.927,1.536,1.536,0,0,1-.551,1.24,1.811,1.811,0,0,1-.386.244,4.036,4.036,0,0,1-.565.2,5.127,5.127,0,0,1,.581.205,2.069,2.069,0,0,1,.407.241,1.721,1.721,0,0,1,.533.646,1.948,1.948,0,0,1,.187.856,1.66,1.66,0,0,1-.594,1.339,1.557,1.557,0,0,1-.371.239,2.41,2.41,0,0,1-.486.15,5.6,5.6,0,0,1-.951.111l-.074,0v-.546a.469.469,0,0,0,.174-.079.379.379,0,0,0,.1-.147.886.886,0,0,0,.068-.362v-1.8a.7.7,0,0,0-.034-.166,1.746,1.746,0,0,0-.066-.192.414.414,0,0,0-.1-.126.693.693,0,0,0-.179-.095v-.552a.66.66,0,0,0,.187-.108.391.391,0,0,0,.1-.16,1.928,1.928,0,0,0,.058-.184,1.3,1.3,0,0,0,.037-.147v-1.45a.932.932,0,0,0-.031-.189l-.058-.289A.571.571,0,0,0,2457.069,1753.939Z" transform="translate(-2454.201 -1753.429)"/>
    </g>
    <g id="Group_75070" data-name="Group 75070" transform="translate(2375.582 1433.082)">
      <path id="Path_151388" data-name="Path 151388" d="M2425.593,1644.64v.6a2.3,2.3,0,0,1-1.108.315,1.813,1.813,0,0,1-.654-.126,1.852,1.852,0,0,1-.575-.347,1.745,1.745,0,0,1-.425-.612,1.952,1.952,0,0,1-.152-.769,2.529,2.529,0,0,1,.27-1.135,2.211,2.211,0,0,1,.717-.856,2.645,2.645,0,0,1,1.534-.447v.515a.538.538,0,0,0-.3.168.529.529,0,0,0-.092.336v2a.607.607,0,0,0,.1.37.3.3,0,0,0,.268.129A1.006,1.006,0,0,0,2425.593,1644.64Zm-.515,3.446v.531a2.468,2.468,0,0,1-1.056-.252,1.841,1.841,0,0,1-.706-.559,1.225,1.225,0,0,1-.255-.743,1,1,0,0,1,1.03-1.024.944.944,0,0,1,.664.255.809.809,0,0,1,.276.617.718.718,0,0,1-.121.42l-.168.242a.289.289,0,0,0,.095.446A.538.538,0,0,0,2425.078,1648.085Zm.394.531v-.531a1.035,1.035,0,0,0,.255-.11.489.489,0,0,0,.15-.168.926.926,0,0,0,.131-.483v-4.849a2.579,2.579,0,0,0-.016-.344.373.373,0,0,0-.073-.176.588.588,0,0,0-.326-.173v-.515a2.462,2.462,0,0,1,.946.3,2.746,2.746,0,0,1,.788.665,3.243,3.243,0,0,1,.6,1.187,5.554,5.554,0,0,1,.213,1.57,3.894,3.894,0,0,1-1.035,2.858,2.776,2.776,0,0,1-.791.57A1.965,1.965,0,0,1,2425.473,1648.616Z" transform="translate(-2422.678 -1641.267)"/>
    </g>
    <g id="Group_75071" data-name="Group 75071" transform="translate(2381.473 1410.957)">
      <path id="Path_151389" data-name="Path 151389" d="M2453.175,1536.765v6.172a.442.442,0,0,0,.079.294.192.192,0,0,0,.079.066q.037.014.241.066a.28.28,0,0,1,.252.289.251.251,0,0,1-.136.22.646.646,0,0,1-.331.063h-2.369a.628.628,0,0,1-.331-.063.251.251,0,0,1-.137-.22.28.28,0,0,1,.252-.289q.205-.052.242-.066a.167.167,0,0,0,.073-.066.439.439,0,0,0,.079-.294v-4.917a1.068,1.068,0,0,0-.055-.4.217.217,0,0,0-.176-.142l-.184-.026q-.247-.037-.247-.252a.293.293,0,0,1,.158-.263.938.938,0,0,1,.326-.058Z" transform="translate(-2450.506 -1536.765)"/>
    </g>
    <g id="Group_75072" data-name="Group 75072" transform="translate(2385.502 1410.868)">
      <path id="Path_151390" data-name="Path 151390" d="M2472.138,1543.693a2.6,2.6,0,0,1-.979-.312,2.8,2.8,0,0,1-.8-.707,3.54,3.54,0,0,1-.615-1.182,5.275,5.275,0,0,1,0-2.947,3.537,3.537,0,0,1,.615-1.182,2.8,2.8,0,0,1,.8-.707,2.6,2.6,0,0,1,.979-.312v.546a1.1,1.1,0,0,0-.2.082.393.393,0,0,0-.111.1.9.9,0,0,0-.153.562v4.764a.9.9,0,0,0,.153.562.391.391,0,0,0,.111.1,1.117,1.117,0,0,0,.2.081Zm.4,0v-.546a1.136,1.136,0,0,0,.2-.081.39.39,0,0,0,.11-.1.894.894,0,0,0,.153-.562v-4.764a.9.9,0,0,0-.153-.562.391.391,0,0,0-.11-.1,1.114,1.114,0,0,0-.2-.082v-.546a2.6,2.6,0,0,1,.98.313,2.808,2.808,0,0,1,.8.707,3.546,3.546,0,0,1,.615,1.182,5.275,5.275,0,0,1,0,2.947,3.549,3.549,0,0,1-.615,1.182,2.811,2.811,0,0,1-.8.707A2.6,2.6,0,0,1,2472.543,1543.693Z" transform="translate(-2469.538 -1536.344)"/>
    </g>
    <g id="Group_75073" data-name="Group 75073" transform="translate(2397.362 1395.795)">
      <path id="Path_151391" data-name="Path 151391" d="M2528.226,1465.151v6.172a.444.444,0,0,0,.078.294.2.2,0,0,0,.079.066c.024.009.1.031.242.066a.279.279,0,0,1,.252.289.252.252,0,0,1-.136.221.65.65,0,0,1-.331.063h-2.369a.629.629,0,0,1-.331-.063.251.251,0,0,1-.137-.221.28.28,0,0,1,.252-.289c.137-.035.217-.057.242-.066a.166.166,0,0,0,.073-.066.44.44,0,0,0,.079-.294v-4.917a1.068,1.068,0,0,0-.055-.4.217.217,0,0,0-.176-.142l-.184-.026q-.247-.037-.247-.252a.293.293,0,0,1,.158-.263.941.941,0,0,1,.326-.058Z" transform="translate(-2525.557 -1465.151)"/>
    </g>
    <g id="Group_75074" data-name="Group 75074" transform="translate(2401.873 1395.795)">
      <path id="Path_151392" data-name="Path 151392" d="M2549.531,1465.151v6.172a.443.443,0,0,0,.079.294.2.2,0,0,0,.079.066c.024.009.105.031.242.066a.279.279,0,0,1,.252.289.251.251,0,0,1-.136.221.651.651,0,0,1-.331.063h-2.369a.629.629,0,0,1-.331-.063.252.252,0,0,1-.137-.221.28.28,0,0,1,.252-.289c.137-.035.218-.057.242-.066a.168.168,0,0,0,.073-.066.441.441,0,0,0,.079-.294v-4.917a1.08,1.08,0,0,0-.055-.4.218.218,0,0,0-.176-.142l-.184-.026c-.165-.025-.247-.109-.247-.252a.293.293,0,0,1,.158-.263.939.939,0,0,1,.325-.058Z" transform="translate(-2546.862 -1465.151)"/>
    </g>
    <g id="Group_75075" data-name="Group 75075" transform="translate(2418.396 1389.939)">
      <path id="Path_151393" data-name="Path 151393" d="M2627.577,1437.491v6.172a.443.443,0,0,0,.079.294.194.194,0,0,0,.079.066q.037.013.242.066a.279.279,0,0,1,.252.289.252.252,0,0,1-.136.221.65.65,0,0,1-.331.063h-2.369a.63.63,0,0,1-.331-.063.251.251,0,0,1-.137-.221.28.28,0,0,1,.252-.289c.137-.035.217-.057.242-.066a.166.166,0,0,0,.073-.066.44.44,0,0,0,.079-.294v-4.917a1.068,1.068,0,0,0-.055-.4.217.217,0,0,0-.176-.142l-.184-.026q-.247-.036-.247-.252a.292.292,0,0,1,.158-.263.936.936,0,0,1,.325-.058Z" transform="translate(-2624.909 -1437.491)"/>
    </g>
    <g id="Group_75076" data-name="Group 75076" transform="translate(2422.509 1389.85)">
      <path id="Path_151394" data-name="Path 151394" d="M2649.149,1442a.219.219,0,0,1,.192.095.421.421,0,0,1,.076.263,2.1,2.1,0,0,1-.191.812,2.333,2.333,0,0,1-.46.722,1.767,1.767,0,0,1-.573.384,1.641,1.641,0,0,1-.646.147,2.76,2.76,0,0,1-.778-.121l-.693-.2a3.694,3.694,0,0,0-.757-.168.77.77,0,0,0-.488.221.472.472,0,0,1-.247.137.229.229,0,0,1-.187-.079.344.344,0,0,1-.066-.226,1.409,1.409,0,0,1,.131-.578,1.662,1.662,0,0,1,.357-.515,1.784,1.784,0,0,1,1.3-.468,6.009,6.009,0,0,1,1.035.121,8.856,8.856,0,0,0,1.24.179.5.5,0,0,0,.373-.126.359.359,0,0,0,.066-.108,1.8,1.8,0,0,0,.06-.218Q2648.955,1442.007,2649.149,1442Zm-2.989-4.911v.557a.747.747,0,0,0-.239.089c-.061.039-.09.077-.087.115s.054.1.142.158a1.073,1.073,0,0,1,.342.352.931.931,0,0,1,.1.457.92.92,0,0,1-.3.688,1.04,1.04,0,0,1-1.458-.018,1.051,1.051,0,0,1-.3-.764,1.379,1.379,0,0,1,.26-.8,1.784,1.784,0,0,1,.707-.588A3.549,3.549,0,0,1,2646.16,1437.085Zm.462.557v-.573h.142a3.021,3.021,0,0,1,1.043.181,2.315,2.315,0,0,1,.827.5,1.825,1.825,0,0,1,.556,1.366,2.021,2.021,0,0,1-.418,1.258,2.729,2.729,0,0,1-1.184.859l-.688.273a8.666,8.666,0,0,0-.846.42l-.157.089a1.485,1.485,0,0,0-.4.055,5.156,5.156,0,0,0-.562.213,3.6,3.6,0,0,1,.381-.436q.192-.184.575-.483a8.158,8.158,0,0,0,.664-.554,1.657,1.657,0,0,0,.292-.4,1.864,1.864,0,0,0,.176-.544,4.723,4.723,0,0,0,.055-.791,2.91,2.91,0,0,0-.147-1.135.653.653,0,0,0-.124-.179A.85.85,0,0,0,2646.622,1437.642Z" transform="translate(-2644.332 -1437.069)"/>
    </g>
    <g id="Group_75077" data-name="Group 75077" transform="translate(2421.006 1399.458)">
      <path id="Path_151395" data-name="Path 151395" d="M2639.244,1482.451s.052.573.144,1.577c.044.5.1,1.111.157,1.81s.121,1.488.191,2.348.135,1.793.21,2.78.141,2.027.216,3.1.154,2.188.212,3.32.127,2.28.192,3.429.158,2.3.258,3.425.187,2.241.2,3.321-.036,2.129-.121,3.125-.178,1.94-.3,2.813a38.6,38.6,0,0,1-.795,4.232c-.061.256-.129.486-.184.685s-.1.369-.147.508c-.084.276-.137.423-.137.423l-.364.024s-.054-.141-.14-.406c-.046-.132-.094-.3-.15-.488s-.125-.413-.187-.661a36.006,36.006,0,0,1-.816-4.128c-.125-.857-.232-1.787-.313-2.773s-.142-2.027-.137-3.109.087-2.2.182-3.346.181-2.3.24-3.458l.174-3.453c.052-1.139.128-2.261.194-3.346s.136-2.135.2-3.131.135-1.937.2-2.806.125-1.666.178-2.372.106-1.323.147-1.83l.136-1.594Z" transform="translate(-2637.234 -1482.451)"/>
    </g>
    <g id="Group_75079" data-name="Group 75079" transform="translate(2421.635 1388.439)">
      <g id="Group_75078" data-name="Group 75078" transform="translate(0)">
        <path id="Path_151396" data-name="Path 151396" d="M2641.727,1430.452s.026.771.071,2.12.094,3.273.161,5.584c.031,1.155.067,2.406.1,3.73s.065,2.717.1,4.16.061,2.932.093,4.445.053,3.049.08,4.586.072,3.077.12,4.595.086,3.008.086,4.443-.046,2.813-.109,4.115-.132,2.532-.215,3.662-.172,2.164-.267,3.077c-.049.456-.094.883-.137,1.278s-.094.755-.134,1.081-.083.616-.119.869-.067.467-.1.641l-.089.531-.224-.047-.082-.568c-.027-.185-.054-.412-.087-.679s-.073-.575-.106-.917-.076-.722-.118-1.135-.076-.856-.118-1.331c-.082-.95-.157-2.019-.222-3.181s-.123-2.418-.162-3.742-.059-2.716-.049-4.149.076-2.9.15-4.394.136-3.009.186-4.529.1-3.041.146-4.538.106-2.968.157-4.392.109-2.8.159-4.1.108-2.536.157-3.674c.1-2.275.173-4.174.241-5.5s.1-2.084.1-2.084Z" transform="translate(-2640.203 -1430.404)"/>
      </g>
    </g>
    <g id="Group_75080" data-name="Group 75080" transform="translate(2420.67 1434.906)">
      <circle id="Ellipse_2171" data-name="Ellipse 2171" cx="2.28" cy="2.28" r="2.28" transform="translate(0)"/>
    </g>
  </g>
</svg>
