<svg width="471" height="480" viewBox="0 0 471 480" fill="none" xmlns="http://www.w3.org/2000/svg">
<path opacity="0.95" d="M177.84 138.334H103.683C97.8245 138.334 93.0749 133.584 93.0749 127.726V53.5691C93.0749 47.7106 97.8245 42.9609 103.683 42.9609H177.84C183.698 42.9609 188.448 47.7106 188.448 53.5691V127.726C188.448 133.584 183.698 138.334 177.84 138.334Z" fill="url(#paint0_linear_3742_1168)"/>
<path d="M162.839 116.621H118.683V118.802H162.839V116.621Z" fill="#96BFE6"/>
<path d="M156.585 123.494H124.937V125.675H156.585V123.494Z" fill="#96BFE6"/>
<path opacity="0.95" d="M322.169 229.25H216.634C209.733 229.25 204.137 223.655 204.137 216.753V88.536C204.137 81.634 209.733 76.0391 216.634 76.0391H322.169C329.071 76.0391 334.666 81.634 334.666 88.536V216.753C334.666 223.655 329.071 229.25 322.169 229.25Z" fill="url(#paint1_linear_3742_1168)"/>
<path d="M273.673 166.423H263.32V168.34H273.673V166.423Z" fill="#4598E6"/>
<path d="M284.257 183.992H224.017V187.704H284.257V183.992Z" fill="#96BFE6"/>
<path d="M272.73 201.814H224.017V205.527H272.73V201.814Z" fill="#96BFE6"/>
<path d="M252.574 192.903H224.017V196.615H252.574V192.903Z" fill="#96BFE6"/>
<path d="M300.017 91.3174V93.1922H311.056V103.553H312.931V91.3174H300.017ZM225.054 103.553H226.929V93.1922H237.968V91.3174H225.054V103.553ZM311.056 157.012V167.376H300.017V169.25H312.931V157.011H311.056V157.012ZM226.929 157.012H225.054V169.251H237.968V167.376H226.929V157.012Z" fill="#4598E6"/>
<path d="M307.086 205.8C300.999 205.8 296.046 200.847 296.046 194.76C296.046 188.672 300.999 183.72 307.086 183.72C313.174 183.72 318.126 188.672 318.126 194.76C318.126 200.847 313.174 205.8 307.086 205.8ZM307.086 185.856C302.177 185.856 298.183 189.85 298.183 194.76C298.183 199.669 302.177 203.663 307.086 203.663C311.995 203.663 315.989 199.669 315.989 194.76C315.989 189.85 311.995 185.856 307.086 185.856Z" fill="#4598E6"/>
<path d="M306.382 199.105L301.367 194.089L302.878 192.578L306.382 196.083L311.295 191.17L312.806 192.681L306.382 199.105Z" fill="#4598E6"/>
<path opacity="0.95" d="M172.903 46.5273H108.619V101.683H172.903V46.5273Z" fill="url(#paint2_linear_3742_1168)"/>
<path d="M165.316 80.1039C163.199 74.5032 158.113 71.9318 155.711 71.1303C154.856 70.8464 153.329 70.3479 151.72 69.8271C148.821 68.8902 145.653 67.8711 145.653 67.8711H135.647C135.647 67.8711 132.183 69.0323 128.501 70.3228C128.501 70.326 128.497 70.326 128.497 70.326C125.106 71.5154 121.534 72.8124 120.328 73.4183C117.814 74.6739 113.582 83.6505 112.728 84.6792C112.286 85.2093 110.323 88.7054 108.392 92.6115H119.171C120.31 90.6553 121.187 89.1375 121.187 89.1375C121.187 89.1375 121.868 90.6332 122.695 92.6115H157.226C157.772 90.3144 158.113 87.4211 158.113 87.4211C158.113 87.4211 159.962 89.9358 161.981 92.6115H171.933C169.512 88.5504 166.509 83.2652 165.316 80.1039Z" fill="#385369"/>
<path d="M141.842 40.3774C141.842 40.3774 149.665 41.6098 148.474 53.8498C147.283 66.0898 140.378 65.0867 139.917 65.0742C139.455 65.0619 132.985 65.2973 132.481 50.353C132.481 50.353 132.261 39.3022 141.842 40.3774Z" fill="#EEA886"/>
<path d="M148.595 50.3925C148.595 50.3925 149.451 49.4776 149.766 50.4039C150.08 51.3302 148.597 55.4618 148.544 55.6549C148.544 55.6549 148.388 56.0142 148.182 55.8166C147.976 55.6188 148.595 50.3925 148.595 50.3925Z" fill="#EEA886"/>
<path d="M132.692 50.2377C132.692 50.2377 131.853 49.3063 131.52 50.2263C131.189 51.1464 132.578 55.3052 132.641 55.5001C132.641 55.5001 132.79 55.8622 132.999 55.6686C133.209 55.4747 132.692 50.2377 132.692 50.2377Z" fill="#EEA886"/>
<path d="M148.591 52.27L147.471 53.7673C147.471 53.7673 147.503 50.4846 147.323 49.9698C147.144 49.4552 146.869 47.8827 146.718 47.5118C146.568 47.1412 140 45.3005 134.199 48.0494C134.199 48.0494 134.454 50.4099 133.898 50.62C133.342 50.83 133.615 54.4645 133.615 54.4645L132.694 53.4254C132.694 53.4254 131.284 44.0084 131.633 43.0269C131.981 42.0453 133.09 36.1443 144.992 39.6473C144.992 39.6473 148.702 38.8615 149.447 41.4233C150.191 43.9849 148.591 52.27 148.591 52.27Z" fill="#434343"/>
<path d="M146.623 67.6507C146.619 67.6396 145.619 67.1576 145.619 67.1576C145.132 66.0678 145.494 61.4697 145.494 61.4697C145.494 61.4697 135.53 58.9338 135.814 60.8729C136.099 62.8119 134.956 67.3172 134.956 67.3172L129.845 69.8553C129.845 69.8553 135.291 84.4787 141.55 82.592C147.809 80.7058 150.173 69.3281 150.173 69.3281L146.623 67.6507Z" fill="#EEA886"/>
<path d="M135.958 63.0264C135.958 63.0264 137.563 65.0989 140.35 65.0989C142.182 65.0989 143.498 64.585 145.324 62.8047C145.324 62.8047 144.532 66.1857 140.362 66.5003C140.362 66.5003 137.337 66.8848 135.958 63.0264Z" fill="#A77860"/>
<path opacity="0.95" d="M259.165 70.7509H206.537C201.721 70.7509 197.816 66.8462 197.816 62.0297V16.3648C197.816 11.5481 201.721 7.64355 206.537 7.64355H259.165C263.982 7.64355 267.887 11.5482 267.887 16.3648V62.0297C267.887 66.8464 263.982 70.7509 259.165 70.7509Z" fill="url(#paint3_linear_3742_1168)"/>
<path d="M235.364 58.8145H229.807V59.8436H235.364V58.8145Z" fill="#4598E6"/>
<path d="M237.611 2.11579C237.611 2.11579 242.089 4.5745 240.667 10.6204C239.246 16.6663 238.705 17.4645 239.86 19.9075C241.015 22.3507 242.03 32.5882 240.798 34.4611C239.566 36.3339 227.077 25.3256 225.689 16.5189C224.301 7.71217 227.425 3.97185 228.533 2.57597C229.641 1.18009 233.661 -0.129191 237.611 2.11579Z" fill="#344052"/>
<path d="M246.018 52.085H241.224C240.993 49.7204 240.778 48.0744 240.822 47.8309C240.893 47.4289 236.052 34.7311 235.6 33.6807C235.145 32.6333 233.37 29.8169 233.138 27.1645C232.904 24.5124 236.363 23.4414 236.363 23.4414C241.03 24.2777 242.612 30.7351 242.612 30.7351C242.612 30.7351 244.572 43.8291 245.564 47.5141C245.819 48.4586 245.957 50.1281 246.018 52.085Z" fill="#EEA886"/>
<path d="M243.605 33.8891L236.466 36.8989C236.466 36.8989 229.905 20.6156 235.405 22.4336C240.888 24.2461 243.355 27.6536 243.605 33.8891Z" fill="#EB4747"/>
<path d="M242.017 41.5556C241.808 43.1721 240.954 48.899 241.145 50.4454C241.178 50.7005 241.283 51.2874 241.442 52.0853H224.228C224.686 50.4511 225.103 49.0046 225.355 48.1628C226.191 45.3902 225.39 44.6479 224.968 42.4301C224.803 41.5616 224.226 39.9126 223.594 38.0495C223.383 37.4275 223.166 36.7793 222.958 36.128C222.201 33.7808 221.849 31.3809 221.632 29.9843C220.593 23.3625 225.686 22.7257 225.686 22.7257C227.579 22.3765 230.885 21.3555 230.885 21.3555L236.064 22.4324C236.064 22.4324 236.556 22.6172 237.275 23.1482C237.275 23.1482 237.278 23.1482 237.278 23.1513C237.624 23.4064 238.023 23.7409 238.443 24.1722C239.009 24.7531 240.136 26.4165 241.259 28.2443C241.603 28.8048 241.949 29.3796 242.275 29.9459C243.328 31.7678 244.076 33.2377 244.052 34.8954C244.032 36.5272 242.225 39.9392 242.017 41.5556Z" fill="#EB4747"/>
<path d="M236.064 22.4338C236.064 22.4338 239.308 27.9785 238.102 28.3925C236.895 28.8064 230.536 27.4066 228.053 22.168C228.053 22.168 232.226 20.2709 236.064 22.4338Z" fill="#EEA886"/>
<path d="M235.599 24.9663C235.599 24.9663 232.718 26.1857 230.108 22.1714C230.108 22.1714 230.809 17.6131 229.327 14.9763C227.845 12.3404 235.806 18.1369 235.806 18.1369C235.806 18.1369 235.678 18.6804 235.544 19.4829C235.476 19.8935 235.405 20.3712 235.352 20.8782C235.307 21.3006 235.273 21.7443 235.258 22.1862C235.224 23.2116 235.297 24.2293 235.599 24.9663Z" fill="#EEA886"/>
<path d="M228.444 31.1768C227.85 34.228 223.594 38.0506 223.594 38.0506C223.384 37.427 223.167 36.78 222.958 36.1296C225.895 34.2558 228.444 31.1768 228.444 31.1768Z" fill="#393D63"/>
<path d="M227.376 33.604C227.106 34.716 225.865 45.9791 226 46.3633C226.08 46.5836 226.681 49.1889 227.283 52.0846H221.726C221.157 50.2188 220.819 48.6694 220.901 47.7923C221.256 43.993 219.968 31.8819 219.968 31.8819C219.968 31.8819 218.815 24.5559 224.894 23.6406C224.894 23.6406 228.485 24.1131 228.703 26.7653C228.919 29.4202 227.646 32.4951 227.376 33.604Z" fill="#EEA886"/>
<path d="M219.52 35.1604L227.064 36.9226C227.064 36.9226 233.049 25.3028 227.659 23.1813C221.977 20.945 218.158 28.822 219.52 35.1604Z" fill="#EB4747"/>
<path d="M236.914 2.76098C236.914 2.76098 243.471 5.16725 239.315 16.4817C235.159 27.7961 226.675 14.5502 227.957 7.59739C229.239 0.644915 236.914 2.76098 236.914 2.76098Z" fill="#EEA987"/>
<path d="M240.32 9.63777C240.32 9.63777 236.86 12.7268 231.306 12.8709C231.306 12.8709 230.008 16.0346 229.798 17.0056C229.798 17.0056 224.312 7.58517 230.62 2.82669C236.928 -1.93161 242.649 7.66418 240.32 9.63777Z" fill="#344052"/>
<path d="M232.056 13.5502C232.053 12.7123 231.628 10.7857 230.36 11.2594C229.093 11.7332 230.228 15.6693 231.063 15.4699C231.063 15.4699 232.064 15.5328 232.056 13.5502Z" fill="#EEA987"/>
<path d="M235.265 21.9926C232.184 21.1404 230.993 18.2037 230.956 18.1055C233.462 21.3431 235.352 20.8781 235.352 20.8781C235.307 21.3004 235.304 21.5643 235.265 21.9926Z" fill="#A77860"/>
<path d="M249.506 19.0635V20.0699H255.432V25.6315H256.438V19.0635H249.506ZM209.264 25.6315H210.271V20.0699H216.196V19.0635H209.264L209.264 25.6315ZM255.432 54.3296V59.8932H249.506V60.8997H256.439V54.3296H255.432ZM210.271 54.3296H209.264V60.8997H216.197V59.8932H210.271L210.271 54.3296Z" fill="#4598E6"/>
<path d="M144.473 105.964H137.05V107.339H144.473V105.964Z" fill="#4598E6"/>
<path d="M163.007 52.8684V54.2127H170.922V61.6414H172.267V52.8684H163.007ZM109.256 61.6413H110.6V54.2125H118.516V52.8682H109.256V61.6413ZM170.922 99.9729V107.405H163.007V108.749H172.267V99.9731L170.922 99.9729ZM110.6 99.9729H109.256V108.749H118.516V107.404H110.6V99.9729Z" fill="#4598E6"/>
<path d="M306.577 156.153H300.298C300.183 155.902 300.09 155.683 300.014 155.508C298.15 151.109 288.549 141.022 288.549 141.022C288.549 141.022 288.549 141.027 288.549 141.044C288.549 141.044 288.544 141.049 288.544 141.055C288.544 141.055 288.544 141.06 288.544 141.066C288.538 141.082 288.533 141.093 288.527 141.109C288.522 141.131 288.516 141.158 288.506 141.191C288.5 141.208 288.495 141.229 288.495 141.246C288.489 141.262 288.484 141.273 288.478 141.29C288.085 142.76 286.15 150.082 285.183 156.153H242.696C242.597 155.59 242.483 155.055 242.351 154.558C241.963 153.049 241.701 151.557 241.532 150.164C241.526 150.093 241.515 150.027 241.51 149.956C241.477 149.7 241.45 149.443 241.428 149.191C241.062 145.377 241.335 142.454 241.357 142.159C241.237 142.415 240.379 145.563 239.253 149.448C238.635 151.579 237.936 153.935 237.242 156.153H227.209L239.799 119.83C240.078 119.611 243.346 118.032 245.729 116.896C248.16 115.737 251.095 114.037 253.745 112.584C255.1 111.841 256.379 111.168 257.489 110.66L257.658 110.584V110.578C259.488 109.742 260.707 109.19 260.707 109.19C260.707 109.19 260.707 109.19 260.712 109.19C260.756 109.185 261.046 109.157 261.505 109.114C264.062 108.868 271.997 108.125 274.653 107.972C274.871 107.955 275.057 107.95 275.199 107.944C275.319 107.939 275.412 107.939 275.467 107.944C275.8 107.966 277.439 108.535 279.587 109.354C279.669 109.382 279.751 109.414 279.833 109.447C279.937 109.486 280.035 109.524 280.139 109.562C280.325 109.633 280.516 109.704 280.707 109.781C281.09 109.934 281.489 110.087 281.888 110.245C282.024 110.3 282.166 110.354 282.308 110.409C286.609 112.114 291.538 114.229 292.707 115.07C293.483 115.622 295.893 120.163 298.686 125.781C301.692 135.409 305.369 149.3 306.577 156.153Z" fill="#DECBC4"/>
<path d="M275.398 106.709C275.285 112.421 264.227 115.545 264.227 115.545C264.227 115.545 259.602 109.746 260.706 109.191C261.14 108.973 261.316 108.107 261.37 107.137C261.421 106.213 261.362 105.194 261.308 104.546C261.275 104.142 261.243 103.882 261.243 103.882C261.243 103.882 262.823 102.215 264.833 100.229C268.346 96.7564 273.175 92.3074 273.182 94.0774C273.182 94.1711 273.17 94.2832 273.141 94.4128C272.293 98.3958 275.398 106.709 275.398 106.709Z" fill="#EEA886"/>
<path d="M271.139 98.3418C271.139 98.3418 271.139 98.3418 271.138 98.3429C271.117 98.3762 270.648 99.0779 269.847 100.085C268.149 102.22 264.958 105.728 261.37 107.137C261.42 106.213 261.361 105.194 261.307 104.547C260.94 104.538 260.573 104.495 260.209 104.414C261.193 102.696 262.613 100.894 262.613 100.894L264.833 100.23L271.139 98.3418Z" fill="#A77860"/>
<path d="M273.262 94.1545C272.305 96.2355 271.397 97.7438 271.139 98.3412C271.139 98.3412 271.139 98.3412 271.138 98.3423C270.971 98.7314 270.514 99.3659 269.847 100.084C268.025 102.048 264.637 104.637 261.307 104.546C260.94 104.537 260.573 104.494 260.209 104.414C258.865 104.12 257.277 103.495 256.403 101.785C249.504 88.2779 254.499 77.233 254.499 77.233C254.499 77.233 273.363 71.8986 276.314 77.5771C278.385 81.5603 275.509 89.2649 273.262 94.1545Z" fill="#EEA886"/>
<path d="M254.499 77.2333C254.499 77.2333 252.748 77.1362 252.314 73.8149C251.886 70.5335 252.752 69.624 252.752 69.624C252.752 69.624 260.539 66.3641 263.336 65.9401C266.132 65.5161 273.009 65.109 274.621 66.9524C274.621 66.9524 278.537 66.0424 279.604 72.5438C281.296 82.8577 273.836 92.8728 273.836 92.8728C273.836 92.8728 273.9 86.1346 272.414 85.2419C270.928 84.3491 269.645 86.4724 269.645 86.4724L266.605 87.0168C266.605 87.0168 271.222 77.048 265.684 76.6788C260.146 76.3094 257.67 77.8114 254.499 77.2333Z" fill="#E8734D"/>
<path d="M269.729 83.7856C270.018 80.817 275.386 79.6839 275.027 82.795C274.667 85.9066 272.023 88.8958 270.802 88.7906C269.581 88.6855 269.508 86.0483 269.729 83.7856Z" fill="#EEA886"/>
<path d="M301.15 126.06C299.402 120.458 297.888 116.027 297.216 115.546C296.041 114.704 286.729 112.141 282.309 110.409C282.166 110.354 282.025 110.3 281.888 110.245C281.489 110.087 281.09 109.934 280.707 109.781C280.516 109.704 280.325 109.633 280.139 109.562C280.035 109.524 279.937 109.486 279.833 109.447C279.751 109.415 279.669 109.382 279.587 109.354C279.582 109.36 279.576 109.371 279.565 109.376C279.172 109.819 277.128 112.141 274.686 115.617C270.117 122.109 264.166 132.628 265.079 142.339C265.374 145.454 265.735 149.929 266.341 154.951C266.385 155.35 266.434 155.749 266.489 156.153H287.101C287.353 150.896 287.8 143.973 288.478 141.289C288.484 141.273 288.489 141.262 288.495 141.246C288.495 141.229 288.5 141.208 288.505 141.191C288.511 141.164 288.522 141.137 288.527 141.109C288.533 141.093 288.538 141.082 288.544 141.066C288.544 141.06 288.544 141.055 288.544 141.055C288.544 141.049 288.549 141.044 288.549 141.044C288.549 141.044 293.538 148.842 293.795 156.153H306.768C306.134 149.361 304.151 135.672 301.15 126.06Z" fill="#3C4145"/>
<path d="M257.576 110.726C257.576 110.726 256.018 115.906 254.008 128.841C254.008 128.841 254.008 128.841 254.008 128.846C253.937 129.278 253.871 129.72 253.8 130.174C253.795 130.223 253.784 130.278 253.778 130.333C253.729 130.628 253.685 130.934 253.642 131.24C253.636 131.278 253.63 131.311 253.625 131.349C253.592 131.551 253.56 131.759 253.532 131.972C253.456 132.48 253.379 133.005 253.303 133.535C252.548 138.814 251.543 147.202 250.521 156.153H242.373C241.931 153.666 241.515 151.404 241.548 149.852C241.532 149.885 241.521 149.923 241.51 149.956C240.859 151.759 240.144 153.721 239.417 155.628C239.351 155.803 239.286 155.978 239.22 156.153H225.176L239.165 119.556C239.444 119.338 243.045 117.398 245.428 116.267C247.914 115.081 251.056 113.622 253.843 112.338C255.177 111.72 256.428 111.147 257.488 110.66L257.576 110.726Z" fill="#3C4145"/>
<path d="M276.522 123.524L271.139 126.562L273.439 128.907L268.39 156.153H266.488C265.789 150.645 265.39 145.7 265.079 142.339C263.674 127.322 278.658 110.387 279.587 109.354C280.308 109.628 281.084 109.928 281.888 110.245L276.522 123.524Z" fill="#51565C"/>
<path d="M257.658 110.584C257.658 110.584 255.647 117.147 253.308 133.535C252.554 138.809 251.543 147.202 250.521 156.153H249.729L248.685 130.41L251.248 127.633L248.969 124.787L253.844 112.338C255.177 111.721 256.428 111.147 257.488 110.66L257.658 110.584Z" fill="#51565C"/>
<path d="M279.859 109.418L275.398 106.709C275.398 106.709 275.273 109.155 264.227 115.545L267.364 124.38L279.859 109.418Z" fill="#F5E2D9"/>
<path d="M261.288 107.941C261.288 107.941 261.462 110.582 264.227 115.545L258.105 123.526L257.658 110.582L261.288 107.941Z" fill="#F5E2D9"/>
<path d="M264.244 115.545C264.244 115.545 265.43 120.291 265.003 121.62C265.003 121.62 262.394 122.569 260.519 121.382C260.519 121.382 261.847 118.06 264.244 115.545Z" fill="#D44040"/>
<path d="M262.806 131.683C261.554 140.208 261.554 148.831 262.019 156.153H256.789C256.718 155.121 256.652 154.044 256.587 152.918C255.614 136.038 261.581 120.956 261.581 120.956L264.243 120.289C264.243 120.289 263.385 127.748 262.806 131.683Z" fill="#D44040"/>
<path d="M241.717 142.201C241.518 146.251 241.547 149.848 241.547 149.848C241.547 149.848 241.547 149.849 241.547 149.851C241.546 149.871 241.542 149.98 241.533 150.161C241.525 150.092 241.517 150.025 241.508 149.958C240.86 151.76 240.142 153.72 239.418 155.628C239.249 153.417 239.206 151.356 239.255 149.448C239.545 138.092 243.117 132.137 243.117 132.137C242.298 134.116 241.905 138.363 241.717 142.201Z" fill="#2D3133"/>
<path d="M113.393 478.403L113.578 478.399C115.095 478.371 116.266 477.131 116.124 475.705L106.006 374.655L97.1766 375.443L111.705 477.037C111.819 477.831 112.545 478.418 113.393 478.403Z" fill="#8CB4F4"/>
<path d="M15.9643 478.403L15.7786 478.399C14.2621 478.371 13.0907 477.131 13.2334 475.705L23.3517 374.655L32.1808 375.443L17.6519 477.037C17.5385 477.831 16.8127 478.418 15.9643 478.403Z" fill="#8CB4F4"/>
<path d="M184.775 478.403L184.961 478.399C186.477 478.371 187.649 477.131 187.506 475.705L177.388 374.655L168.559 375.443L183.088 477.037C183.201 477.831 183.927 478.418 184.775 478.403Z" fill="#8CB4F4"/>
<path d="M18.9777 359.956L1.0172 271.262C-1.28821 259.254 8.66248 248.273 21.583 248.568L56.2207 249.359C68.1699 249.632 78.5595 257.63 81.8804 269.111L108.157 359.956H18.9777Z" fill="#8CB4F4"/>
<path d="M29.8433 359.956L11.8831 271.262C9.5777 259.254 19.5284 248.273 32.4489 248.568L67.0866 249.359C79.0359 249.632 89.4252 257.63 92.7463 269.111L119.023 359.956H29.8433Z" fill="#8CB4F4"/>
<path d="M23.9835 376.132H161.025C163.778 376.132 166.031 373.88 166.031 371.126V364.962C166.031 362.209 163.779 359.956 161.025 359.956H18.9777V371.126C18.9777 373.88 21.2303 376.132 23.9835 376.132Z" fill="#8CB4F4"/>
<path d="M88.2936 376.132H175.655C177.872 376.132 179.687 374.318 179.687 372.1V363.989C179.687 361.771 177.873 359.956 175.655 359.956H88.2936C86.0758 359.956 84.261 361.771 84.261 363.989V372.1C84.261 374.318 86.0755 376.132 88.2936 376.132Z" fill="#8CB4F4"/>
<path d="M138.362 341.394C130.948 354.298 121.624 359.279 121.624 359.279H82.83C82.83 359.279 144.018 331.551 138.362 341.394Z" fill="#233862"/>
<path d="M186.209 469.589C185.79 473.659 191.452 474.711 198.017 475.108C204.583 475.506 202.583 476.83 211.568 478.557C220.554 480.284 224.188 477.859 224.852 476.65C225.444 475.577 221.277 473.844 216.837 471.889C216.278 471.645 215.719 471.393 215.159 471.141C210.162 468.88 207.394 464.347 203.524 460.131C199.859 456.138 196.475 443.44 196.475 443.44L184.269 440.696C184.269 440.696 187.582 452.127 188.722 457.004C189.393 459.873 188.324 463.06 187.379 465.485C186.87 466.804 186.355 468.155 186.209 469.589Z" fill="#FFB27D"/>
<path d="M198.017 475.108C204.583 475.506 202.583 476.83 211.568 478.557C220.554 480.284 224.188 477.859 224.852 476.65C225.444 475.577 221.277 473.844 216.837 471.889L216.766 471.964C216.766 471.964 210.413 474.046 203.128 471.981C197.19 470.3 191.47 466.679 187.379 465.485C186.87 466.804 186.356 468.155 186.209 469.589C185.79 473.659 191.452 474.711 198.017 475.108Z" fill="#0F2549"/>
<path d="M167.717 328.177C161.149 323.565 117.703 315.343 95.5314 312.965L71.0257 291.692C71.0257 291.692 50.1668 322.588 50.0014 346.223C49.9243 357.243 55.0004 358.338 55.0015 358.34C55.0015 358.34 133.56 358.923 137.004 359.278C142.64 359.859 150.075 373.901 151.933 386.691C153.791 399.48 186.55 451.497 186.55 451.497C186.55 451.497 193.381 453.686 196.541 453.501C199.939 453.301 201.511 452.163 201.511 452.163C201.511 452.163 182.529 338.578 167.717 328.177Z" fill="#233862"/>
<path d="M165.89 469.589C165.47 473.659 171.132 474.711 177.697 475.108C184.263 475.506 182.263 476.83 191.248 478.557C200.234 480.284 203.868 477.859 204.532 476.65C205.124 475.577 200.957 473.844 196.517 471.889C195.958 471.645 195.399 471.393 194.839 471.141C189.842 468.88 187.074 464.347 183.204 460.131C179.539 456.138 176.155 443.44 176.155 443.44L163.949 440.696C163.949 440.696 167.262 452.127 168.403 457.004C169.073 459.873 168.004 463.06 167.059 465.485C166.55 466.804 166.036 468.155 165.89 469.589Z" fill="#FFB27D"/>
<path d="M177.697 475.108C184.263 475.506 182.263 476.83 191.248 478.557C200.234 480.284 203.868 477.859 204.532 476.65C205.124 475.577 200.957 473.844 196.517 471.889L196.446 471.964C196.446 471.964 190.093 474.046 182.808 471.981C176.87 470.3 171.15 466.679 167.059 465.485C166.55 466.804 166.036 468.155 165.89 469.589C165.47 473.659 171.132 474.711 177.697 475.108Z" fill="#233862"/>
<path d="M147.217 328.177C141.511 324.17 124.35 321.064 105.406 318.758C100.168 318.121 95.8682 314.313 94.589 309.194L50.5262 291.692C50.5262 291.692 29.6673 322.588 29.5019 346.223C29.4249 357.243 34.5009 358.338 34.502 358.34C34.502 358.34 113.06 358.923 116.504 359.278C122.141 359.859 129.576 373.901 131.434 386.691C133.292 399.48 166.051 451.497 166.051 451.497C166.051 451.497 172.882 453.686 176.041 453.501C179.439 453.301 181.012 452.163 181.012 452.163C181.012 452.163 162.029 338.578 147.217 328.177Z" fill="#2B478B"/>
<path d="M88.2555 163.329C82.2003 160.149 72.9873 159.719 71.4904 159.518C53.5792 157.111 42.799 183.138 42.1648 191.024C40.9963 205.56 33.3066 207.776 22.4827 216.88C0.780012 235.133 7.1442 256.344 19.0115 264.225C26.1317 268.954 38.682 264.225 38.682 264.225C38.8596 264.349 73.0054 245.136 89.8373 235.869C115.07 232.282 103.685 171.431 88.2555 163.329Z" fill="#233862"/>
<path d="M84.5201 226.915C84.5985 226.955 76.5614 230.611 70.7595 228.694C65.3016 226.896 60.4942 218.678 60.5715 218.666C62.9405 218.323 65.3485 215.986 66.0207 202.138L67.0698 202.402L84.7081 206.86C84.7081 206.86 84.0103 212.448 83.7228 217.731C83.4793 222.167 83.5289 226.389 84.5201 226.915Z" fill="#FFB27D"/>
<path d="M84.7078 206.86C84.7078 206.86 84.7078 208.01 84.0486 213.209C74.0731 210.692 69.6743 207.384 66.5725 203.599L84.7078 206.86Z" fill="#ED975D"/>
<path d="M88.4708 207.564C88.4708 207.564 65.1462 211.362 63.0051 196.8C60.8638 182.238 56.4111 172.921 71.2127 169.881C86.0142 166.841 89.7314 171.971 91.6281 176.657C93.5251 181.344 94.4828 206.201 88.4708 207.564Z" fill="#FFB27D"/>
<path d="M88.4931 169.27C88.4931 169.27 77.901 185.99 68.4452 189.95C58.9894 193.91 54.3439 191.9 54.3439 191.9C54.3439 191.9 58.6457 185.377 59.7664 176.619C60.0967 174.038 61.7787 171.824 64.1949 170.857C70.9804 168.139 84.1062 163.854 88.4931 169.27Z" fill="#233862"/>
<path d="M79.1888 170.887C79.1888 170.887 85.3973 174.07 87.954 177.053C90.4214 179.932 93.271 187.743 93.0676 191.251C93.0676 191.251 96.1301 174.44 89.751 168.661C82.9873 162.533 79.1888 170.887 79.1888 170.887Z" fill="#233862"/>
<path d="M103.18 262.489C102.472 309.901 102.985 299.993 97.7994 304.492C96.5495 305.575 93.0366 306.221 88.4129 306.526C73.8753 307.491 48.3197 305.096 47.3476 302.409C43.9944 293.113 46.3618 290.225 43.5639 275.993C43.2721 274.479 42.9113 272.841 42.4878 271.057C40.1552 261.281 37.8848 257.956 46.1605 242.252C53.6655 228.027 62.491 216.47 63.1921 216.887C82.9924 228.641 83.6703 218.788 83.6703 218.788C83.6703 218.788 103.527 239.364 103.18 262.489Z" fill="white"/>
<path d="M83.6703 218.789C83.6703 218.789 103.935 222.224 106.327 230.996C108.72 239.768 122.798 291.337 122.798 291.337C122.798 291.337 112.441 293.198 107.656 288.413C102.871 283.628 91.0074 244.021 91.0074 244.021L83.6703 218.789Z" fill="white"/>
<path d="M88.4129 306.526C73.8753 307.491 48.3197 305.096 47.3476 302.409C43.9945 293.113 46.3618 290.225 43.5639 275.993L50.5758 256.248C50.5758 256.248 49.4165 278.235 55.9008 284.018C62.3782 289.801 82.4493 295.182 85.6012 300.014C87.1216 302.333 88.1214 304.658 88.4129 306.526Z" fill="#EBF3FF"/>
<path d="M71.7564 297.279C71.7564 297.279 86.0988 294.085 88.4131 295.358C90.7274 296.631 96.3833 301.267 97.0914 302.879C97.7997 304.492 91.9393 301.655 90.0331 301.144C88.7987 300.813 85.5492 301.942 83.9408 302.478C77.1717 304.735 73.024 303.574 73.024 303.574L71.7564 297.279Z" fill="#FFB27D"/>
<path d="M63.1921 216.888C63.1921 216.888 42.893 218.074 36.2263 227.372C26.8416 240.461 8.22512 296.244 18.8944 303.683C30.9099 312.062 73.5792 305.875 73.5792 305.875C73.5792 305.875 74.9994 299.238 73.0234 296.028C71.0478 292.817 38.9426 287.631 37.4608 286.149C35.979 284.668 55.983 257.255 55.983 252.809C55.9833 248.364 63.1921 216.888 63.1921 216.888Z" fill="white"/>
<path d="M89.1074 299.351C89.1074 299.351 92.1125 303.227 93.0978 303.69C94.083 304.152 94.7194 304.037 94.7194 304.037L92.6944 300.392L89.1074 299.351Z" fill="#FFB27D"/>
<path d="M88.4129 295.358L97.1501 299.601C97.1501 299.601 96.7786 300.21 95.7025 300.16C94.6267 300.111 91.9131 299.119 91.9131 299.119L88.4129 295.358Z" fill="#FFB27D"/>
<path d="M120.599 305.418H80.0197C80.0197 303.631 81.4679 302.183 83.2544 302.183H120.599V305.418Z" fill="#ED7D2B"/>
<path d="M120.482 261.223H183.22L168.172 305.417H105.027L120.482 261.223Z" fill="#ED7D2B"/>
<path d="M184.144 261.222L169.096 305.417H105.95L121.406 261.222H184.144Z" fill="#F99746"/>
<path d="M150.32 282.911C149.93 284.6 148.245 285.968 146.556 285.968C144.868 285.968 143.815 284.6 144.205 282.911C144.595 281.222 146.28 279.854 147.968 279.854C149.657 279.854 150.709 281.222 150.32 282.911Z" fill="white"/>
<path d="M65.9938 315.36H340.932C342.088 315.36 343.025 314.423 343.025 313.266V307.511C343.025 306.354 342.088 305.417 340.932 305.417H65.9938C64.8375 305.417 63.9002 306.354 63.9002 307.511V313.266C63.9002 314.423 64.8375 315.36 65.9938 315.36Z" fill="#182D4F"/>
<path d="M347.663 479.142L347.781 479.127C349.19 478.953 350.187 477.696 350.009 476.32L325.509 310.476L316.539 310.733L345.366 477.474C345.55 478.542 346.564 479.278 347.663 479.142Z" fill="#182D4F"/>
<path d="M56.787 479.142L56.669 479.127C55.2608 478.953 54.2631 477.696 54.4412 476.32L78.9415 310.476L87.911 310.733L59.0843 477.474C58.8998 478.542 57.8865 479.278 56.787 479.142Z" fill="#182D4F"/>
<path d="M113.506 479.142L113.388 479.127C111.98 478.953 110.982 477.696 111.16 476.32L135.661 310.476L144.63 310.733L115.804 477.474C115.619 478.542 114.606 479.278 113.506 479.142Z" fill="#182D4F"/>
<path d="M258.049 479.008H306.667C309.005 476.154 308.144 465.625 307.79 462.187C307.717 461.495 307.667 461.091 307.667 461.091C307.667 461.091 291.065 447.811 288.784 457.979C288.715 458.299 288.631 458.61 288.538 458.918C285.665 468.428 272.778 472.751 265.337 473.955C260.499 474.739 258.711 477.254 258.049 479.008Z" fill="#233862"/>
<path d="M390.709 321.031C388.954 321.031 307.43 336.338 293.945 353.03C287.208 361.369 286.207 457.674 286.207 457.674C286.207 457.674 294.541 468.008 312.541 462.008C312.541 462.008 325.738 396.118 324.763 376.132C324.494 370.606 380.465 375.332 390.709 372.681C400.953 370.03 425.984 347.745 420.468 336.888C414.953 326.031 390.709 321.031 390.709 321.031Z" fill="#233862"/>
<path d="M294.295 297.448C294.295 297.448 277.85 297.67 273.961 299.337C270.072 301.004 262.183 304.83 264.294 305.417C266.405 306.004 276.479 305.175 278.655 305.508C280.832 305.841 283.517 305.416 284.85 305.417C286.183 305.417 292.403 305.417 292.403 305.417L294.295 297.448Z" fill="#FFB27D"/>
<path d="M275.068 257.984C275.068 257.984 269.461 253.978 264.017 253.2C260.912 252.756 257.893 252.203 256.068 251.56C251.044 249.79 240.992 240.752 241.753 239.692C244.191 236.294 255.926 243.484 257.974 242.712C260.022 241.94 254.037 237.685 256.119 236.188C257.206 235.406 259.75 239.324 261.829 239.718C264.642 240.25 266.841 244.222 267.687 244.43C269.336 244.833 276.555 250.203 276.555 250.203L275.068 257.984Z" fill="#FFB27D"/>
<path d="M382.589 211.197C382.589 211.197 370.071 215.077 357.738 249.04C345.404 283.003 340.721 284.837 336.237 286.17C331.754 287.503 292.403 295.337 292.403 295.337V305.416H353.037C353.037 305.416 375.773 283.789 382.589 269.229C389.405 254.669 382.589 211.197 382.589 211.197Z" fill="#ED7D2B"/>
<path d="M236.562 479.008H285.18C287.518 476.154 286.656 465.625 286.303 462.187C286.23 461.495 286.18 461.091 286.18 461.091C286.18 461.091 269.578 447.811 267.297 457.979C267.228 458.299 267.143 458.61 267.051 458.918C264.178 468.428 251.291 472.751 243.85 473.955C239.012 474.739 237.224 477.254 236.562 479.008Z" fill="#1B3051"/>
<path d="M366.686 321.031C364.93 321.031 283.406 336.338 269.921 353.03C263.184 361.369 262.183 457.674 262.183 457.674C262.183 457.674 270.518 468.008 288.517 462.008C288.517 462.008 301.714 396.118 300.739 376.132C300.47 370.606 356.441 375.332 366.685 372.681C376.929 370.03 401.96 347.745 396.444 336.888C390.929 326.031 366.686 321.031 366.686 321.031Z" fill="#2B478B"/>
<path d="M371.787 221.961C377.652 221.477 383.801 219.914 389.116 218.189C395.759 216.034 401.114 212.883 397.663 206.811C394.483 201.215 389.336 188.714 389.684 178.357L377.322 188.32L368.924 195.086C368.924 195.086 368.959 199.075 369.877 206.066C370.045 207.34 370.241 208.716 370.472 210.186C370.659 211.374 370.114 212.56 369.092 213.194C369.028 213.233 368.965 213.272 368.902 213.312C364.729 215.934 366.875 222.367 371.787 221.961Z" fill="#FFB27D"/>
<path d="M368.924 193.439C368.924 193.439 368.495 194.887 369.233 200.236C376.719 199.014 383.718 193.043 383.718 193.043C379.907 191.997 378.52 187.879 375.681 188.262L368.924 193.439Z" fill="#ED975D"/>
<path d="M362 194.659C362 194.659 390.797 199.443 393.5 181.464C396.203 163.485 401.74 151.994 383.469 148.18C365.197 144.365 360.585 150.687 358.223 156.469C355.861 162.25 354.579 192.951 362 194.659Z" fill="#FFB27D"/>
<path d="M353.988 148.512C352.751 152.841 356.061 158.115 361.616 159.851C369.862 162.428 368.04 172.543 371.751 172.406C375.462 172.268 376.959 166.591 380.274 171.127C383.101 174.996 377.921 179.582 378.277 181.704C378.889 185.346 384.594 192.798 389.735 192.424C394.877 192.05 404.498 167.616 402.573 160.057C400.649 152.498 392.952 144.526 385.668 143.427C378.384 142.327 368.268 145.472 365.931 145.472C363.595 145.472 354.656 146.174 353.988 148.512Z" fill="#2B478B"/>
<path d="M420.852 236.15C416.69 219.398 405.186 201.82 397.408 201.835C384.154 201.86 365.1 205.358 357.407 224.335C351.741 238.313 344.183 318.715 352.725 324.433C372.25 337.505 417.51 364.189 425.55 336.977C432.917 312.043 428.076 265.225 420.852 236.15Z" fill="#F99746"/>
<path d="M388.66 219.48C384.879 209.644 372.683 206.244 364.366 212.714C359.868 216.214 354.359 221.198 347.705 228.283C322.97 254.624 317.943 254.46 313.297 253.916C308.652 253.372 269.403 245.042 269.403 245.042C269.403 245.042 267.393 246.524 266.21 248.921C264.63 252.122 265.425 254.303 265.425 254.303C263.888 253.31 279.338 263.96 287.029 268.206C297.185 273.814 312.488 279.071 318.583 281.068C320.311 281.634 322.174 281.605 323.884 280.989C332.931 277.728 363.312 265.846 388.044 245.228C394.56 239.795 392.166 228.6 388.66 219.48Z" fill="#F99746"/>
<path d="M398.742 201.997L395.741 195.236C395.741 195.236 368.881 197.427 364.366 212.715C364.366 212.715 385.188 202.324 398.742 201.997Z" fill="white"/>
<path d="M463.956 478.403L464.142 478.399C465.658 478.371 466.83 477.131 466.687 475.705L456.569 374.655L447.74 375.443L462.269 477.037C462.382 477.831 463.108 478.418 463.956 478.403Z" fill="#8CB4F4"/>
<path d="M411.876 478.403L412.062 478.399C413.578 478.371 414.75 477.131 414.607 475.705L404.489 374.655L395.66 375.443L410.188 477.037C410.302 477.831 411.028 478.418 411.876 478.403Z" fill="#8CB4F4"/>
<path d="M314.105 478.403L313.919 478.399C312.403 478.371 311.231 477.131 311.374 475.705L321.492 374.655L330.321 375.443L315.793 477.037C315.678 477.831 314.953 478.418 314.105 478.403Z" fill="#73A2E5"/>
<path d="M461.097 360.341L470.7 275.942C471.96 263.779 467.889 251.871 450.338 250.949L419.461 249.068C401.161 248.313 392.898 263.544 390.581 275.27L372.251 368.045L461.097 360.341Z" fill="#8CB4F4"/>
<path d="M455.937 376.133H318.896C316.142 376.133 313.889 373.881 313.889 371.127V364.963C313.889 362.21 316.142 359.957 318.896 359.957H460.943V371.127C460.943 373.881 458.69 376.133 455.937 376.133Z" fill="#73A2E5"/>
<path d="M457.055 376.133H376.138C374 376.133 372.25 374.383 372.25 372.245V363.844C372.25 361.705 374 359.956 376.138 359.956H460.943V372.244C460.943 374.383 459.194 376.133 457.055 376.133Z" fill="#8CB4F4"/>
<defs>
<linearGradient id="paint0_linear_3742_1168" x1="147.573" y1="214.111" x2="140.125" y2="79.1222" gradientUnits="userSpaceOnUse">
<stop stop-color="#D1D7E0"/>
<stop offset="1" stop-color="#EBEBFF"/>
</linearGradient>
<linearGradient id="paint1_linear_3742_1168" x1="269.402" y1="251.744" x2="269.402" y2="112.772" gradientUnits="userSpaceOnUse">
<stop stop-color="#D1D7E0"/>
<stop offset="1" stop-color="#EBEBFF"/>
</linearGradient>
<linearGradient id="paint2_linear_3742_1168" x1="140.761" y1="165.925" x2="140.761" y2="64.3078" gradientUnits="userSpaceOnUse">
<stop stop-color="#D1D7E0"/>
<stop offset="1" stop-color="#EBEBFF"/>
</linearGradient>
<linearGradient id="paint3_linear_3742_1168" x1="232.851" y1="80.0164" x2="232.851" y2="22.7737" gradientUnits="userSpaceOnUse">
<stop stop-color="#D1D7E0"/>
<stop offset="1" stop-color="#EBEBFF"/>
</linearGradient>
</defs>
</svg>
