<svg width="45" height="45" viewBox="0 0 45 45" fill="none" xmlns="http://www.w3.org/2000/svg">
<g clip-path="url(#clip0_4584_84)">
<path d="M44.9896 40.8704C44.8993 40.148 44.2401 39.6357 43.5179 39.7258L42.2753 39.8811V34.196C42.2753 33.369 41.5227 32.7462 40.7103 32.901L40.5175 32.9376V28.7402C40.5175 27.9028 39.747 27.2776 38.9276 27.4502L28.509 29.6436C26.4435 30.0784 24.5737 31.2204 23.2439 32.8595C22.9696 33.1975 22.7222 33.5545 22.5 33.9255C22.2777 33.5545 22.0304 33.1975 21.7561 32.8595C20.4262 31.2205 18.5563 30.0784 16.491 29.6436L6.07232 27.4502C5.25292 27.2776 4.48238 27.9028 4.48238 28.7402V32.9376L4.28963 32.9009C3.47717 32.7462 2.72457 33.369 2.72457 34.196V39.8811L1.48197 39.7258C0.759068 39.6353 0.100592 40.148 0.0103279 40.8704C-0.0800237 41.5929 0.432466 42.2518 1.15493 42.3422L22.3365 44.9899C22.3907 44.9966 22.4454 45.0001 22.5 45.0001C22.5545 45.0001 22.6092 44.9966 22.6634 44.9899L43.845 42.3422C44.5675 42.2517 45.08 41.5929 44.9896 40.8704ZM7.1191 30.3651L15.9478 32.2237C18.4043 32.7408 20.2976 34.5871 20.942 36.9142C20.0301 36.2013 18.944 35.6922 17.7454 35.4639L7.1191 33.4399V30.3651ZM5.36128 40.2107V35.7892L17.2521 38.0541C19.3232 38.4486 20.8773 40.1368 21.1414 42.1832L5.36128 40.2107ZM29.0521 32.2237L37.8808 30.3651V33.4399L27.2544 35.4639C26.0559 35.6923 24.9698 36.2013 24.0579 36.9142C24.7024 34.5871 26.5957 32.7408 29.0521 32.2237ZM39.6386 40.2107L23.8585 42.1832C24.1226 40.1368 25.6767 38.4486 27.7477 38.0541L39.6386 35.7892V40.2107Z" fill="#FF8285"/>
<path d="M16.0713 17.8995C16.8754 18.5624 17.3365 19.4746 17.3365 20.4023V24.1699C17.3365 25.8661 18.7165 27.2461 20.4127 27.2461H24.5875C26.2837 27.2461 27.6637 25.8661 27.6637 24.1699V20.4023C27.6637 19.4746 28.1247 18.5624 28.9288 17.8995C31.2666 15.972 32.6074 13.1319 32.6074 10.1074C32.6074 4.53419 28.0732 0 22.5 0C16.9268 0 12.3926 4.53419 12.3926 10.1074C12.3926 13.1319 13.7334 15.972 16.0713 17.8995ZM25.0269 24.1699C25.0269 24.4122 24.8297 24.6094 24.5874 24.6094H20.4126C20.1703 24.6094 19.9731 24.4122 19.9731 24.1699V21.9727H25.0269V24.1699ZM22.5 2.63672C26.6193 2.63672 29.9707 5.98808 29.9707 10.1074C29.9707 12.3417 28.9796 14.4403 27.2515 15.8651C26.1336 16.7867 25.3927 18.0134 25.1315 19.3359H23.8184V12.4113L26.0689 10.1608C26.5837 9.64591 26.5837 8.81121 26.0689 8.29635C25.5541 7.78148 24.7193 7.78148 24.2045 8.29635L22.5 10.0008L20.7954 8.29635C20.2807 7.78148 19.4459 7.78148 18.931 8.29635C18.4162 8.81121 18.4162 9.64591 18.931 10.1608L21.1816 12.4113V19.3359H19.8686C19.6073 18.0134 18.8665 16.7868 17.7486 15.8651C16.0204 14.4403 15.0293 12.3417 15.0293 10.1074C15.0293 5.98808 18.3807 2.63672 22.5 2.63672Z" fill="#FF8285"/>
<path d="M36.5625 8.78906C35.8344 8.78906 35.2441 9.37934 35.2441 10.1074C35.2441 10.8355 35.8344 11.4258 36.5625 11.4258H39.1992C39.9273 11.4258 40.5176 10.8355 40.5176 10.1074C40.5176 9.37934 39.9273 8.78906 39.1992 8.78906H36.5625Z" fill="#FF8285"/>
<path d="M36.3427 5.53617L38.6261 4.21781C39.2566 3.85377 39.4727 3.04746 39.1086 2.41693C38.7446 1.7864 37.9383 1.57037 37.3078 1.93441L35.0244 3.25277C34.3938 3.61681 34.1778 4.42312 34.5418 5.05365C34.9059 5.68418 35.7122 5.90021 36.3427 5.53617Z" fill="#FF8285"/>
<path d="M35.0244 16.962L37.3078 18.2803C37.9383 18.6444 38.7446 18.4283 39.1086 17.7978C39.4727 17.1673 39.2566 16.361 38.6261 15.9969L36.3427 14.6786C35.7122 14.3145 34.9059 14.5305 34.5418 15.1611C34.1778 15.7916 34.3938 16.5979 35.0244 16.962Z" fill="#FF8285"/>
<path d="M5.80078 11.4258H8.4375C9.16559 11.4258 9.75586 10.8355 9.75586 10.1074C9.75586 9.37934 9.16559 8.78906 8.4375 8.78906H5.80078C5.0727 8.78906 4.48242 9.37934 4.48242 10.1074C4.48242 10.8355 5.0727 11.4258 5.80078 11.4258Z" fill="#FF8285"/>
<path d="M6.37374 4.21781L8.65714 5.53617C9.28766 5.90021 10.094 5.68418 10.458 5.05365C10.8221 4.42312 10.606 3.61681 9.97549 3.25277L7.6921 1.93441C7.06157 1.57037 6.25526 1.7864 5.89122 2.41693C5.52717 3.04746 5.74312 3.85377 6.37374 4.21781Z" fill="#FF8285"/>
<path d="M8.65712 14.6786L6.37372 15.9969C5.74319 16.361 5.52716 17.1673 5.8912 17.7978C6.25524 18.4283 7.06155 18.6444 7.69208 18.2803L9.97548 16.962C10.606 16.5979 10.822 15.7916 10.458 15.1611C10.094 14.5305 9.28764 14.3145 8.65712 14.6786Z" fill="#FF8285"/>
</g>
<defs>
<clipPath id="clip0_4584_84">
<rect width="45" height="45" fill="white"/>
</clipPath>
</defs>
</svg>
