<svg width="55" height="55" viewBox="0 0 55 55" fill="none" xmlns="http://www.w3.org/2000/svg">
<path d="M54.8665 24.5742L51.0397 18.6676C50.9516 18.5316 50.8248 18.4209 50.6748 18.3437L50.6753 18.3429L49.4463 17.7106C51.8494 16.0414 53.3994 13.4402 53.3994 10.5209C53.3994 5.49534 48.8111 1.40671 43.1714 1.40671C38.7788 1.40671 34.9561 3.88216 33.5329 7.46669C31.8404 6.36115 29.7548 5.70625 27.5 5.70625C25.466 5.70625 23.5703 6.24028 21.9758 7.1561C21.5488 5.41373 20.5569 3.81806 19.0882 2.55495C17.1724 0.907389 14.6506 0 11.9872 0C6.34752 0 1.75929 4.08863 1.75929 9.11425C1.75929 12.4909 3.83216 15.4422 6.90188 17.0171L4.32468 18.3431L4.32517 18.3438C4.17523 18.421 4.04843 18.5317 3.96033 18.6677L0.133526 24.5744C-0.141354 24.9986 0.0217825 25.5412 0.497877 25.7861L3.82693 27.4989V42.4458C3.82693 42.7627 4.0167 43.0556 4.32468 43.214L27.0023 54.8811C27.1563 54.9604 27.3282 55 27.5 55C27.6718 55 27.8437 54.9604 27.9977 54.8811L50.6752 43.2139C50.9832 43.0555 51.173 42.7627 51.173 42.4457V27.4988L54.502 25.786C54.9782 25.5411 55.1414 24.9985 54.8665 24.5742ZM43.1714 3.18102C47.7134 3.18102 51.4084 6.4737 51.4084 10.521C51.4084 14.5683 47.7134 17.861 43.1714 17.861C41.106 17.861 39.1622 17.1891 37.6449 15.9619C37.6977 15.5876 37.7279 15.2073 37.7279 14.8205C37.7279 12.5121 36.7581 10.4029 35.1647 8.79523C36.0474 5.51774 39.3404 3.18102 43.1714 3.18102ZM35.7371 14.8204C35.7371 18.8678 32.0419 22.1605 27.5001 22.1605C22.9583 22.1605 19.2632 18.8678 19.2632 14.8204C19.2632 10.7731 22.9583 7.48044 27.5001 7.48044C32.0419 7.48044 35.7371 10.7731 35.7371 14.8204ZM3.75028 9.11425C3.75028 5.06687 7.44542 1.77419 11.9872 1.77419C16.2917 1.77419 19.8169 4.67888 20.1906 8.45403C18.4062 10.0805 17.2978 12.2973 17.2743 14.7413C15.7929 15.8483 13.9321 16.4544 11.9872 16.4544C7.44542 16.4544 3.75028 13.1616 3.75028 9.11425ZM11.9872 18.2286C13.9669 18.2286 15.8759 17.722 17.5133 16.7828C18.5235 20.8681 22.6164 23.9348 27.5 23.9348C31.9365 23.9348 35.7207 21.404 37.1341 17.8779C38.8749 19.0181 40.967 19.6352 43.1713 19.6352C44.7256 19.6352 46.1992 19.3233 47.5197 18.7681L48.1866 19.1112L27.5 29.7541L6.81341 19.1112L9.20209 17.8822C10.0882 18.1061 11.0217 18.2286 11.9872 18.2286ZM5.1869 20.3229L26.1402 31.1031L23.3089 35.4732L2.35559 24.6932L5.1869 20.3229ZM5.81792 28.523L23.1753 37.4531C23.328 37.5317 23.4999 37.572 23.6731 37.572C23.7593 37.572 23.846 37.562 23.9307 37.5418C24.1858 37.4808 24.4031 37.3322 24.5352 37.1284L26.5045 34.0891V52.5765L5.81792 41.9335V28.523ZM49.182 41.9335L28.4955 52.5765V34.0891L30.4647 37.1285C30.5967 37.3324 30.8141 37.4809 31.0692 37.5419C31.154 37.5622 31.2406 37.5721 31.3268 37.5721C31.5 37.5721 31.6719 37.5318 31.8245 37.4532L49.182 28.5232V41.9335ZM31.6913 35.4732L28.86 31.1031L49.8132 20.3229L52.6445 24.6931L31.6913 35.4732ZM11.9872 15.2076C11.4375 15.2076 10.9917 14.8104 10.9917 14.3205V13.9499C9.52625 13.6679 8.40495 12.7767 8.05952 11.542C7.92649 11.0666 8.25115 10.5852 8.78461 10.4666C9.31807 10.3481 9.85837 10.6375 9.99127 11.1128C10.2379 11.9944 11.2728 12.2892 12.0839 12.2699C12.7892 12.2549 13.466 12.0358 13.7683 11.7244C13.9228 11.5651 13.9772 11.3871 13.9445 11.1471C13.8876 10.7299 13.5964 10.2178 11.8343 9.9601C9.0463 9.55226 8.39462 8.24612 8.33888 7.2223C8.26285 5.82767 9.32591 4.6587 10.9916 4.2941V3.90833C10.9916 3.41843 11.4374 3.02123 11.9871 3.02123C12.5369 3.02123 12.9826 3.41843 12.9826 3.90833V4.28623C14.0623 4.51122 15.0851 5.12975 15.623 6.27177C15.8358 6.72342 15.5975 7.24348 15.0906 7.43309C14.5835 7.62293 14.0001 7.41036 13.7873 6.95861C13.368 6.06874 12.34 5.8402 11.5074 6.00864C11.3023 6.05011 10.2818 6.29916 10.3275 7.13636C10.3396 7.35858 10.3717 7.94839 12.1567 8.20953C14.4538 8.54551 15.7203 9.46211 15.9208 10.9336C16.0212 11.6709 15.7976 12.3457 15.274 12.8853C14.7494 13.4259 13.9263 13.8076 12.9825 13.9649V14.3207C12.9827 14.8103 12.5371 15.2076 11.9872 15.2076ZM44.9525 13.131C45.107 12.9718 45.1614 12.7937 45.1287 12.5537C45.0718 12.1365 44.7806 11.6245 43.0185 11.3668C40.2305 10.9588 39.5788 9.65272 39.5231 8.6289C39.447 7.23427 40.5101 6.0653 42.1758 5.70071V5.31482C42.1758 4.82492 42.6215 4.42772 43.1713 4.42772C43.7211 4.42772 44.1668 4.82492 44.1668 5.31482V5.69272C45.2465 5.91771 46.2693 6.53624 46.8072 7.67827C47.02 8.12991 46.7817 8.64997 46.2748 8.83959C45.7677 9.02943 45.1843 8.81686 44.9715 8.3651C44.5522 7.47523 43.5242 7.2468 42.6916 7.41513C42.4865 7.4566 41.466 7.70566 41.5117 8.54285C41.5238 8.76507 41.5559 9.35488 43.341 9.61613C45.6381 9.95212 46.9047 10.8686 47.1051 12.3401C47.2057 13.0774 46.9819 13.7522 46.4583 14.2918C45.9335 14.8325 45.1105 15.2142 44.1668 15.3715V15.7272C44.1668 16.2171 43.7211 16.6143 43.1713 16.6143C42.6215 16.6143 42.1758 16.2171 42.1758 15.7272V15.3568C40.7103 15.0748 39.589 14.1836 39.2436 12.9487C39.1106 12.4734 39.4352 11.9919 39.9687 11.8733C40.502 11.7549 41.0423 12.0442 41.1753 12.5195C41.4221 13.4013 42.4558 13.6967 43.268 13.6767C43.9735 13.6616 44.6504 13.4424 44.9525 13.131ZM29.2812 17.4306C29.4357 17.2712 29.4901 17.0932 29.4574 16.8532C29.4005 16.4359 29.1093 15.9239 27.3472 15.6662C24.5592 15.2582 23.9075 13.9521 23.8518 12.9283C23.7757 11.5337 24.8388 10.3647 26.5045 10.0001V9.61435C26.5045 9.12446 26.9502 8.72726 27.5 8.72726C28.0498 8.72726 28.4955 9.12446 28.4955 9.61435V9.99226C29.5752 10.2172 30.598 10.8358 31.1359 11.9778C31.3487 12.4294 31.1104 12.9495 30.6035 13.1391C30.0964 13.3289 29.513 13.1164 29.3002 12.6646C28.8809 11.7748 27.853 11.5465 27.0203 11.7147C26.8152 11.7561 25.7947 12.0052 25.8404 12.8424C25.8525 13.0646 25.8846 13.6544 27.6697 13.9157C29.967 14.2517 31.2334 15.1681 31.4338 16.6396C31.5342 17.377 31.3105 18.0519 30.787 18.5914C30.2622 19.132 29.4392 19.5137 28.4955 19.671V20.0268C28.4955 20.5167 28.0498 20.9139 27.5 20.9139C26.9502 20.9139 26.5045 20.5167 26.5045 20.0268V19.6563C25.039 19.3743 23.9177 18.4831 23.5723 17.2483C23.4393 16.7729 23.7639 16.2914 24.2974 16.1729C24.8308 16.0543 25.3711 16.3438 25.504 16.819C25.7508 17.7008 26.7839 17.9974 27.5968 17.9762C28.3022 17.9612 28.9791 17.7419 29.2812 17.4306Z" fill="black"/>
</svg>
