<svg width="55" height="55" viewBox="0 0 55 55" fill="none" xmlns="http://www.w3.org/2000/svg">
<g clip-path="url(#clip0_2332_388)">
<path fill-rule="evenodd" clip-rule="evenodd" d="M5.49974 12.901C5.21039 12.9762 4.90687 13.0162 4.59413 13.0162C2.61049 13.0162 1 11.4057 1 9.42206C1 7.43843 2.61049 5.82794 4.59413 5.82794C6.57777 5.82794 8.18826 7.43843 8.18826 9.42206C8.18826 10.5554 7.66244 11.5671 6.84169 12.226L7.89333 14.25H11.8902V5.48848C11.8902 3.01947 13.9102 1 16.3757 1H38.6213C41.0902 1 43.1098 3.01969 43.1098 5.48848V14.25H47.1067L48.1583 12.226C47.3376 11.5671 46.8117 10.5554 46.8117 9.42206C46.8117 7.43843 48.4222 5.82794 50.4059 5.82794C52.3895 5.82794 54 7.43843 54 9.42206C54 11.4057 52.3895 13.0162 50.4059 13.0162C50.0931 13.0162 49.7896 12.9762 49.5003 12.901L48.2292 15.3473C48.0999 15.596 47.843 15.752 47.5628 15.752H43.1098V25.7298H46.8905C47.2362 24.1061 48.6797 22.8866 50.4059 22.8866C52.3895 22.8866 54 24.4971 54 26.4808C54 28.4644 52.3895 30.0749 50.4059 30.0749C48.6797 30.0749 47.2362 28.8555 46.8905 27.2318H43.1098V37.2095H47.5628C47.843 37.2095 48.0999 37.3655 48.2292 37.6142L49.5249 40.1079C49.8069 40.0368 50.1019 39.999 50.4059 39.999C52.3895 39.999 54 41.6095 54 43.5931C54 45.5768 52.3895 47.1872 50.4059 47.1872C48.4222 47.1872 46.8117 45.5768 46.8117 43.5931C46.8117 42.4506 47.3459 41.4319 48.178 40.7734L47.1067 38.7115H43.1098V49.5115C43.1098 51.9803 41.0902 54 38.6213 54H16.3757C13.9102 54 11.8902 51.9805 11.8902 49.5115V38.7115H7.89333L6.82195 40.7734C7.65407 41.4319 8.18826 42.4506 8.18826 43.5931C8.18826 45.5768 6.57777 47.1872 4.59413 47.1872C2.61049 47.1872 1 45.5768 1 43.5931C1 41.6095 2.61049 39.999 4.59413 39.999C4.89807 39.999 5.19312 40.0368 5.47507 40.1079L6.77078 37.6142C6.90006 37.3655 7.15701 37.2095 7.43725 37.2095H11.8902V27.2318H8.10951C7.76383 28.8555 6.32028 30.0749 4.59413 30.0749C2.61049 30.0749 1 28.4644 1 26.4808C1 24.4971 2.61049 22.8866 4.59413 22.8866C6.32028 22.8866 7.76383 24.1061 8.10951 25.7298H11.8902V15.752H7.43725C7.15701 15.752 6.90006 15.596 6.77078 15.3473L5.49974 12.901ZM41.6078 49.5115V5.48848C41.6078 3.8458 40.264 2.50202 38.6213 2.50202H16.3757C14.7356 2.50202 13.3922 3.84601 13.3922 5.48848V49.5115C13.3922 51.154 14.7356 52.498 16.3757 52.498H38.6213C40.264 52.498 41.6078 51.1542 41.6078 49.5115ZM48.3138 26.4808C48.3138 27.6354 49.2512 28.5729 50.4059 28.5729C51.5605 28.5729 52.498 27.6354 52.498 26.4808C52.498 25.3261 51.5605 24.3887 50.4059 24.3887C49.2512 24.3887 48.3138 25.3261 48.3138 26.4808ZM6.68623 26.4808C6.68623 25.3261 5.74876 24.3887 4.59413 24.3887C3.4395 24.3887 2.50202 25.3261 2.50202 26.4808C2.50202 27.6354 3.4395 28.5729 4.59413 28.5729C5.74876 28.5729 6.68623 27.6354 6.68623 26.4808ZM37.9001 29.0756C36.3765 29.0756 35.6116 30.9218 36.6892 31.9994C37.2672 32.5776 37.2672 33.5181 36.6892 34.0961L35.1154 35.6699C34.5373 36.248 33.5968 36.248 33.0187 35.6699C31.9411 34.5923 30.0949 35.3573 30.0949 36.8809C30.0949 37.7019 29.4312 38.3629 28.6129 38.3629H26.3871C25.5688 38.3629 24.9051 37.7019 24.9051 36.8809C24.9051 35.3555 23.0598 34.5915 21.9813 35.6699C21.4029 36.2484 20.4644 36.2484 19.8861 35.6702L18.3108 34.0961C17.7328 33.5181 17.7328 32.5776 18.3108 31.9994C19.3884 30.9218 18.6243 29.0756 17.0999 29.0756C16.2816 29.0756 15.6179 28.4119 15.6179 27.5937V25.3679C15.6179 24.5496 16.2816 23.8859 17.0999 23.8859C18.6243 23.8859 19.3884 22.0397 18.3108 20.9621C17.7323 20.3836 17.7323 19.4452 18.3108 18.8667L19.8859 17.2916C20.4644 16.7131 21.4029 16.7131 21.9813 17.2916C23.0589 18.3692 24.9051 17.6051 24.9051 16.0806C24.9051 15.2624 25.5688 14.5987 26.3871 14.5987H28.6129C29.4312 14.5987 30.0949 15.2624 30.0949 16.0806C30.0949 17.6051 31.9411 18.3692 33.0187 17.2916C33.5968 16.7135 34.5373 16.7135 35.1154 17.2916L36.6892 18.8667C37.2677 19.4452 37.2677 20.3836 36.6892 20.9621C35.6116 22.0397 36.3765 23.8859 37.9001 23.8859C38.7211 23.8859 39.3821 24.5496 39.3821 25.3679V27.5937C39.3821 28.4119 38.7211 29.0756 37.9001 29.0756ZM17.1199 25.3878V27.5737C19.9616 27.5898 21.3843 31.028 19.3866 33.0477L20.9337 34.5935C22.9552 32.595 26.391 34.0178 26.4071 36.8608H28.5929C28.609 34.0209 32.0473 32.5965 34.067 34.5942L35.6134 33.0477C33.6157 31.028 35.0402 27.5898 37.8801 27.5737V25.3878C35.0404 25.3717 33.6159 21.9342 35.6128 19.9145L34.067 18.3674C32.0473 20.3651 28.609 18.9423 28.5929 16.1007H26.4071C26.391 18.942 22.9535 20.3648 20.9337 18.368L19.3872 19.9145C21.3841 21.9342 19.9612 25.3717 17.1199 25.3878ZM27.5006 32.5807C24.1406 32.5807 21.4014 29.8399 21.4014 26.4814C21.4014 23.1214 24.1406 20.3821 27.5006 20.3821C30.8592 20.3821 33.5999 23.1214 33.5999 26.4814C33.5999 29.8399 30.8592 32.5807 27.5006 32.5807ZM27.5006 31.0787C30.0321 31.0787 32.0979 29.0129 32.0979 26.4814C32.0979 23.9489 30.0321 21.8841 27.5006 21.8841C24.9681 21.8841 22.9034 23.9489 22.9034 26.4814C22.9034 29.0129 24.9681 31.0787 27.5006 31.0787ZM25.4685 48.8149C25.0541 48.8149 24.7175 48.4785 24.7175 48.0639C24.7175 47.6494 25.0541 47.3129 25.4685 47.3129H29.5315C29.9459 47.3129 30.2825 47.6494 30.2825 48.0639C30.2825 48.4785 29.9459 48.8149 29.5315 48.8149H25.4685ZM4.59413 41.501C3.4395 41.501 2.50202 42.4385 2.50202 43.5931C2.50202 44.7477 3.4395 45.6852 4.59413 45.6852C5.74876 45.6852 6.68623 44.7477 6.68623 43.5931C6.68623 42.4385 5.74876 41.501 4.59413 41.501ZM50.4059 7.32996C49.2512 7.32996 48.3138 8.26744 48.3138 9.42206C48.3138 10.5767 49.2512 11.5142 50.4059 11.5142C51.5605 11.5142 52.498 10.5767 52.498 9.42206C52.498 8.26744 51.5605 7.32996 50.4059 7.32996ZM50.4059 41.501C49.2512 41.501 48.3138 42.4385 48.3138 43.5931C48.3138 44.7477 49.2512 45.6852 50.4059 45.6852C51.5605 45.6852 52.498 44.7477 52.498 43.5931C52.498 42.4385 51.5605 41.501 50.4059 41.501ZM4.59413 7.32996C3.4395 7.32996 2.50202 8.26744 2.50202 9.42206C2.50202 10.5767 3.4395 11.5142 4.59413 11.5142C5.74876 11.5142 6.68623 10.5767 6.68623 9.42206C6.68623 8.26744 5.74876 7.32996 4.59413 7.32996Z" fill="black" stroke="black" stroke-width="0.5"/>
</g>
<defs>
<clipPath id="clip0_2332_388">
<rect width="55" height="55" fill="white"/>
</clipPath>
</defs>
</svg>
