<svg height="512" viewBox="0 0 64 64" width="512" xmlns="http://www.w3.org/2000/svg"><g id="Recieved"><rect fill="#ffac00" height="42" rx="4" width="42" x="14" y="5"/><path d="m56 9v11c-.33 0-.66.05-1 .05a11 11 0 0 1 -10.25-15.05h7.25a4 4 0 0 1 4 4z" fill="#ea9706"/><circle cx="55" cy="9" fill="#50d9d7" r="9"/><circle cx="55" cy="9" fill="#f3f3f3" r="7"/><path d="m54 12a1 1 0 0 1 -.71-.29l-2-2a1 1 0 0 1 1.42-1.42l1.29 1.3 3.29-3.3a1 1 0 1 1 1.42 1.42l-4 4a1 1 0 0 1 -.71.29z" fill="#ffac00"/><path d="m56 38.11v4.89a4 4 0 0 1 -4 4h-34a4 4 0 0 1 -4-4v-10.6a13 13 0 0 1 5.87-1.4h5.88a13 13 0 0 1 7.64 2.48l7.66 5.57a4.14 4.14 0 0 1 1.47 2v.11l10.21-2.66a12.92 12.92 0 0 1 3.27-.39z" fill="#ea9706"/><path d="m63.71 43.29a10.94 10.94 0 0 0 -10.44-2.83l-10.27 2.68-2.74.72c.12-.21.22-.42.32-.64a2.05 2.05 0 0 0 .11-1.31.12.12 0 0 1 0-.08 2.08 2.08 0 0 0 -.79-1.15l-7.68-5.58a11 11 0 0 0 -6.47-2.1h-5.88a11 11 0 0 0 -5.87 1.67l-5.53 3.48a1 1 0 0 0 -.47.85v20a1 1 0 0 0 1 1h7.35a22.25 22.25 0 0 1 5 .57l8.89 2a14.72 14.72 0 0 0 11.93-2.4l21.4-15.41a1 1 0 0 0 .42-.73 1.05 1.05 0 0 0 -.28-.74z" fill="#d9d9d9"/><rect fill="#00bebd" height="30" rx="3" width="10" y="34"/><path d="m28 5v11.52a1.48 1.48 0 0 0 1.48 1.48 1.5 1.5 0 0 0 .93-.32l3.34-2.68a2 2 0 0 1 2.5 0l3.34 2.68a1.5 1.5 0 0 0 .93.32 1.48 1.48 0 0 0 1.48-1.48v-11.52z" fill="#f3f3f3"/><path d="m43 43.14a1.46 1.46 0 0 1 -.07.19 7 7 0 0 1 -4.21 3.88 7.13 7.13 0 0 1 -2.23.36 7 7 0 0 1 -3.49-.92l-1.15-.65a1 1 0 0 1 1-1.74l1.16.66a5 5 0 0 0 6.25-1z" fill="#c8c8c8"/></g></svg>