<svg width="113" height="32" viewBox="0 0 113 32" fill="none" xmlns="http://www.w3.org/2000/svg">
<path d="M29.3789 0H34.5769V31.9999H29.3789V0Z" fill="white"/>
<path d="M52.6561 21.8591C52.6561 26.8169 48.588 27.2676 47.232 27.2676C44.068 27.2676 43.616 24.338 43.616 22.7606V10.3662H38.418V22.5352C38.418 25.4648 39.322 28.169 41.13 29.7465C42.712 31.3239 44.746 32 47.232 32C49.04 32 51.3001 31.5493 52.6561 30.1972V32H57.8541V10.3662H52.6561V21.8591Z" fill="white"/>
<path d="M68.0244 2.479H62.8264V10.3663H58.9844V15.3241H62.8264V32.0001H68.0244V15.3241H71.8665V10.3663H68.0244V2.479Z" fill="white"/>
<path d="M88.1376 25.4648C87.0076 26.3662 85.4256 27.0423 83.8436 27.0423C80.2276 27.0423 77.7416 24.338 77.7416 20.7324C77.7416 17.1268 80.2276 14.6479 83.8436 14.6479C85.4256 14.6479 87.0076 15.0986 88.1376 16.2254L88.8157 16.9014L92.4317 13.5212L91.5277 12.8451C89.4937 11.0423 86.7816 9.91553 83.8436 9.91553C77.5156 9.91553 72.7695 14.6479 72.7695 20.9578C72.7695 27.2676 77.5156 32 83.8436 32C86.7816 32 89.4937 30.8732 91.5277 29.0704L92.4317 28.3944L88.8157 24.7887L88.1376 25.4648Z" fill="white"/>
<path d="M110.738 12.169C109.156 10.5915 107.574 9.91548 105.088 9.91548C103.28 9.91548 101.472 10.3662 100.116 11.7183V0H94.918V31.9999H100.116V20.0563C100.116 15.0986 103.506 14.6479 104.862 14.6479C108.026 14.6479 107.8 17.5774 107.8 19.1549V31.7746H112.998V19.3803C112.998 16.4507 112.32 13.7465 110.738 12.169Z" fill="white"/>
<path d="M83.6238 24.5633C85.6209 24.5633 87.2399 22.949 87.2399 20.9577C87.2399 18.9663 85.6209 17.3521 83.6238 17.3521C81.6268 17.3521 80.0078 18.9663 80.0078 20.9577C80.0078 22.949 81.6268 24.5633 83.6238 24.5633Z" fill="#EF4335"/>
<path d="M22.1482 24.1124C20.3402 25.9153 17.6281 27.042 14.6901 27.042C9.04007 27.042 4.97204 22.535 4.97204 16.4505C4.97204 10.366 9.04007 5.85896 14.9161 5.85896C17.6281 5.85896 20.3402 6.98571 22.3742 9.01388L23.0522 9.68993L26.4422 6.30966L25.7642 5.6336C22.8262 2.70403 18.9841 1.12657 14.9161 1.12657C6.32805 0.901215 0 7.66177 0 16.4505C0 25.2392 6.32805 31.9998 14.6901 31.9998C18.7581 31.9998 22.8262 30.4223 25.5382 27.4927L26.2162 26.8167L22.8262 23.4364L22.1482 24.1124Z" fill="white"/>
</svg>
