<svg width="136" height="32" viewBox="0 0 136 32" fill="none" xmlns="http://www.w3.org/2000/svg">
<path d="M41.0352 11.8738H44.8661C47.9496 11.8738 50.0987 14.2068 50.0987 17.2137V17.2656C50.0987 20.2725 47.9963 22.6055 44.8661 22.6055H41.0352V11.8738ZM44.8661 20.4281C46.6415 20.4281 47.8094 19.132 47.8094 17.2656V17.2137C47.8094 15.3473 46.6415 13.9994 44.8661 13.9994H43.231V20.4281H44.8661Z" fill="white"/>
<path d="M51.9688 11.8738H59.3971V13.9475H54.1646V16.125H58.7897V18.1988H54.1646V20.4281H59.4905V22.5018H52.0155L51.9688 11.8738Z" fill="white"/>
<path d="M60.707 20.9984L62.0152 19.3394C62.9028 20.117 63.8372 20.6355 64.9585 20.6355C65.8461 20.6355 66.36 20.2207 66.36 19.6504V19.5986C66.36 18.9764 65.9863 18.6654 64.3978 18.2506C62.4356 17.6803 61.1275 17.1101 61.1275 14.9844V14.9326C61.1275 13.0144 62.5291 11.7183 64.5847 11.7183C65.9863 11.7183 67.2477 12.1849 68.2288 13.0662L67.1076 14.8808C66.2666 14.2068 65.3789 13.8439 64.538 13.8439C63.6971 13.8439 63.2766 14.2586 63.2766 14.7771V14.7252C63.2766 15.3992 63.6971 15.6584 65.3789 16.125C67.3879 16.6953 68.4624 17.473 68.4624 19.2875V19.3394C68.4624 21.465 66.9674 22.6574 64.865 22.6574C63.37 22.6574 61.875 22.0871 60.707 20.9984Z" fill="white"/>
<path d="M70.418 11.8738H72.5671V22.5537H70.418V11.8738Z" fill="white"/>
<path d="M74.6211 17.2138C74.6211 14.155 76.7702 11.6665 79.7602 11.6665C81.5355 11.6665 82.5634 12.1849 83.5912 13.17L82.2363 14.9845C81.4888 14.3106 80.8347 13.8958 79.6668 13.8958C78.0783 13.8958 76.8636 15.3993 76.8636 17.2138V17.2657C76.8636 19.2358 78.0783 20.6874 79.8536 20.6874C80.6479 20.6874 81.3487 20.48 81.9093 20.0134V18.5099H79.7135V16.488H83.9649V21.1022C82.9371 22.0353 81.5822 22.813 79.7602 22.813C76.6767 22.6575 74.6211 20.3763 74.6211 17.2138Z" fill="white"/>
<path d="M86.0273 11.8738H88.0363L92.6147 18.4061V11.8738H94.7171V22.5537H92.8951L88.1297 15.7621V22.5537H86.0273V11.8738Z" fill="white"/>
<path d="M97.0973 11.8733H101.582C102.844 11.8733 103.778 12.288 104.432 12.962C104.993 13.5841 105.273 14.4137 105.273 15.3987V15.4505C105.273 17.1614 104.432 18.2501 103.171 18.7686L105.554 22.5532H103.031L100.928 19.1315H100.882H99.1997V22.5532H97.0039V11.8733H97.0973ZM101.442 17.0059C102.517 17.0059 103.077 16.3837 103.077 15.5024V15.4505C103.077 14.4655 102.47 13.9471 101.396 13.9471H99.2464V17.0059H101.442Z" fill="url(#paint0_linear_510_732)"/>
<path d="M107.098 17.9395V11.8219H109.247V17.8358C109.247 19.5985 110.041 20.428 111.349 20.428C112.657 20.428 113.451 19.5467 113.451 17.8358V11.77H115.601V17.7839C115.601 20.9983 113.919 22.6055 111.302 22.6055C108.686 22.6055 107.098 21.0501 107.098 17.9395Z" fill="url(#paint1_linear_510_732)"/>
<path d="M117.141 20.9984L118.449 19.3394C119.336 20.117 120.271 20.6355 121.392 20.6355C122.28 20.6355 122.794 20.2207 122.794 19.6504V19.5986C122.794 18.9764 122.42 18.6654 120.831 18.2506C118.869 17.6803 117.561 17.1101 117.561 14.9844V14.9326C117.561 13.0144 118.963 11.7183 121.018 11.7183C122.42 11.7183 123.681 12.1849 124.662 13.0662L123.541 14.8808C122.7 14.2068 121.813 13.8439 120.972 13.8439C120.131 13.8439 119.71 14.2586 119.71 14.7771V14.7252C119.71 15.3992 120.131 15.6584 121.813 16.125C123.821 16.6953 124.896 17.473 124.896 19.2875V19.3394C124.896 21.465 123.401 22.6574 121.299 22.6574C119.85 22.6574 118.309 22.0871 117.141 20.9984Z" fill="url(#paint2_linear_510_732)"/>
<path d="M126.77 11.8733H128.919V16.1245H132.89V11.8733H135.039V22.5532H132.89V18.302H128.919V22.5532H126.77V11.8733Z" fill="url(#paint3_linear_510_732)"/>
<path d="M20.3967 16.0682C20.2723 16.0682 20.2723 15.9309 20.3967 16.0682L19.7748 15.6562L19.6505 15.5189L4.9748 3.98226C4.9748 3.98226 4.85043 3.98226 4.85043 3.84492L4.60169 3.57024L4.47732 3.4329H4.22858L0 0.136719L8.33279 1.51013C8.7059 1.51013 8.83027 1.64747 9.20338 1.78481C9.32775 1.78481 9.57649 1.92215 9.57649 1.92215C9.9496 2.05949 10.074 2.19683 10.3227 2.33417C10.5715 2.47151 10.6958 2.60885 10.9446 2.74619C11.0689 2.88353 11.3177 3.02087 11.3177 3.15821C11.442 3.29555 11.5664 3.29555 11.6908 3.4329C11.9395 3.57024 12.0639 3.70758 12.0639 3.84492C12.437 4.25694 12.6857 4.66896 13.0589 4.94364L19.6505 15.2442L19.7748 15.3815L20.3967 16.0682Z" fill="#2AD2FF"/>
<path d="M20.3934 31.9998L19.7716 30.901L19.6472 30.7637L0.121094 0.136719L4.34967 3.4329L5.09589 3.98226L19.7716 15.5189H19.8959L20.3934 15.9309C20.3934 15.9309 20.5178 15.9309 20.5178 16.0682L21.1396 15.5189L40.9145 0.136719L21.0153 30.901L20.8909 31.0384L20.3934 31.9998Z" fill="url(#paint4_linear_510_732)"/>
<path d="M20.3935 10.8496L19.7717 9.7509L19.6473 9.61355L14.7969 2.19716L19.6473 3.29588H19.7717L20.3935 3.43322L21.0154 3.29588L25.7414 2.05981L21.0154 9.7509V9.88823L20.3935 10.8496Z" fill="#2AD2FF"/>
<path d="M41.0321 0L34.8136 0.961383L32.4506 1.37341C30.5851 1.64809 28.8439 2.74681 27.7245 4.53224L21.1329 14.9701L21.0086 15.1075L20.3867 16.0689L21.1329 15.2448L21.2573 15.1075L20.3867 16.0689L37.1767 2.88416L41.0321 0Z" fill="#2AD2FF"/>
<defs>
<linearGradient id="paint0_linear_510_732" x1="96.0976" y1="0.104656" x2="135.435" y2="0.104656" gradientUnits="userSpaceOnUse">
<stop offset="0.73" stop-color="#2AF4FF"/>
<stop offset="0.884" stop-color="#2AF4FF"/>
</linearGradient>
<linearGradient id="paint1_linear_510_732" x1="96.1" y1="0.105072" x2="135.437" y2="0.105072" gradientUnits="userSpaceOnUse">
<stop offset="0.73" stop-color="#2AF4FF"/>
<stop offset="0.884" stop-color="#2AF4FF"/>
</linearGradient>
<linearGradient id="paint2_linear_510_732" x1="96.0983" y1="0.10516" x2="135.436" y2="0.10516" gradientUnits="userSpaceOnUse">
<stop offset="0.73" stop-color="#2AF4FF"/>
<stop offset="0.884" stop-color="#2AF4FF"/>
</linearGradient>
<linearGradient id="paint3_linear_510_732" x1="96.1031" y1="0.104656" x2="135.441" y2="0.104656" gradientUnits="userSpaceOnUse">
<stop offset="0.73" stop-color="#2AF4FF"/>
<stop offset="0.884" stop-color="#2AF4FF"/>
</linearGradient>
<linearGradient id="paint4_linear_510_732" x1="-0.00327623" y1="32.0574" x2="-0.00327623" y2="15.2002" gradientUnits="userSpaceOnUse">
<stop offset="0.73" stop-color="#2AF4FF"/>
<stop offset="0.884" stop-color="#2AF4FF"/>
</linearGradient>
</defs>
</svg>
