<svg width="98" height="33" viewBox="0 0 98 33" fill="none" xmlns="http://www.w3.org/2000/svg">
<path d="M18.4853 11.6707C20.3342 11.6707 22.1841 11.6707 24.0352 11.6707C24.1752 11.6707 24.2545 11.6919 24.2745 11.848C24.6615 14.8714 24.2745 17.763 22.5208 20.3245C21.7255 21.5055 20.6982 22.5152 19.5003 23.2933C18.3025 24.0713 16.9587 24.6017 15.5494 24.8526C13.1797 25.3709 10.7098 25.2022 8.43414 24.3664C3.98388 22.6679 1.14086 19.5274 0.232107 14.8656C-0.12996 13.0881 -0.0677213 11.2512 0.413838 9.50172C0.895397 7.75228 1.78292 6.13879 3.00546 4.79037C4.88742 2.52414 7.53204 1.00931 10.4516 0.525244C12.2603 0.157932 14.1302 0.210959 15.9147 0.680337C17.6992 1.14972 19.3499 2.0227 20.7375 3.2307C20.8968 3.36568 21.0477 3.51022 21.2064 3.64584C21.2805 3.70982 21.2806 3.75338 21.2096 3.82311C20.4649 4.55455 19.723 5.28847 18.9838 6.02502C18.8768 6.1325 18.8277 6.06988 18.7529 6.00206C17.4921 4.83222 15.9029 4.06973 14.1956 3.81546C12.9666 3.60362 11.7063 3.65276 10.4979 3.95978C9.28946 4.26679 8.16047 4.82465 7.18548 5.59645C6.21073 6.33267 5.40484 7.2659 4.82119 8.33439C4.23755 9.40288 3.88948 10.5822 3.80005 11.7942C3.60162 13.397 3.851 15.0231 4.52093 16.4948C5.19087 17.9665 6.25562 19.2273 7.59891 20.1396C8.79325 20.9984 10.1975 21.5246 11.6661 21.6635C13.4588 21.8987 15.2817 21.6003 16.9032 20.8062C17.9667 20.3123 18.8857 19.5577 19.5735 18.6136C20.2613 17.6696 20.6952 16.5673 20.8342 15.4107C20.8845 15.0582 20.8858 15.0582 20.5311 15.0588C18.0218 15.0588 15.5126 15.0588 13.0037 15.0588C12.6748 15.0588 12.7103 15.1004 12.7096 14.7575C12.7096 13.8152 12.7173 12.8721 12.7032 11.9298C12.6999 11.7033 12.7754 11.6675 12.9818 11.6682C14.8135 11.6739 16.6503 11.6707 18.4853 11.6707Z" fill="#567EBF"/>
<path d="M76.138 17.3768C76.138 19.3659 76.138 21.355 76.138 23.3442C76.1795 24.5905 76.0474 25.8366 75.7453 27.047C75.3304 28.7481 74.2669 30.2235 72.7784 31.1631C71.7958 31.753 70.6908 32.1135 69.5471 32.2174C68.3094 32.3767 67.0515 32.2508 65.8708 31.8496C64.8866 31.5051 63.9832 30.9659 63.2154 30.2646C62.4476 29.5633 61.8315 28.7145 61.4044 27.7698C61.3264 27.608 61.3658 27.546 61.5277 27.4801C62.4147 27.1231 63.2981 26.7581 64.1778 26.3849C64.3571 26.3088 64.4228 26.3395 64.5092 26.5129C64.7877 27.1665 65.2258 27.7412 65.7839 28.1851C66.342 28.6291 67.0026 28.9282 67.7064 29.0557C68.3569 29.1983 69.0322 29.1876 69.6778 29.0242C70.3234 28.8607 70.9213 28.5491 71.4234 28.1147C72.0812 27.4968 72.511 26.678 72.6442 25.7892C72.7653 25.0117 72.8087 24.2242 72.7733 23.4382C72.7733 23.3902 72.7952 23.3243 72.7242 23.3103C72.6313 23.2879 72.5953 23.3685 72.5463 23.421C71.7902 24.2373 70.7864 24.7869 69.6871 24.9865C67.9951 25.3304 66.2346 25.0255 64.7602 24.133C63.6788 23.5434 62.7529 22.7088 62.058 21.6972C61.3632 20.6856 60.919 19.5255 60.7615 18.3114C60.4698 16.3829 60.8958 14.4151 61.9601 12.7755C63.0244 11.136 64.6541 9.93695 66.5448 9.40236C67.3566 9.15866 68.2102 9.08181 69.053 9.17652C69.8958 9.27123 70.7102 9.53556 71.4466 9.95323C71.8571 10.1841 72.2273 10.4792 72.543 10.8271C72.5926 10.8821 72.6384 10.955 72.7261 10.9153C72.8028 10.8782 72.7669 10.7957 72.7675 10.7343C72.7714 10.4375 72.7778 10.1399 72.7675 9.84375C72.7611 9.68253 72.7998 9.62693 72.9752 9.62821C73.9564 9.63717 74.9376 9.63717 75.9188 9.62821C76.1058 9.62821 76.138 9.69216 76.1374 9.85593C76.1348 12.3611 76.135 14.8681 76.138 17.3768ZM64.2301 17.0025C64.1782 18.2559 64.5987 19.4835 65.4096 20.4461C65.8283 20.9593 66.3646 21.3658 66.9738 21.6316C67.5831 21.8974 68.2476 22.0149 68.9119 21.9742C69.5762 21.9336 70.221 21.7359 70.7926 21.3978C71.3642 21.0596 71.8461 20.5907 72.198 20.0304C72.7477 19.1975 73.048 18.2271 73.0639 17.2317C73.0797 16.2363 72.8105 15.2567 72.2876 14.407C72.0004 13.8778 71.5984 13.4185 71.1104 13.0623C70.6224 12.7061 70.0605 12.4619 69.4657 12.3474C68.8709 12.2329 68.2578 12.251 67.6709 12.4004C67.084 12.5497 66.5379 12.8265 66.0721 13.2108C65.4914 13.6596 65.0229 14.2351 64.7031 14.8928C64.3833 15.5504 64.2208 16.2724 64.2282 17.0025H64.2301Z" fill="#567EBF"/>
<path d="M25.7843 16.9219C25.8203 15.3293 26.3334 13.7834 27.2583 12.4812C28.1832 11.179 29.4781 10.1793 30.9778 9.60957C32.4775 9.03982 34.1142 8.92583 35.6795 9.28204C37.2448 9.63826 38.6678 10.4485 39.7671 11.6097C40.8664 12.7709 41.5924 14.2304 41.8525 15.8023C42.1126 17.3743 41.895 18.9874 41.2276 20.4362C40.5601 21.8851 39.4729 23.1041 38.1045 23.9379C36.7361 24.7717 35.1485 25.1826 33.5439 25.1182C32.4884 25.0962 31.4479 24.8655 30.4835 24.4396C29.5191 24.0136 28.6501 23.401 27.9274 22.6377C27.2048 21.8743 26.6429 20.9755 26.2749 19.9941C25.9069 19.0126 25.7401 17.9681 25.7843 16.9219ZM38.4147 17.1323C38.4204 16.4931 38.309 15.8582 38.0857 15.2585C37.8303 14.5335 37.3889 13.887 36.8049 13.3827C36.221 12.8784 35.5147 12.5337 34.7555 12.3825C33.9964 12.2313 33.2107 12.2788 32.4757 12.5204C31.7408 12.762 31.082 13.1893 30.5641 13.7602C29.729 14.7385 29.2877 15.9884 29.3252 17.2697C29.3627 18.5511 29.8763 19.7735 30.7673 20.7021C31.5408 21.4674 32.5742 21.919 33.6656 21.9687C34.757 22.0184 35.8278 21.6625 36.6687 20.9707C37.2343 20.5041 37.6855 19.9161 37.988 19.2509C38.2905 18.5858 38.4364 17.8616 38.4147 17.1323Z" fill="#EA4536"/>
<path d="M59.3996 17.1308C59.4058 18.7186 58.9366 20.2725 58.0515 21.5955C57.1664 22.9185 55.9052 23.9511 54.4279 24.5624C52.9505 25.1738 51.3234 25.3363 49.7528 25.0294C48.1822 24.7226 46.7388 23.9603 45.6055 22.8389C44.4722 21.7176 43.7 20.2877 43.3868 18.7306C43.0735 17.1735 43.2333 15.5593 43.846 14.0924C44.4587 12.6255 45.4966 11.3719 46.8283 10.4907C48.1599 9.6095 49.7252 9.14037 51.326 9.14251C52.389 9.12652 53.4445 9.32204 54.43 9.71759C55.4155 10.1131 56.3111 10.7006 57.0638 11.4453C57.8165 12.19 58.4109 13.0769 58.8122 14.0535C59.2134 15.03 59.4131 16.0764 59.3996 17.1308ZM51.1506 21.9743C51.7529 21.9926 52.3527 21.8898 52.9139 21.6721C53.4751 21.4544 53.986 21.1263 54.416 20.7076C55.1901 19.907 55.6859 18.8819 55.8309 17.7819C55.976 16.682 55.7627 15.5649 55.2223 14.5937C54.8813 13.9738 54.3952 13.4441 53.8049 13.0493C53.2145 12.6546 52.5372 12.4063 51.83 12.3253C51.1227 12.2443 50.4062 12.333 49.7407 12.5839C49.0752 12.8348 48.4802 13.2406 48.0058 13.7672C47.2973 14.6004 46.8692 15.6325 46.7815 16.7191C46.6938 17.8057 46.9509 18.8923 47.5168 19.8267C47.8886 20.4615 48.4174 20.9917 49.0532 21.3675C49.689 21.7433 50.4108 21.9521 51.1506 21.9743Z" fill="#F9BC17"/>
<path d="M83.1601 16.9105C83.1504 14.8745 83.9297 12.9126 85.3368 11.4304C86.5727 10.1089 88.2697 9.30405 90.0826 9.17926C93.0997 8.93552 95.3196 10.2315 96.9114 12.7086C97.3364 13.4404 97.6951 14.208 97.9834 15.0027C98.0479 15.1626 97.9311 15.1723 97.8395 15.2101L94.2999 16.6629C92.009 17.6012 89.7177 18.5394 87.4259 19.4777C87.2885 19.5334 87.2659 19.5787 87.3394 19.7124C87.7342 20.4975 88.3717 21.1369 89.1588 21.5372C89.9458 21.9375 90.8411 22.0777 91.7142 21.9375C92.3717 21.8676 93.0055 21.6542 93.5698 21.3124C94.1341 20.9706 94.6149 20.5088 94.9778 19.9606C95.1068 19.7815 95.1829 19.7847 95.3532 19.9005C96.1368 20.4328 96.9289 20.9524 97.7234 21.468C97.8589 21.5556 97.8622 21.6125 97.7686 21.736C96.9751 22.8821 95.8867 23.7966 94.6164 24.3844C93.3461 24.9723 91.9402 25.2118 90.5449 25.0785C89.1482 25.0197 87.7951 24.5798 86.6343 23.807C85.4736 23.0343 84.5503 21.9587 83.9663 20.6989C83.3963 19.5181 83.1199 18.2191 83.1601 16.9105ZM86.679 16.8592C86.7036 16.8631 86.7126 16.8676 86.7184 16.8656C89.0644 15.9031 91.4104 14.9407 93.7568 13.9785C93.8613 13.9357 93.8678 13.8883 93.8214 13.7955C93.7148 13.5742 93.5718 13.3722 93.3983 13.1975C93.0085 12.8127 92.53 12.5279 92.0043 12.3678C91.4785 12.2077 90.9215 12.1772 90.3811 12.2788C89.3008 12.4501 88.3233 13.0138 87.6389 13.8605C86.9545 14.7071 86.6128 15.776 86.679 16.8592Z" fill="#EA4536"/>
<path d="M81.6763 12.9203C81.6763 16.7417 81.6779 20.5631 81.6809 24.3845C81.6809 24.5899 81.6266 24.6403 81.4228 24.6403C80.4193 24.6295 79.4163 24.632 78.4128 24.6403C78.2554 24.6403 78.2148 24.6014 78.2148 24.4446C78.2187 16.772 78.2187 9.09966 78.2148 1.4275C78.2148 1.26245 78.2535 1.21567 78.4238 1.21759C79.4274 1.2259 80.4309 1.22782 81.4338 1.21759C81.6325 1.21759 81.6803 1.26435 81.6796 1.46139C81.6741 5.27977 81.6729 9.09935 81.6763 12.9203Z" fill="#36A852"/>
</svg>
